<ttFont>
<head>
    <!-- Most of this table will be recalculated by the compiler -->
    <tableVersion value="1.0"/>
    <fontRevision value="1.0"/>
    <checkSumAdjustment value="0x83f2698d"/>
    <magicNumber value="0x5f0f3cf5"/>
    <flags value="00000000 00000011"/>
    <unitsPerEm value="1000"/>
    <created value="Tue Aug  7 16:46:55 2018"/>
    <modified value="Mon Jun 15 15:43:06 2026"/>
    <xMin value="-173"/>
    <yMin value="-314"/>
    <xMax value="1204"/>
    <yMax value="920"/>
    <macStyle value="00000000 00000011"/>
    <lowestRecPPEM value="3"/>
    <fontDirectionHint value="2"/>
    <indexToLocFormat value="0"/>
    <glyphDataFormat value="0"/>
  </head>
          <CharString index="0">
            -2 callsubr
            hstemhm
            69 44 callsubr
            hintmask 00110100
            424 -15 rmoveto
            83 61 67 66 40 hvcurveto
            hintmask 10010100
            -31 -9 callgsubr
            -20 -20 -18 -76 callsubr
            76 345 -19 16 -134 -42 -9 -51 -9 -49 -10 -49 rlinecurve
            hintmask 01011100
            -34 -159 rlineto
            -1 -4 -1 -3 -4 vvcurveto
            -36 -42 -31 -16 -28 hhcurveto
            -20 -16 11 30 19 6 23 6 25 hvcurveto
            68 289 -17 16 -212 -64 -7 -38 73 -7 -52 -226 rlineto
            -7 -34 -7 -33 -29 vvcurveto
            -55 40 -29 47 60 67 36 66 64 vhcurveto
            -3 0 -4 -4 vvcurveto
            hintmask 00110100
            -58 33 -33 44 vhcurveto
            return
          </CharString>
          <CharString index="1">
            -101 callsubr
            -22 31 rcurveline
            33 -23 -26 22 -34 hhcurveto
            -35 -20 -25 -34 -5 hvcurveto
            -93 callgsubr
            return
          </CharString>
          <CharString index="2">
            -9 -47 rlineto
            76 hlineto
            -19 -129 -15 -106 callsubr
            return
          </CharString>
          <CharString index="3">
            -39 callsubr
            71 callsubr
            hintmask 01010110
            -103 callsubr
            hintmask 10001110
            -84 callsubr
            hintmask 00110110
            -96 callgsubr
            hintmask 01010110
            30 callgsubr
            return
          </CharString>
          <CharString index="4">
            191 176 rmoveto
            71 32 101 47 43 vhcurveto
            23 25 23 11 22 hhcurveto
            18 18 -5 -9 16 hvcurveto
            -56 -257 -1 -6 -1 -5 -1 -6 rlinecurve
            -31 -32 -29 -19 -26 hhcurveto
            -34 -21 26 63 hvcurveto
            218 -191 rmoveto
            75 67 70 63 36 hvcurveto
            return
          </CharString>
          <CharString index="5">
            rmoveto
            32 -20 35 34 36 33 35 35 rlinecurve
            32 29 17 27 30 vvcurveto
            35 -30 22 -30 -30 -26 -15 -59 -20 vhcurveto
            -18 -50 -16 -51 -17 -50 rrcurveto
            endchar
          </CharString>
          <CharString index="6">
            -127 -20 -124 -12 -71 -11 -57 -18 -47 -10 -26 -10 -18 -11 -15 return
          </CharString>
          <CharString index="7">
            rmoveto
            105 92 100 164 92 -43 52 -80 -110 -93 -111 -152 -102 54 -43 75 hvcurveto
            37 vmoveto
            -16 -17 11 59 125 54 139 49 15 16 -11 -56 -102 -50 -165 -51 hvcurveto
            return
          </CharString>
          <CharString index="8">
            81 19 32 43 45 vvcurveto
            50 -33 43 -96 -76 -57 -34 -68 -2 vhcurveto
            -11 7 13 -8 16 hhcurveto
            22 22 11 34 5 hvcurveto
            6 37 rlineto
            1 5 5 0 3 hhcurveto
            39 21 -18 -44 -57 -37 -28 -68 hvcurveto
            return
          </CharString>
          <CharString index="9">
            rmoveto
            -96 callsubr
            return
          </CharString>
          <CharString index="10">
            279 hlineto
            17 85 rlineto
            -204 hlineto
            174 109 52 45 64 vvcurveto
            55 -37 41 -74 -75 -62 -26 -90 -24 vhcurveto
            -30 3 15 -13 25 hhcurveto
            30 19 17 46 2 hvcurveto
            1 50 rlineto
            2 10 9 1 9 hhcurveto
            30 19 -17 -35 -52 -39 -53 -168 -137 hvcurveto
            return
          </CharString>
          <CharString index="11">
            78 -8 -14 16 callgsubr
            -15 -82 rlinecurve
            -54 -285 -79 -8 return
          </CharString>
          <CharString index="12">
            123 89 callgsubr
            28 -21 507 -20 21 -20 hstemhm
            51 555 -201 150 hintmask 00101100
            -15 callgsubr
            hintmask 01001010
            -70 callsubr
            hintmask 10010010
            -82 callsubr
            hintmask 01001100
            -12 callgsubr
            hintmask 00101100
            14 -12 rlineto
            return
          </CharString>
          <CharString index="13">
            rmoveto
            40 38 30 51 38 -29 24 -36 -39 -40 -29 -51 -40 31 -23 35 hvcurveto
            222 hmoveto
            40 38 30 51 38 -29 24 -36 -39 -39 -29 -51 -40 31 -23 34 hvcurveto
            endchar
          </CharString>
          <CharString index="14">
            23 32 rmoveto
            -32 49 71 -19 72 hhcurveto
            150 108 79 129 76 -36 59 -105 72 hvcurveto
            -76 52 -21 33 40 vvcurveto
            59 51 36 70 20 18 -3 -6 18 vhcurveto
            8 -123 rlineto
            87 hlineto
            17 141 rlineto
            32 -46 -72 19 -68 hhcurveto
            -141 -100 -80 -121 -69 29 -66 107 -75 hvcurveto
            79 -56 14 -35 -37 vvcurveto
            -62 -45 -34 -74 -21 -26 4 6 -24 vhcurveto
            -12 130 rlineto
            -85 hlineto
            return
          </CharString>
          <CharString index="15">
            rmoveto
            20 17 -16 -33 -55 -42 -70 -136 -47 hvcurveto
            118 6 80 103 55 hhcurveto
            -107 -459 rmoveto
            108 80 79 77 41 hvcurveto
            return
          </CharString>
          <CharString index="16">
            rmoveto
            33 -23 -26 22 -34 hhcurveto
            -12 -10 -3 -5 -9 hvcurveto
            23 42 16 51 12 63 22 118 17 130 19 132 rrcurveto
            return
          </CharString>
          <CharString index="17">
            -44 -38 -33 -45 -24 11 -22 16 -18 hvcurveto
            30 -32 -26 -37 -29 -32 -40 -33 rlinecurve
            28 -32 rlineto
            88 62 75 62 102 vvcurveto
            19 -4 17 -5 15 vhcurveto
            15 -14 -19 16 -29 hhcurveto
            return
          </CharString>
          <CharString index="18">
            -48 -15 41 431 42 hstemhm
            95 131 30 136 vstemhm
            49 callgsubr
            hintmask 11100000
            -66 callsubr
            hintmask 11110000
            49 -39 20 -26 -31 vvcurveto
            -40 -28 -28 -51 vhcurveto
            -4 hlineto
            -13 54 rlineto
            46 -9 -27 17 -34 hhcurveto
            -34 -19 -20 -32 -5 hvcurveto
            -69 10 54 -37 85 hhcurveto
            141 70 70 81 hvcurveto
            return
          </CharString>
          <CharString index="19">
            -39 -31 -46 -34 -58 hhcurveto
            -55 -36 30 64 -7 hvcurveto
            198 49 94 76 84 vvcurveto
            64 -49 44 -90 return
          </CharString>
          <CharString index="20">
            rmoveto
            30 4 30 7 27 vhcurveto
            5 12 10 1 10 hhcurveto
            41 23 -24 -54 -51 -23 -43 -36 -27 -21 15 64 hvcurveto
            33 -114 rmoveto
            82 95 46 97 63 -39 44 -75 -29 -21 -5 -12 -23 hvcurveto
            31 74 67 55 108 14 -4 32 rcurveline
            -175 -1 -155 -120 -154 vvcurveto
            -84 55 -49 83 vhcurveto
            endchar
          </CharString>
          <CharString index="21">
            -49 50 -35 78 vhcurveto
            -50 90 rmoveto
            32 12 26 37 26 vhcurveto
            49 -37 17 -17 -29 vvcurveto
            -34 -19 -21 -42 -32 -22 20 34 vhcurveto
            endchar
          </CharString>
          <CharString index="22">
            -136 13 rlineto
            -38 3 -10 19 16 vvcurveto
            11 2 8 15 17 vhcurveto
            -8 21 24 -5 27 hhcurveto
            133 59 72 116 28 hvcurveto
            4 17 4 15 4 15 rrcurveto
            80 18 40 23 58 vvcurveto
            13 -4 7 -4 7 vhcurveto
            8 -12 -13 3 -18 hhcurveto
            -47 -34 -27 -89 -22 hvcurveto
            51 -16 -52 41 -77 hhcurveto
            return
          </CharString>
          <CharString index="23">
            -31 21 rlineto
            -40 -31 -22 -23 -19 hhcurveto
            -11 80 callgsubr
            3 14 5 18 hvcurveto
            80 350 rlineto
            return
          </CharString>
          <CharString index="24">
            27 callgsubr
            -10 -8 20 callgsubr
            5 19 hvcurveto
            120 567 -15 12 -213 -63 -5 -38 67 -7 -10 -62 -13 -63 -13 -61 rlinecurve
            -52 -251 rlineto
            28 callgsubr
            return
          </CharString>
          <CharString index="25">
            -30 20 rlineto
            -41 -32 -25 -21 -63 callgsubr
            -64 -71 -40 -67 -69 vhcurveto
            return
          </CharString>
          <CharString index="26">
            vstem
            46 273 rmoveto
            -187 117 -103 197 79 53 15 26 58 vhcurveto
            47 244 65 9 10 53 rlineto
            -307 hlineto
            -10 -53 90 -14 -9 -59 -10 -60 -10 -59 rlinecurve
            -7 -47 rlineto
            -1 -7 -7 0 -8 hhcurveto
            -115 -68 88 141 180 99 172 155 25 24 -4 -8 24 hvcurveto
            7 -141 rlineto
            76 hlineto
            23 155 rlineto
            38 -59 -68 18 -69 hhcurveto
            -230 -165 -175 -228 hvcurveto
            return
          </CharString>
          <CharString index="27">
            133 -19 58 579 58 hstem
            46 158 vstem
            347 -19 rmoveto
            87 65 22 28 49 hvcurveto
            26 154 rlineto
            -77 hlineto
            -50 -135 rlineto
            -7 -22 -21 -4 -22 hhcurveto
            -116 -62 96 131 187 99 165 146 30 27 -7 -14 24 hvcurveto
            2 -126 rlineto
            78 hlineto
            23 153 rlineto
            36 -65 -57 16 -72 hhcurveto
            -235 -158 -180 -222 -190 123 -103 178 hvcurveto
            return
          </CharString>
          <CharString index="28">
            -1 -15 103 252 159 -53 53 hstemhm
            50 143 hintmask 10110000
            223 -15 rmoveto
            104 85 76 80 42 hvcurveto
            16 callsubr
            hintmask 11010000
            31 -52 rlineto
            -28 16 19 -26 34 hhcurveto
            38 31 28 37 1 hvcurveto
            hintmask 10110000
            58 -16 -51 36 -73 hhcurveto
            -166 -127 -153 -171 -118 71 -72 102 hvcurveto
            return
          </CharString>
          <CharString index="29">
            -82 callgsubr
            rlineto
            return
          </CharString>
          <CharString index="30">
            rmoveto
            116 69 107 64 15 16 -4 -7 14 vhcurveto
            -55 -251 rlineto
            -27 -27 -24 -14 -23 hhcurveto
            -30 -19 24 56 hvcurveto
            hintmask 1101111110000000
            221 -171 rmoveto
            116 152 127 197 159 -99 132 -206 -301 -189 -239 -256 -178 118 -134 206 73 67 18 26 60 hvcurveto
            -11 46 rlineto
            -17 -54 -50 -8 -54 hhcurveto
            -172 -104 96 167 226 160 202 243 158 86 -91 -150 -155 -93 -89 -49 -30 -6 17 39 9 hvcurveto
            71 316 -14 11 -64 -30 rlineto
            18 -21 -24 10 -26 hhcurveto
            -132 -170 -175 -167 hvcurveto
            hintmask 1011111110000000
            -85 45 -33 48 50 55 36 46 48 vhcurveto
            hintmask 1101111110000000
            -47 4 33 -35 67 hhcurveto
            endchar
          </CharString>
          <CharString index="31">
            hhcurveto
            -10 80 callgsubr
            2 14 5 18 hvcurveto
            return
          </CharString>
          <CharString index="32">
            rmoveto
            -36 37 -38 37 -35 32 rrcurveto
            30 -33 -18 10 -24 hhcurveto
            -32 -22 -25 -26 -19 9 -26 49 -22 hvcurveto
            52 -23 54 -20 51 -19 rrcurveto
            endchar
          </CharString>
          <CharString index="33">
            -85 402 59 -59 66 20 -20 33 -20 206 48 -20 -20 34 -20 hstemhm
            105 94 hintmask 01010011
            199 526 rmoveto
            hintmask 01011001
            85 52 76 48 12 12 -3 -6 12 vhcurveto
            -36 -166 -1 -4 -1 -3 -1 -4 rlinecurve
            -20 -22 -20 -13 -18 hhcurveto
            hintmask 01010011
            -22 -15 17 41 hvcurveto
            148 -124 rmoveto
            hintmask 00100011
            49 45 45 41 23 hvcurveto
            hintmask 10010011
            -20 13 rlineto
            -25 -20 -16 -15 -12 hhcurveto
            -8 -5 5 8 7 2 9 2 12 hvcurveto
            53 227 rlineto
            hintmask 01010101
            -12 8 -46 -22 rlineto
            hintmask 01011001
            13 -16 -18 7 -20 hhcurveto
            -98 -125 -127 -116 -67 34 -23 36 hvcurveto
            hintmask 00100011
            38 43 27 38 36 hvcurveto
            -2 0 -2 -2 vvcurveto
            hintmask 01010011
            -40 1 21 -19 33 hhcurveto
            endchar
          </CharString>
          <CharString index="34">
            hintmask 10011000
            108 603 -87 callgsubr
            hintmask 01101000
            -72 callsubr
            return
          </CharString>
          <CharString index="35">
            11 54 -78 49 callsubr
            16 83 rlinecurve
            53 283 80 81 callsubr
            -310 hlineto
            return
          </CharString>
          <CharString index="36">
            rmoveto
            15 12 -10 -21 -36 -29 -45 -91 -31 hvcurveto
            77 4 52 66 37 hhcurveto
            -68 -297 rmoveto
            71 53 51 50 27 hvcurveto
            -18 13 rlineto
            hintmask 11101100
            -25 -21 -30 -22 -40 hhcurveto
            -36 -24 19 41 -6 hvcurveto
            133 32 61 49 55 vvcurveto
            42 -32 28 -59 vhcurveto
            hintmask 11110100
            -112 -84 -99 -112 -76 48 -46 69 hvcurveto
            endchar
          </CharString>
          <CharString index="37">
            42 47 40 19 29 60 callgsubr
            -8 -30 -9 -33 -30 vvcurveto
            -40 27 -23 48 85 69 90 callgsubr
            return
          </CharString>
          <CharString index="38">
            -23 callgsubr
            153 hlineto
            -19 -129 -15 -101 callsubr
            rrcurveto
            -15 14 callsubr
            rrcurveto
            return
          </CharString>
          <CharString index="39">
            rmoveto
            25 20 20 36 31 19 -14 -36 -22 -7 -24 -34 -28 vhcurveto
            -51 39 -14 16 24 vvcurveto
            return
          </CharString>
          <CharString index="40">
            rmoveto
            67 31 104 46 45 vhcurveto
            17 17 28 15 25 hhcurveto
            23 16 -5 -9 16 hvcurveto
            -54 -259 -1 -4 -1 -5 -1 -4 rlinecurve
            -32 -32 -29 -20 -28 hhcurveto
            -34 -22 26 64 hvcurveto
            285 -37 rmoveto
            121 567 -16 12 -212 -63 -6 -38 76 -8 rlineto
            hintmask 00101111
            -23 -115 rlineto
            hintmask 00110111
            3 -11 -11 1 -11 hhcurveto
            -150 -186 -196 -176 -106 49 -36 55 57 68 42 62 54 hvcurveto
            -1 -7 0 -8 -6 vvcurveto
            -47 28 -36 48 75 70 62 71 39 vhcurveto
            hintmask 10010111
            -30 20 rlineto
            -41 -31 -26 -21 -16 hhcurveto
            -10 20 callsubr
            hvcurveto
            hintmask 01010111
            11 2 12 5 21 vhcurveto
            endchar
          </CharString>
          <CharString index="41">
            -53 41 -27 28 41 vvcurveto
            33 18 32 45 5 vhcurveto
            16 -45 rlineto
            -43 16 28 -18 26 hhcurveto
            33 19 20 28 4 hvcurveto
            61 -13 -43 39 -92 hhcurveto
            -121 -67 -74 -85 -66 36 -38 56 -46 hvcurveto
            return
          </CharString>
          <CharString index="42">
            20 -34 rlineto
            -35 callsubr
            14 13 7 13 10 hvcurveto
            -26 -39 -20 -49 -11 -58 -8 -1 rcurveline
            -146 hlineto
            return
          </CharString>
          <CharString index="43">
            -21 rmoveto
            484 635 -46 35 -484 -635 rlineto
            return
          </CharString>
          <CharString index="44">
            0 -60 callgsubr
            return
          </CharString>
          <CharString index="45">
            rmoveto
            34 26 -105 182 rlineto
            -63 hlineto
            -165 -177 29 -33 152 111 rlineto
            endchar
          </CharString>
          <CharString index="46">
            44 38 33 45 24 -11 22 -16 18 hvcurveto
            -30 32 26 37 29 32 40 33 rlinecurve
            -28 32 rlineto
            -88 -62 -75 -62 -102 vvcurveto
            -19 4 -17 5 -15 vhcurveto
            -15 14 19 -16 29 hhcurveto
            return
          </CharString>
          <CharString index="47">
            -127 rmoveto
            147 115 75 110 84 -44 46 -107 20 hvcurveto
            hintmask 11101000
            129 29 66 71 76 vvcurveto
            81 -50 69 -136 -115 -86 -56 -100 -15 vhcurveto
            -23 6 19 -17 31 hhcurveto
            35 28 22 46 8 hvcurveto
            11 73 rlineto
            3 12 12 1 11 hhcurveto
            65 36 -33 -72 -101 -79 -45 -83 hvcurveto
            -29 hlineto
            -13 -53 rlineto
            31 hlineto
            hintmask 11110000
            65 49 -31 -81 -97 -77 -46 -71 hvcurveto
            -4 hlineto
            -23 66 rlineto
            46 -15 -20 18 -37 hhcurveto
            -32 -22 -23 -31 -6 hvcurveto
            15 -83 69 -45 104 1 rrcurveto
            endchar
          </CharString>
          <CharString index="48">
            96 0 57 -57 -83 callgsubr
            -58.5 196 402.5 39 callgsubr
            return
          </CharString>
          <CharString index="49">
            220 0 56 -56 -83 callgsubr
            540.5 58 -56 56 hstemhm
            532 159 hintmask 01101000
            12 callsubr
            hintmask 10011000
            32 callgsubr
            166 -346 rmoveto
            54 290 45 callsubr
            85 16 85 16 85 rrcurveto
            return
          </CharString>
          <CharString index="50">
            504 rmoveto
            51 34 39 60 48 35 -28 -54 -49 -12 -42 -64 -48 vhcurveto
            -79 61 -22 26 44 vvcurveto
            hintmask 11101000
            -1 -520 rmoveto
            148 95 85 107 69 -28 44 -81 61 hvcurveto
            hintmask 11010100
            99 47 44 51 72 vvcurveto
            62 -62 64 -117 -124 -96 -86 -104 -64 34 -46 60 -46 vhcurveto
            hintmask 11100100
            -101 -47 -59 -58 -79 vvcurveto
            hintmask 11101000
            -75 70 -57 118 vhcurveto
            -83 146 rmoveto
            56 24 45 64 44 vhcurveto
            80 -60 25 -29 -49 vvcurveto
            -62 -38 -38 -61 -61 -33 33 60 vhcurveto
            endchar
          </CharString>
          <CharString index="51">
            -46 32 -30 57 56 39 27 28 28 vhcurveto
            -16 27 rlineto
            -11 -18 -20 -7 -19 hhcurveto
            -26 -19 16 33 return
          </CharString>
          <CharString index="52">
            -120 -94 -92 -160 -32 hvcurveto
            -77 -10 return
          </CharString>
          <CharString index="53">
            -30 20 rlineto
            -52 callgsubr
            71 -7 -51 -241 rlineto
            return
          </CharString>
          <CharString index="54">
            35 callsubr
            hstemhm
            61 617 hintmask 11010000
            463 603 rmoveto
            69 -11 -165 -256 -74 258 76 81 callsubr
            -309 hlineto
            hintmask 10110000
            -10 -54 64 -7 110 -332 -38 -201 -89 -9 -10 -54 rlineto
            328 hlineto
            10 54 -87 9 12 72 13 72 14 72 rlinecurve
            hintmask 11010000
            207 312 72 12 11 callsubr
            -204 hlineto
            return
          </CharString>
          <CharString index="55">
            501 603 rmoveto
            111 -13 -71 -381 -233 448 rlineto
            -200 hlineto
            -11 -54 75 -7 9 -17 rlineto
            return
          </CharString>
          <CharString index="56">
            hintmask 01110000
            501 603 rmoveto
            58 -11 -278 -271 52 274 74 8 11 callsubr
            -301 hlineto
            -11 -54 74 -8 -13 16 callgsubr
            -16 -82 rlinecurve
            -54 -285 -75 -8 -19 callgsubr
            290 hlineto
            11 54 -63 8 10 62 11 62 12 62 rlinecurve
            56 54 rlineto
            hintmask 10110000
            118 -242 -49 -6 rlineto
            hintmask 01110000
            -10 -54 rlineto
            278 hlineto
            10 54 -63 8 -176 342 197 186 95 13 11 callsubr
            -222 hlineto
            return
          </CharString>
          <CharString index="57">
            rmoveto
            69 -11 16 -25 -30 vvcurveto
            hintmask 11100000
            -80 -85 -71 -93 vvcurveto
            -68 67 -32 99 vhcurveto
            42 hlineto
            11 53 -34 3 rlineto
            -35 3 -20 19 33 vvcurveto
            hintmask 11010000
            60 55 94 73 vvcurveto
            47 -25 36 -54 16 vhcurveto
            hintmask 11001000
            87 24 46 66 81 28 -3 38 30 vvcurveto
            68 28 41 62 5 vhcurveto
            25 3 11 53 rlineto
            -30 hlineto
            -129 -95 -51 -112 hvcurveto
            -50 21 -42 -44 vvcurveto
            hintmask 11000100
            -55 -20 -42 -99 -14 vhcurveto
            endchar
          </CharString>
          <CharString index="58">
            rmoveto
            41 36 -139 188 191 184 -30 37 -258 -190 -12 -65 rlineto
            return
          </CharString>
          <CharString index="59">
            -97 -513 -83 -12 -10 -54 rlineto
            253 hlineto
            10 54 -108 13 80 425 rlineto
            return
          </CharString>
          <CharString index="60">
            1 7 1 8 1 7 return
          </CharString>
          <CharString index="61">
            5 -392 rmoveto
            29 15 24 24 21 vhcurveto
            2 hlineto
            138 -13 rlineto
            70 -7 26 -22 -34 vvcurveto
            -47 -53 -29 -93 -81 -48 29 49 vhcurveto
            return
          </CharString>
          <CharString index="62">
            rmoveto
            -63 hlineto
            -162 -153 19 -29 161 94 132 -94 27 27 rlineto
            endchar
          </CharString>
          <CharString index="63">
            255 -495 rlineto
            81 hlineto
            111 593 82 13 11 callsubr
            -254 hlineto
            return
          </CharString>
          <CharString index="64">
            198 -63 callsubr
            -51.5 -21 316 57.5 239.5 58 hstemhm
            return
          </CharString>
          <CharString index="65">
            rmoveto
            -1 callgsubr
            6 callgsubr
            -18 -91 rlineto
            98 hlineto
            18 91 rlineto
            -205 64 rmoveto
            152 160 -32 -160 rlineto
            endchar
          </CharString>
          <CharString index="66">
            10 54 -78 9 -26 100 -21 89 -11 51 -87 25 rlinecurve
            144 26 53 78 73 vvcurveto
            92 -67 60 -132 vhcurveto
            -313 hlineto
            return
          </CharString>
          <CharString index="67">
            rmoveto
            44 39 37 48 42 -26 27 -40 -42 -39 -36 -51 -43 28 -24 36 hvcurveto
            return
          </CharString>
          <CharString index="68">
            100 -25 callgsubr
            440 74 -10 -20 return
          </CharString>
          <CharString index="69">
            -90 callsubr
            endchar
          </CharString>
          <CharString index="70">
            -127 rmoveto
            148 129 90 139 101 -71 71 -119 -39 -38 -10 -15 -33 hvcurveto
            39 153 rlineto
            295 hlineto
            26 116 rlineto
            -346 hlineto
            -80 -316 30 -14 rlineto
            13 28 23 9 36 hhcurveto
            66 40 -42 -75 -116 -74 -52 -85 hvcurveto
            -22 61 rlineto
            46 -16 -18 18 -36 hhcurveto
            -35 -23 -17 -37 -6 hvcurveto
            -79 15 76 -44 90 hhcurveto
            endchar
          </CharString>
          <CharString index="71">
            22 117 17 129 19 68 callsubr
            -3 rcurveline
            return
          </CharString>
          <CharString index="72">
            -33 21 23 -15 36 hhcurveto
            return
          </CharString>
          <CharString index="73">
            12 62 rlineto
            -119 -20 callgsubr
            return
          </CharString>
          <CharString index="74">
            hmoveto
            423 hlineto
            25 122 rlineto
            -316 hlineto
            82 62 rlineto
            178 132 102 68 111 vvcurveto
            89 -58 62 -120 -111 -93 -42 -127 -32 vhcurveto
            -41 3 21 -21 33 hhcurveto
            39 26 24 72 4 hvcurveto
            4 67 rlineto
            5 19 20 2 20 hhcurveto
            52 33 -30 -59 -80 -55 -79 -138 -125 hvcurveto
            -145 -129 rlineto
            endchar
          </CharString>
          <CharString index="75">
            rmoveto
            35 30 27 36 28 -23 24 -32 -36 -31 -28 -35 1 hvcurveto
            -27 23 -25 33 vhcurveto
            return
          </CharString>
          <CharString index="76">
            rmoveto
            -36 -26 rlineto
            31 -53 23 -60 -74 vvcurveto
            -105 -37 -124 -110 -80 vhcurveto
            24 -33 rlineto
            139 70 70 126 130 vvcurveto
            104 -51 75 -53 50 vhcurveto
            endchar
          </CharString>
          <CharString index="77">
            rmoveto
            108 68 47 70 50 -28 28 -69 13 hvcurveto
            return
          </CharString>
          <CharString index="78">
            385 33 rmoveto
            -143 -112 101 164 197 152 129 160 143 111 -101 -164 -197 -150 -129 -161 hvcurveto
            -3 -52 rmoveto
            192 184 151 231 193 -139 120 -174 -192 -184 -151 -230 -195 139 -119 174 hvcurveto
            return
          </CharString>
          <CharString index="79">
            -61 -28 -53 -41 -52 vvcurveto
            -66 69 -35 118 187 141 83 108 64 -37 47 -114 10 vhcurveto
            return
          </CharString>
          <CharString index="80">
            56 callgsubr
            -8 20 callgsubr
            4 19 hvcurveto
            return
          </CharString>
          <CharString index="81">
            rmoveto
            306 hlineto
            17 81 93 callgsubr
            endchar
          </CharString>
          <CharString index="82">
            11 54 -78 9 13 79 15 80 15 80 rlinecurve
            18 hlineto
            57 19 -27 -69 14 hvcurveto
            25 -116 rlineto
            return
          </CharString>
          <CharString index="83">
            6 34 -71 9 55 263 21 87 -8 7 return
          </CharString>
          <CharString index="84">
            588 2 callsubr
            hintmask 10100000
            43 callgsubr
            -38 17 rlineto
            4 callsubr
            hintmask 01100000
            36 callsubr
          </CharString>
          <CharString index="85">
            rmoveto
            103 50 64 68 26 hvcurveto
            -34 19 rlineto
            -40 -35 -42 -24 -56 hhcurveto
            -55 -48 27 36 -23 hvcurveto
            -35 -16 rlineto
            -79 13 55 -55 81 hhcurveto
            endchar
          </CharString>
          <CharString index="86">
            -11 callgsubr
            146 232 rmoveto
            -24 callsubr
            rlineto
            return
          </CharString>
          <CharString index="87">
            5 34 -29 4 -24 4 -14 13 -16 36 rlinecurve
            -30 73 -26 60 -45 33 -65 7 rlinecurve
            -42 3 210 72 rlineto
            66 19 28 23 39 vvcurveto
            38 -27 29 -40 6 vhcurveto
            -240 -203 88 417 -13 12 -214 -63 -5 -38 68 -7 -10 -62 -14 -62 -13 -62 rlinecurve
            return
          </CharString>
          <CharString index="88">
            rmoveto
            -43 -16 58 62 87 24 56 47 1 hvcurveto
            36 23 -43 -74 -112 -34 -35 -37 hvcurveto
            return
          </CharString>
          <CharString index="89">
            -196 711 -20 hstem
            129 -5 callsubr
            endchar
          </CharString>
          <CharString index="90">
            241 -15 -85 callgsubr
            12 54 -77 callgsubr
            return
          </CharString>
          <CharString index="91">
            rmoveto
            145 hlineto
            6 33 -64 13 88 431 70 14 6 32 rlineto
            -145 hlineto
            endchar
          </CharString>
          <CharString index="92">
            5 8 4 9 1 11 rrcurveto
            41 -11 -44 31 -61 hhcurveto
            return
          </CharString>
          <CharString index="93">
            -12 -71 -11 -57 -18 -47 -10 -25 -11 -19 -11 -15 -21 31 rcurveline
            33 -23 -26 22 -34 hhcurveto
            -36 -20 -25 -34 -5 hvcurveto
            -57 24 51 -20 59 hhcurveto
            45 57 23 44 41 hvcurveto
            48 50 29 70 18 97 26 141 20 159 24 158 return
          </CharString>
          <CharString index="94">
            35 -44 -34 19 -37 hhcurveto
            -71 -53 -44 -123 -2 hvcurveto
            72 -8 rlineto
            69 5 19 21 26 hhcurveto
            18 13 -9 -34 43 hvcurveto
            return
          </CharString>
          <CharString index="95">
            0 callgsubr
            20 -34 rcurveline
            -35 callsubr
            return
          </CharString>
          <CharString index="96">
            rmoveto
            -224 hlineto
            -11 -54 102 -11 -15 -84 -18 -85 -17 -83 rlinecurve
            -47 -240 -17 -85 -18 -84 -18 -83 rlinecurve
            -106 -11 -19 callgsubr
            224 hlineto
            18 105 22 107 21 105 48 240 rcurveline
            22 107 21 107 24 103 rrcurveto
            endchar
          </CharString>
          <CharString index="97">
            -16 21 23 -16 34 hhcurveto
            59 46 38 98 28 hvcurveto
            -39 17 rlineto
            -52 -23 -21 -18 -27 hhcurveto
            -27 -17 19 16 -19 hvcurveto
            return
          </CharString>
          <CharString index="98">
            -106 callsubr
            48 50 29 70 18 97 rrcurveto
            return
          </CharString>
          <CharString index="99">
            rmoveto
            45 41 37 49 41 -31 29 -42 -45 -41 -35 -50 -44 35 -27 38 hvcurveto
            return
          </CharString>
          <CharString index="100">
            -30 -9 callgsubr
            return
          </CharString>
          <CharString index="101">
            145 rmoveto
            16 89 rlineto
            -100 hlineto
            82 403 rlineto
            -105 hlineto
            -366 -401 -19 -91 rlineto
            265 hlineto
            -33 -165 rlineto
            125 hlineto
            33 165 rlineto
            -307 89 rmoveto
            257 280 -57 -280 rlineto
            endchar
          </CharString>
          <CharString index="102">
            153 vstem
            200 435 rmoveto
            -61 callsubr
            return
          </CharString>
          <CharString index="103">
            49 129 rlineto
            215 hlineto
            -410 -554 -9 -46 rlineto
            499 hlineto
            return
          </CharString>
          <CharString index="104">
            191 -17 54 235.5 57.5 288 58 return
          </CharString>
          <CharString index="105">
            122 -25 callgsubr
            515 -20 return
          </CharString>
          <CharString index="106">
            -81 callgsubr
            hintmask 01111000
            -31 callgsubr
            hintmask 10111000
            -311 -591 -86 -12 rlineto
            return
          </CharString>
          <CharString index="107">
            rmoveto
            -49 -36 rlineto
            57 -97 34 -99 -123 vvcurveto
            -182 -71 -185 -175 -133 vhcurveto
            33 -47 rlineto
            217 123 110 197 208 vvcurveto
            160 -69 121 -87 93 vhcurveto
            endchar
          </CharString>
          <CharString index="108">
            rmoveto
            49 36 rlineto
            -57 97 -34 99 123 vvcurveto
            182 71 185 175 133 vhcurveto
            -33 47 rlineto
            -217 -123 -110 -197 -208 vvcurveto
            -160 69 -121 87 -93 vhcurveto
            endchar
          </CharString>
          <CharString index="109">
            rmoveto
            38 -17 rlineto
            43 18 23 24 27 hhcurveto
            29 19 -20 -17 19 hvcurveto
            return
          </CharString>
          <CharString index="110">
            722 8 callgsubr
            return
          </CharString>
          <CharString index="111">
            -43 -19 -22 -25 -26 hhcurveto
            -26 -19 19 16 -19 hvcurveto
            return
          </CharString>
          <CharString index="112">
            -43 30 -23 47 86 63 65 68 40 vhcurveto
            return
          </CharString>
          <CharString index="113">
            200 -18 57 579 57 return
          </CharString>
          <CharString index="114">
            -2 -116 rlineto
            79 hlineto
            return
          </CharString>
          <CharString index="115">
            132 29 79 101 119 vvcurveto
            16 -3 13 -6 14 vhcurveto
            20 -20 -23 9 -28 hhcurveto
            -55 -34 -44 -43 -26 13 -33 31 -18 hvcurveto
            30 -20 -30 -47 -41 -30 -58 -19 rlinecurve
            endchar
          </CharString>
          <CharString index="116">
            -83 callgsubr
            412.5 186 -56 56 hstemhm
            return
          </CharString>
          <CharString index="117">
            38 callgsubr
            104 18 54 31 30 24 -40 rcurveline
            -33 22 23 -20 31 hhcurveto
            30 33 25 35 4 hvcurveto
            45 -11 -58 31 -61 hhcurveto
            return
          </CharString>
          <CharString index="118">
            11 54 rlineto
            return
          </CharString>
          <CharString index="119">
            108 603 rmoveto
            78 -8 -14 16 callgsubr
            -15 -82 rlinecurve
            -54 -284 -79 -9 rlineto
            return
          </CharString>
          <CharString index="120">
            141 -141 143 return
          </CharString>
          <CharString index="121">
            692 rmoveto
            0 callgsubr
            return
          </CharString>
          <CharString index="122">
            25 172 rlineto
            -486 hlineto
            return
          </CharString>
          <CharString index="123">
            -27 20 rlineto
            -46 -38 -48 -27 -42 hhcurveto
            -64 -42 36 80 90 39 100 81 52 hvcurveto
            return
          </CharString>
          <CharString index="124">
            563 rmoveto
            108 53 88 68 17 hvcurveto
            9 callgsubr
            -43 -13 rlineto
            -88 46 -67 100 vhcurveto
            endchar
          </CharString>
          <CharString index="125">
            54.5 765 54.5 hstemhm
            return
          </CharString>
          <CharString index="126">
            391 736 rmoveto
            return
          </CharString>
          <CharString index="127">
            -7 7 13 return
          </CharString>
          <CharString index="128">
            -49 -129 rlineto
            -226 hlineto
            410 554 9 46 rlineto
            -486 hlineto
            return
          </CharString>
          <CharString index="129">
            -78 13 40 -26 81 hhcurveto
            36 18 3 11 43 hvcurveto
            return
          </CharString>
          <CharString index="130">
            75 0 57 -57 186 285 186 -57 57 return
          </CharString>
          <CharString index="131">
            29 27 vvcurveto
            56 -33 28 -43 return
          </CharString>
          <CharString index="132">
            -64 68 callgsubr
            return
          </CharString>
          <CharString index="133">
            49 83 43 72 43 vvcurveto
            28 -15 21 -40 -26 -20 -7 -15 -25 vhcurveto
            return
          </CharString>
          <CharString index="134">
            64 -15 54 405 55 return
          </CharString>
          <CharString index="135">
            rmoveto
            -24 callsubr
            -50 callgsubr
            endchar
          </CharString>
          <CharString index="136">
            89 callgsubr
            734 -20 hstemhm
            59 146 return
          </CharString>
          <CharString index="137">
            743 rmoveto
            -18 -13 -2 -9 -20 hvcurveto
            -46 -226 47 -4 45 80 rlineto
            27 47 25 43 35 vvcurveto
            18 -13 18 -34 vhcurveto
            return
          </CharString>
          <CharString index="138">
            -39 -27 -21 -55 -9 hvcurveto
            -7 -46 -1 -74 2 -54 2 -80 rcurveline
            return
          </CharString>
          <CharString index="139">
            12 rmoveto
            14 -12 rlineto
            132 hlineto
            339 554 15 76 rlineto
            -425 hlineto
            -24 -114 rlineto
            334 hlineto
            endchar
          </CharString>
          <CharString index="140">
            rmoveto
            86 63 66 67 39 hvcurveto
            return
          </CharString>
          <CharString index="141">
            26 118 rlineto
            32 34 31 20 31 hhcurveto
            34 19 -27 -54 -67 -27 -87 -32 -43 hvcurveto
            -44 -32 -28 -17 -30 hhcurveto
            return
          </CharString>
          <CharString index="142">
            106 0 -83 callgsubr
            540 -83 callgsubr
            -47 callgsubr
            return
          </CharString>
          <CharString index="143">
            18 -20 -20 14 -40 hhcurveto
            -52 -52 -45 -94 -25 hvcurveto
            endchar
          </CharString>
          <CharString index="144">
            91 -70 -21 437.5 -6 callgsubr
            return
          </CharString>
          <CharString index="145">
            117.5 180.5 143 vstem
            return
          </CharString>
          <CharString index="146">
            402 59 27 -20 33 -20 return
          </CharString>
          <CharString index="147">
            51 -30 -21 28 -21 251 22.5 227.5 -20 246 -20 hstemhm
            return
          </CharString>
          <CharString index="148">
            hlineto
            -18 -129 -17 -101 callsubr
            return
          </CharString>
          <CharString index="149">
            87 callsubr
            12 72 11 57 19 86 rlinecurve
            6 28 18 -10 8 -17 15 -45 rlinecurve
            return
          </CharString>
          <CharString index="150">
            52 130 38 87 48 vvcurveto
            40 -20 25 -37 vhcurveto
            return
          </CharString>
          <CharString index="151">
            149 129 142 return
          </CharString>
          <CharString index="152">
            rlineto
            2 hlineto
            128 63 -77 -134 -184 -98 -150 -160 hvcurveto
            -36 hlineto
            15 return
          </CharString>
          <CharString index="153">
            66 callsubr
            88 callsubr
            return
          </CharString>
          <CharString index="154">
            -89 -12 -10 -47 rlineto
            322 hlineto
            10 47 -90 13 9 49 9 50 10 48 rlinecurve
            return
          </CharString>
          <CharString index="155">
            -21 602.5 57.5 return
          </CharString>
          <CharString index="156">
            9 14 82 15 83 return
          </CharString>
          <CharString index="157">
            rmoveto
            29 27 24 31 28 -20 19 -28 -29 -27 -23 -33 -28 23 -18 25 hvcurveto
            return
          </CharString>
          <CharString index="158">
            -163 -95 -98 -154 -31 hvcurveto
            return
          </CharString>
          <CharString index="159">
            38 148 88 callgsubr
            return
          </CharString>
          <CharString index="160">
            14 callgsubr
            91 return
          </CharString>
          <CharString index="161">
            -14 -71 -190 -76 hhcurveto
            -6 -52 rmoveto
            157 148 176 269 return
          </CharString>
          <CharString index="162">
            64 callgsubr
            126 -44 44 return
          </CharString>
          <CharString index="163">
            hstemhm
            -29 113 -45 112 -72 131 return
          </CharString>
          <CharString index="164">
            rmoveto
            39 -17 rlineto
            50 22 21 20 30 hhcurveto
            28 18 -21 -16 19 hvcurveto
            return
          </CharString>
          <CharString index="165">
            -32 -25 -49 -35 hvcurveto
            15 -17 rlineto
            15 14 10 7 8 hhcurveto
            8 6 return
          </CharString>
          <CharString index="166">
            -197 -250 1000 hstem
            103 98 vstem
            103 -250 rmoveto
            98 return
          </CharString>
          <CharString index="167">
            30 -88 rlineto
            -78 26 43 -20 64 hhcurveto
            35 31 5 10 29 hvcurveto
            return
          </CharString>
          <CharString index="168">
            81 callgsubr
            -5 80 callsubr
            return
          </CharString>
          <CharString index="169">
            33 444 46 -32 32 hstemhm
            return
          </CharString>
          <CharString index="170">
            40 -19 19 184 35 hstemhm
            return
          </CharString>
          <CharString index="171">
            133 99 133 return
          </CharString>
          <CharString index="172">
            79 98 129 117 130 173 69 hintmask 1011111110000000
            return
          </CharString>
          <CharString index="173">
            37 callsubr
            -57 return
          </CharString>
          <CharString index="174">
            -28 rlineto
            168 hlineto
            4 28 -34 3 34 233 34 3 return
          </CharString>
          <CharString index="175">
            131 116 return
          </CharString>
          <CharString index="176">
            22 117 18 129 18 68 callsubr
            -3 rcurveline
            return
          </CharString>
          <CharString index="177">
            42 -192 rlineto
            34 hlineto
            115 195 -24 -164 return
          </CharString>
          <CharString index="178">
            hstemhm
            46 145 135 140 return
          </CharString>
          <CharString index="179">
            20 47 7 hvcurveto
            10 65 rlineto
            3 return
          </CharString>
          <CharString index="180">
            -44 29 -24 48 vhcurveto
            return
          </CharString>
          <CharString index="181">
            110 -107 128 -77 100 -45 130 hintmask 11001000
            return
          </CharString>
          <CharString index="182">
            129 -128 129 -50 -20 235 -20 hstemhm
            return
          </CharString>
          <CharString index="183">
            86 293 rmoveto
            40 -30 33 -44 -47 -43 -38 -50 return
          </CharString>
          <CharString index="184">
            203 411 rmoveto
            9 47 8 46 11 47 rrcurveto
            return
          </CharString>
          <CharString index="185">
            33 26 47 29 vvcurveto
            44 -17 13 -35 vhcurveto
            endchar
          </CharString>
          <CharString index="186">
            33 -17 -40 24 -53 hhcurveto
            return
          </CharString>
          <CharString index="187">
            -27 -8 -31 hvcurveto
            return
          </CharString>
          <CharString index="188">
            9 11 callsubr
            return
          </CharString>
          <CharString index="189">
            354 717 rmoveto
            -36 -35 -29 -45 -2 hvcurveto
            return
          </CharString>
          <CharString index="190">
            -127 52 285 64 128 116 hstem
            return
          </CharString>
          <CharString index="191">
            38 38 -31 29 -38 -39 -30 -29 -38 -38 30 return
          </CharString>
          <CharString index="192">
            14 1 11 hhcurveto
            58 36 -31 return
          </CharString>
          <CharString index="193">
            126 -44 44 hstemhm
            -156 return
          </CharString>
          <CharString index="194">
            14 -12 130 8 return
          </CharString>
          <CharString index="195">
            53.5 return
          </CharString>
          <CharString index="196">
            96 134 96 return
          </CharString>
          <CharString index="197">
            212 0 57 -57 58 541 58 hstemhm
            return
          </CharString>
          <CharString index="198">
            -146 hlineto
            24 callgsubr
            return
          </CharString>
          <CharString index="199">
            -127 51 255 53 251 51 hstemhm
            return
          </CharString>
          <CharString index="200">
            hstemhm
            97 160 return
          </CharString>
          <CharString index="201">
            6 29 -38 6 35 157 rlineto
            return
          </CharString>
          <CharString index="202">
            102 173 156 -112 46 return
          </CharString>
          <CharString index="203">
            -53 -228 -48 -7 rlineto
            endchar
          </CharString>
          <CharString index="204">
            vstem
            103 540 rmoveto
            return
          </CharString>
          <CharString index="205">
            -10 155 -64 64 return
          </CharString>
          <CharString index="206">
            251 hintmask 10110000
            return
          </CharString>
          <CharString index="207">
            hlineto
            -11 -57 rlineto
            return
          </CharString>
          <CharString index="208">
            hlineto
            11 57 rlineto
            return
          </CharString>
          <CharString index="209">
            hlineto
            hintmask 1001100011000000
            return
          </CharString>
          <CharString index="210">
            83 -14 83 hstemhm
            return
          </CharString>
          <CharString index="211">
            rmoveto
            459 90 -459 hlineto
            endchar
          </CharString>
          <CharString index="212">
            -232 48 return
          </CharString>
          <CharString index="213">
            0 -20 hstemhm
            return
          </CharString>
        <CharString name=".notdef">
          171 0 64 529 64 hstem
          80 74 332 74 vstem
          80 hmoveto
          480 657 -480 hlineto
          127 -593 rmoveto
          113 190 113 -190 rlineto
          -279 469 rmoveto
          122 -204 -122 -205 rlineto
          211 205 rmoveto
          121 204 rlineto
          -409 vlineto
          -279 469 rmoveto
          226 hlineto
          -113 -190 rlineto
          endchar
        </CharString>
        <CharString name="A">
          -69 callgsubr
          hstemhm
          -29 682 hintmask 10111000
          -29 hmoveto
          -1 callsubr
          240 202 rmoveto
          137 268 39 -268 rlineto
          endchar
        </CharString>
        <CharString name="AE">
          429 0 56 -56 58 -58 172 40 59 37 58 119 172 -69 69 -59.5 59.5 -56 56 hstemhm
          -32 951 hintmask 1001100011000000
          453 347 rmoveto
          -14 -76 rlineto
          -167 hlineto
          hintmask 1001101001000000
          215 317 rlineto
          8 102 callsubr
          -13 -80 -14 -81 -15 -80 rrcurveto
          -485 -347 rmoveto
          230 hlineto
          10 54 -76 11 100 147 rlineto
          195 hlineto
          hintmask 0101100011000000
          -28 -150 -79 -8 rlineto
          hintmask 1001100011000000
          -19 callgsubr
          521 hlineto
          hintmask 0011100011000000
          39 172 rlineto
          -78 102 callsubr
          -42 -99 callgsubr
          167 hlineto
          hintmask 1001110001000000
          -2 -116 rlineto
          78 102 callsubr
          26 172 rlineto
          -581 hlineto
          hintmask 1001100101000000
          -11 -54 101 -11 -365 -525 -84 -13 rlineto
          endchar
        </CharString>
        <CharString name="Aacute">
          -46 callgsubr
          395 677 -102 callgsubr
        </CharString>
        <CharString name="Abreve">
          -69 callgsubr
          70 87 hstemhm
          -29 682 hintmask 10111100
          -29 hmoveto
          -81 callgsubr
          hintmask 01111100
          -31 callgsubr
          hintmask 10111100
          -58 callgsubr
          36 451 -22 callsubr
        </CharString>
        <CharString name="Acircumflex">
          -69 callgsubr
          hstemhm
          -29 682 hintmask 10111000
          -29 hmoveto
          -1 callsubr
          240 202 rmoveto
          137 268 39 -268 rlineto
          88 617 -45 callsubr
        </CharString>
        <CharString name="Adieresis">
          -69 callgsubr
          79 131 hstemhm
          256 64 callsubr
          hintmask 10111110
          -29 hmoveto
          -81 callgsubr
          hintmask 01111110
          -31 callgsubr
          hintmask 10111110
          -58 callgsubr
          -81 460 rmoveto
          -84 callgsubr
          232 hmoveto
          -84 callgsubr
          endchar
        </CharString>
        <CharString name="Agrave">
          -46 callgsubr
          502 680 -75 callsubr
        </CharString>
        <CharString name="Amacron">
          -69 callgsubr
          95 81 hstemhm
          -29 682 hintmask 10111100
          -29 hmoveto
          -81 callgsubr
          hintmask 01111100
          -31 callgsubr
          hintmask 10111100
          -311 -591 -86 -12 rlineto
          295 678 5 callgsubr
          -71 -557 rmoveto
          137 268 39 -268 rlineto
          endchar
        </CharString>
        <CharString name="Aogonek">
          219 -234 64 170 -60 callgsubr
          139.5 58 401 -20 hstemhm
          397 94 hintmask 11011100
          -29 hmoveto
          226 hlineto
          11 54 -82 13 67 131 rlineto
          213 hlineto
          20 -136 -82 -8 -19 callgsubr
          174 hlineto
          -62 -55 -48 -49 -54 vvcurveto
          -56 callsubr
          38 21 36 37 47 hvcurveto
          94 hlineto
          hintmask 10111100
          -31 callgsubr
          hintmask 11011100
          -58 callgsubr
          endchar
        </CharString>
        <CharString name="Aring">
          -69 callgsubr
          61 45 108 45 hstemhm
          335 53 103 52 hintmask 10111111
          -29 hmoveto
          -81 callgsubr
          hintmask 01111111
          -31 callgsubr
          hintmask 10111111
          -58 callgsubr
          37 487 10 callgsubr
        </CharString>
        <CharString name="Atilde">
          -69 callgsubr
          68 103 callsubr
          -29 682 hintmask 10110110
          -29 hmoveto
          -81 callgsubr
          hintmask 01110110
          -31 callgsubr
          hintmask 10110110
          -58 callgsubr
          -148 465 57 callsubr
          hintmask 10111010
          -10 callsubr
          hintmask 10110110
          36 callgsubr
        </CharString>
        <CharString name="B">
          166 0 56 -56 58 260 54 227 58 -56 56 hstemhm
          452 150 -137 148 hintmask 01110100
          -78 callsubr
          hintmask 10101100
          -19 callgsubr
          312 hlineto
          220 72 93 89 79 -48 66 -108 21 hvcurveto
          hintmask 10101010
          116 20 51 65 74 vvcurveto
          77 -54 73 -165 vhcurveto
          -275 hlineto
          166 -346 rmoveto
          1 7 rlineto
          50 hlineto
          hintmask 10101100
          72 44 -41 -75 -88 -58 -58 -105 hvcurveto
          -51 hlineto
          hintmask 10101010
          15 85 16 85 16 85 rrcurveto
          76 290 rmoveto
          71 33 -38 -60 -86 -49 -45 -91 hvcurveto
          -29 hlineto
          43 229 rlineto
          endchar
        </CharString>
        <CharString name="C">
          -80 callsubr
          endchar
        </CharString>
        <CharString name="Cacute">
          -80 callsubr
          58 757 -102 callgsubr
        </CharString>
        <CharString name="Ccaron">
          -80 callsubr
          -17 912 -76 callgsubr
        </CharString>
        <CharString name="Ccedilla">
          133 105 callsubr
          165 58 -57 57 579 58 hstemhm
          46 158 151 78 hintmask 11011100
          287 -90 rmoveto
          -90 callgsubr
          21 43 78 3 60 21 46 26 rlinecurve
          26 154 rlineto
          -77 hlineto
          -50 -135 rlineto
          -7 -22 -21 -4 -22 hhcurveto
          -116 -62 96 131 187 99 165 146 30 27 -7 -14 24 hvcurveto
          2 -126 rlineto
          78 hlineto
          23 153 rlineto
          36 -65 -57 16 -72 hhcurveto
          -235 -158 -180 -222 hvcurveto
          hintmask 10111100
          -181 112 -102 164 -9 vhcurveto
          endchar
        </CharString>
        <CharString name="D">
          -58 callsubr
          endchar
        </CharString>
        <CharString name="Dcaron">
          -58 callsubr
          -16 575 -76 callgsubr
        </CharString>
        <CharString name="Dcroat">
          -64 callgsubr
        </CharString>
        <CharString name="E">
          -105 callgsubr
          endchar
        </CharString>
        <CharString name="Eacute">
          -105 callgsubr
          221 74 -102 callgsubr
        </CharString>
        <CharString name="Ecaron">
          -105 callgsubr
          157 229 -76 callgsubr
        </CharString>
        <CharString name="Ecircumflex">
          -105 callgsubr
          323 216 -45 callsubr
        </CharString>
        <CharString name="Edieresis">
          118 0 56 -56 58 -58 172 136 58 119 172 -58 58 -56 56 59 131 hstemhm
          227 64 callsubr
          hintmask 0101010011000000
          -78 callsubr
          hintmask 1001001011000000
          -19 callgsubr
          521 hlineto
          hintmask 0011001011000000
          39 172 rlineto
          -79 hlineto
          hintmask 1001001011000000
          -95 callgsubr
          hintmask 1001100011000000
          7 callsubr
          hintmask 1001001111000000
          15 callsubr
          169 59 rmoveto
          -84 callgsubr
          232 hmoveto
          -84 callgsubr
          endchar
        </CharString>
        <CharString name="Edotaccent">
          118 0 56 -56 58 -58 172 136 58 119 172 -58 58 -56 56 57 148 hstemhm
          326 141 hintmask 0101010010000000
          -78 callsubr
          hintmask 1001001010000000
          -19 callgsubr
          521 hlineto
          hintmask 0011001010000000
          39 172 rlineto
          -79 hlineto
          hintmask 1001001010000000
          -95 callgsubr
          hintmask 1001100010000000
          7 callsubr
          hintmask 1001001110000000
          15 callsubr
          270 57 -44 callgsubr
        </CharString>
        <CharString name="Egrave">
          -105 callgsubr
          345 77 -75 callsubr
        </CharString>
        <CharString name="Emacron">
          118 0 56 -56 58 -58 172 136 58 119 172 -58 58 -56 56 75 81 hstemhm
          -2 607 hintmask 0101010110000000
          -78 callsubr
          hintmask 1001001110000000
          -19 callgsubr
          521 hlineto
          hintmask 0011001110000000
          39 172 rlineto
          -79 hlineto
          hintmask 1001001110000000
          -95 callgsubr
          hintmask 1001100110000000
          7 callsubr
          hintmask 1001001110000000
          15 callsubr
          131 75 5 callgsubr
          endchar
        </CharString>
        <CharString name="Eogonek">
          118 -234 64 170 56 -56 58 -58 172 136 58 119 172 -58 58 -56 56 hstemhm
          280 94 hintmask 0010101010000000
          -78 callsubr
          hintmask 1100100110000000
          -19 callgsubr
          392 hlineto
          -62 -55 -48 -49 -54 vvcurveto
          -56 callsubr
          38 21 36 37 47 hvcurveto
          87 hlineto
          hintmask 0001100110000000
          39 172 rlineto
          -79 hlineto
          hintmask 0100100110000000
          -95 callgsubr
          hintmask 0100110010000000
          7 callsubr
          hintmask 0100100110000000
          15 callsubr
          endchar
        </CharString>
        <CharString name="Eth">
          -64 callgsubr
        </CharString>
        <CharString name="Euro">
          77 -18 50 196 57 81 57 170 52 hstem
          85 133 240.5 116.5 vstem
          302 -18 rmoveto
          106 86 51 104 5 hvcurveto
          20 -10 -19 12 -23 hhcurveto
          -32 -28 -17 -51 -12 hvcurveto
          -17 -67 rlineto
          -1 -8 -8 -1 -8 hhcurveto
          -72 -44 62 118 hvcurveto
          5 0 6 5 vvcurveto
          185 101 callsubr
          -192 hlineto
          3 28 4 27 6 26 rrcurveto
          197 101 callsubr
          -192 hlineto
          101 36 62 69 77 hhcurveto
          11 10 0 -2 10 hvcurveto
          3 -65 rlineto
          -65 4 19 -15 36 hhcurveto
          21 25 13 30 10 hvcurveto
          92 -2 -58 64 -102 hhcurveto
          -138 -107 -86 -136 -51 hvcurveto
          -62 100 callsubr
          56 hlineto
          -6 -26 -4 -27 -3 -28 rrcurveto
          -61 100 callsubr
          70 hlineto
          -156 82 -90 135 vhcurveto
          endchar
        </CharString>
        <CharString name="F">
          88 0 58 -58 59 249 58 119 172 -58 58 -56 56 hstemhm
          -2 617 hintmask 10101010
          -78 callsubr
          hintmask 01100110
          -19 callgsubr
          322 hlineto
          11 54 -91 10 14 81 15 81 15 82 rlinecurve
          112 hlineto
          -3 -86 rlineto
          55 hlineto
          42 225 rlineto
          -55 hlineto
          -28 -81 rlineto
          -112 hlineto
          44 235 rlineto
          172 hlineto
          hintmask 01110010
          7 callsubr
          hintmask 01100110
          27 172 rlineto
          -496 hlineto
          endchar
        </CharString>
        <CharString name="G">
          -3 callsubr
          hstem
          46 158 -81 callsubr
          endchar
        </CharString>
        <CharString name="Gbreve">
          -3 callsubr
          38 87 hstem
          46 158 -81 callsubr
          426 441 -22 callsubr
        </CharString>
        <CharString name="Gdotaccent">
          -3 callsubr
          42 148 hstem
          46 158 189 141 -81 callsubr
          410 445 -44 callgsubr
        </CharString>
        <CharString name="H">
          284 -63 callsubr
          249.5 59 231.5 39 callgsubr
          -2 807 hintmask 01101100
          485 603 rmoveto
          77 -8 -12 -76 -14 -76 -14 -76 rlinecurve
          -226 hlineto
          hintmask 01110100
          42 227 80 9 rlineto
          hintmask 10101100
          11 callsubr
          -310 hlineto
          -11 -54 -96 callsubr
          rlineto
          hintmask 01101100
          -19 callgsubr
          310 hlineto
          11 54 -79 9 14 81 15 82 15 82 rlinecurve
          227 hlineto
          hintmask 10101100
          -47 -246 -78 -8 rlineto
          hintmask 01110100
          -19 callgsubr
          309 hlineto
          11 54 -79 49 callsubr
          16 83 rlinecurve
          54 283 79 9 rlineto
          hintmask 01101100
          11 callsubr
          -309 hlineto
          endchar
        </CharString>
        <CharString name="I">
          -51 callgsubr
          hstemhm
          -2 431 -73 callsubr
          endchar
        </CharString>
        <CharString name="Iacute">
          -51 callgsubr
          hstemhm
          -2 468 -73 callsubr
          100 74 -102 callgsubr
        </CharString>
        <CharString name="Icircumflex">
          -51 callgsubr
          hstemhm
          -2 450 -73 callsubr
          215 216 -45 callsubr
        </CharString>
        <CharString name="Idieresis">
          -51 callgsubr
          59 131 hstemhm
          108 64 callsubr
          hintmask 10010110
          108 603 -87 callgsubr
          hintmask 01101110
          -72 callsubr
          50 59 rmoveto
          -84 callgsubr
          232 hmoveto
          -84 callgsubr
          endchar
        </CharString>
        <CharString name="Idotaccent">
          -51 callgsubr
          50 148 hstemhm
          223 141 hintmask 10010100
          108 603 -87 callgsubr
          hintmask 01101100
          -72 callsubr
          167 50 -44 callgsubr
        </CharString>
        <CharString name="Igrave">
          -51 callgsubr
          hstemhm
          -2 431 -73 callsubr
          230 77 -75 callsubr
        </CharString>
        <CharString name="Imacron">
          -51 callgsubr
          75 81 hstemhm
          -2 464 hintmask 10011100
          108 603 -87 callgsubr
          hintmask 01101100
          -72 callsubr
          6 75 5 callgsubr
          endchar
        </CharString>
        <CharString name="Iogonek">
          -93 -234 64 170 -60 callgsubr
          540 39 callgsubr
          37 94 hintmask 11001100
          -82 callgsubr
          -11 -54 rlineto
          149 hlineto
          -62 -55 -48 -49 -54 vvcurveto
          -56 callsubr
          38 21 36 37 47 hvcurveto
          118 hlineto
          hintmask 00110100
          -72 callsubr
          endchar
        </CharString>
        <CharString name="J">
          -61 -54 130 522 59 -58 58 hstemhm
          -46 522 hintmask 11010000
          148 603 rmoveto
          88 -10 -17 -99 -14 -78 -10 -67 rlinecurve
          -13 -78 -7 -57 -11 -68 -8 -52 -14 -43 -16 -31 rrcurveto
          42 -45 -22 14 -29 hhcurveto
          -41 -29 -27 -39 -6 hvcurveto
          -44 12 41 -20 52 hhcurveto
          79 73 49 85 51 hvcurveto
          35 54 22 81 26 141 rrcurveto
          hintmask 10110000
          44 239 77 8 rlineto
          hintmask 11010000
          10 54 rlineto
          -318 hlineto
          endchar
        </CharString>
        <CharString name="K">
          90 callsubr
          -4 738 -51 callsubr
          endchar
        </CharString>
        <CharString name="L">
          -59 callsubr
          -2 549 hintmask 01001100
          108 603 -61 callgsubr
          endchar
        </CharString>
        <CharString name="Lacute">
          -59 callsubr
          -2 549 hintmask 01001100
          108 603 -61 callgsubr
          151 74 -102 callgsubr
        </CharString>
        <CharString name="Lcaron">
          -59 callsubr
          -2 635 hintmask 10010100
          586 719 rmoveto
          -18 -13 -3 -9 -20 hvcurveto
          -46 -225 47 -4 45 79 rlineto
          27 47 25 44 34 vvcurveto
          18 -13 19 -34 vhcurveto
          hintmask 01001100
          -478 -116 -61 callgsubr
          endchar
        </CharString>
        <CharString name="Ldot">
          96 0 57 -57 -83 callgsubr
          -58.5 196 96 174 132.5 39 callgsubr
          405 179 hintmask 01000110
          12 callsubr
          hintmask 10001010
          -19 callgsubr
          505 hlineto
          hintmask 00101010
          53 callgsubr
          hintmask 10011010
          -52 -139 rlineto
          -180 hlineto
          14 84 16 85 16 85 53 283 rcurveline
          88 81 callsubr
          -318 hlineto
          368 -365 -39 callgsubr
          endchar
        </CharString>
        <CharString name="Lslash">
          -59 callsubr
          -2 549 hintmask 01001100
          108 603 rmoveto
          78 -8 -14 16 callgsubr
          -15 -82 rlinecurve
          -4 -19 -99 -47 -15 -81 99 47 -35 -184 -79 -9 rlineto
          hintmask 10010100
          -19 callgsubr
          505 hlineto
          hintmask 00110100
          53 callgsubr
          hintmask 10010100
          -52 -139 rlineto
          -180 hlineto
          14 84 16 85 16 85 1 7 rcurveline
          152 73 15 81 -152 -74 37 196 88 81 callsubr
          -318 hlineto
          endchar
        </CharString>
        <CharString name="M">
          438 0 58 540.5 39 callgsubr
          -16 955 hintmask 11010000
          -16 hmoveto
          241 hlineto
          11 54 -89 13 98 428 104 -495 rlineto
          50 hlineto
          285 495 -65 -433 -77 -8 -10 -54 rlineto
          306 hlineto
          10 54 -76 8 10 83 12 84 12 82 rlinecurve
          43 283 81 9 9 54 rlineto
          -223 hlineto
          -261 -452 -90 452 rlineto
          -216 hlineto
          hintmask 10110000
          -10 -54 76 -8 -122 -527 -98 -14 rlineto
          endchar
        </CharString>
        <CharString name="N">
          -80 callgsubr
          endchar
        </CharString>
        <CharString name="Nacute">
          -80 callgsubr
          -139 71 -102 callgsubr
        </CharString>
        <CharString name="Ncaron">
          -80 callgsubr
          -196 226 -76 callgsubr
        </CharString>
        <CharString name="Ntilde">
          58 callgsubr
          48 103 callsubr
          -9 775 hintmask 01101100
          -52 callsubr
          hintmask 10101100
          -48 callsubr
          hintmask 01101100
          -44 callsubr
          -239 64 57 callsubr
          hintmask 01110100
          -10 callsubr
          hintmask 01101100
          36 callgsubr
        </CharString>
        <CharString name="O">
          6 callsubr
          hstem
          85 callgsubr
          vstem
          -100 callgsubr
          endchar
        </CharString>
        <CharString name="OE">
          417 -19 58 -39 56 -56 172 136 58 119 172 -56 56 -39 58 hstemhm
          46 156 hintmask 10010011
          202 244 rmoveto
          213 110 161 144 12 11 0 -1 9 vhcurveto
          -15 -90 -15 -90 -17 -90 -58 -306 rcurveline
          -1 -11 -10 -1 -8 hhcurveto
          -81 -71 70 135 hvcurveto
          hintmask 01010101
          251 -244 rmoveto
          365 hlineto
          hintmask 00110101
          39 172 rlineto
          -78 hlineto
          hintmask 01010101
          -42 -116 rlineto
          -199 hlineto
          14 84 15 84 16 84 rrcurveto
          113 hlineto
          -3 -83 rlineto
          55 hlineto
          41 222 rlineto
          -55 hlineto
          -28 -81 rlineto
          -112 hlineto
          45 235 rlineto
          163 hlineto
          hintmask 01011001
          7 callsubr
          hintmask 01010101
          25 172 rlineto
          -324 hlineto
          hintmask 10010011
          13 -47 -35 6 -39 hhcurveto
          -246 -167 -205 -208 -194 118 -88 164 hvcurveto
          hintmask 01010101
          51 32 7 12 42 hvcurveto
          endchar
        </CharString>
        <CharString name="Oacute">
          6 callsubr
          hstem
          85 callgsubr
          vstem
          -100 callgsubr
          62 699 -102 callgsubr
        </CharString>
        <CharString name="Ocircumflex">
          6 callsubr
          hstem
          85 callgsubr
          vstem
          310 39 rmoveto
          -77 -33 65 124 214 99 176 113 79 29 -63 -121 -213 -97 -182 -113 hvcurveto
          -12 -57 rmoveto
          234 143 196 224 168 -102 105 -151 -233 -143 -201 -216 -186 108 -90 144 hvcurveto
          186 891 -45 callsubr
        </CharString>
        <CharString name="Odieresis">
          6 callsubr
          41 131 hstemhm
          46 154 43 64 callsubr
          -88 155 hintmask 11111010
          -100 callgsubr
          -6 677 rmoveto
          -84 callgsubr
          hintmask 11111100
          232 hmoveto
          -84 callgsubr
          endchar
        </CharString>
        <CharString name="Ograve">
          6 callsubr
          hstem
          85 callgsubr
          vstem
          -100 callgsubr
          178 695 -75 callsubr
        </CharString>
        <CharString name="Ohungarumlaut">
          6 callsubr
          hstem
          85 callgsubr
          vstem
          -100 callgsubr
          -1 686 -53 callgsubr
        </CharString>
        <CharString name="Omacron">
          6 callsubr
          57 81 hstem
          85 callgsubr
          vstem
          -100 callgsubr
          -39 693 5 callgsubr
          endchar
        </CharString>
        <CharString name="Oslash">
          6 callsubr
          hstem
          46 146 336 147 vstem
          696 645 rmoveto
          -49 46 -65 -68 rlineto
          34 -42 -55 18 -63 hhcurveto
          -233 -143 -201 -216 -66 13 -53 24 -42 hvcurveto
          -80 -85 50 -46 73 77 rlineto
          -41 44 60 -20 68 hhcurveto
          234 143 196 224 68 -17 58 -30 45 hvcurveto
          -436 -346 rmoveto
          214 102 177 119 52 31 -22 -46 17 vhcurveto
          -321 -339 rlineto
          5 0 6 5 vvcurveto
          117 -188 rmoveto
          -55 -35 27 59 -16 hvcurveto
          324 342 rlineto
          1 -10 0 -10 -11 vvcurveto
          -213 -101 -184 -118 vhcurveto
          endchar
        </CharString>
        <CharString name="Otilde">
          6 callsubr
          30 103 callsubr
          85 callgsubr
          hintmask 11011100
          -100 callgsubr
          -67 682 57 callsubr
          hintmask 11101100
          -10 callsubr
          hintmask 11011100
          36 callgsubr
        </CharString>
        <CharString name="P">
          125 0 58 -58 59 191 56 293 58 hstemhm
          473 149 hintmask 01111000
          108 603 rmoveto
          78 -8 -14 16 callgsubr
          -15 -82 rlinecurve
          hintmask 10111000
          -54 -285 -79 -8 rlineto
          hintmask 01111000
          -19 callgsubr
          322 hlineto
          11 54 -91 10 10 62 12 62 11 62 rlinecurve
          36 hlineto
          214 99 109 117 109 -73 72 -177 hvcurveto
          -253 hlineto
          166 -346 rmoveto
          54 288 rlineto
          23 hlineto
          71 40 -41 -73 -112 -67 -67 -92 hvcurveto
          -30 hlineto
          2 1 1 2 vvcurveto
          endchar
        </CharString>
        <CharString name="Q">
          200 -230 78 139 52 -27 -21 627 57 hstemhm
          85 callgsubr
          hintmask 11011100
          310 39 rmoveto
          -77 -33 65 124 214 99 176 113 79 29 -63 -121 -213 -97 -182 -113 hvcurveto
          144 -269 rmoveto
          86 58 22 33 43 hvcurveto
          -19 43 rlineto
          -14 -34 -31 -6 -46 hhcurveto
          -86 -51 51 88 -11 hvcurveto
          195 33 117 180 202 vvcurveto
          168 -102 105 -151 -233 -143 -201 -216 vhcurveto
          hintmask 10111100
          -153 73 -88 106 -26 vhcurveto
          hintmask 11011100
          -138 13 83 -83 133 hhcurveto
          endchar
        </CharString>
        <CharString name="R">
          -43 callsubr
          484 147 hintmask 10011100
          382 599 -7 callgsubr
          -231 4 -87 callgsubr
          hintmask 01011100
          -25 callsubr
          hintmask 00111100
          22 callsubr
          hintmask 01011100
          -41 callsubr
          endchar
        </CharString>
        <CharString name="Racute">
          -74 callgsubr
          25 132 -102 callgsubr
        </CharString>
        <CharString name="Rcaron">
          -74 callgsubr
          -57 287 -76 callgsubr
        </CharString>
        <CharString name="S">
          31 -19 60 575 60 hstem
          97 138 91 147 vstem
          -93 callsubr
          endchar
        </CharString>
        <CharString name="Sacute">
          31 -19 60 575 60 hstem
          97 138 91 147 vstem
          -93 callsubr
          249 557 -102 callgsubr
        </CharString>
        <CharString name="Scaron">
          31 -19 60 575 60 hstem
          97 138 91 147 vstem
          -93 callsubr
          197 705 -76 callgsubr
        </CharString>
        <CharString name="T">
          139 0 9 callsubr
          72 601 -70 callgsubr
          endchar
        </CharString>
        <CharString name="Tcaron">
          139 0 9 callsubr
          72 601 -70 callgsubr
          165 229 -76 callgsubr
        </CharString>
        <CharString name="Thorn">
          125 -63 callsubr
          78.5 56 285 58 62.5 39 callgsubr
          457 149 hintmask 10111010
          285 311 rmoveto
          31 167 rlineto
          30 hlineto
          74 37 -43 -75 -106 -61 -61 -98 hvcurveto
          -35 hlineto
          7 39 7 40 8 39 rrcurveto
          hintmask 10110110
          -177 292 -87 callgsubr
          hintmask 01111010
          11 54 -78 9 4 24 4 25 5 25 rlinecurve
          38 hlineto
          214 101 100 114 114 -70 71 -176 hvcurveto
          -33 hlineto
          11 58 80 81 callsubr
          -310 hlineto
          endchar
        </CharString>
        <CharString name="U">
          -104 callgsubr
          endchar
        </CharString>
        <CharString name="Uacute">
          -104 callgsubr
          -110 74 -102 callgsubr
        </CharString>
        <CharString name="Ucircumflex">
          -104 callgsubr
          7 216 -45 callsubr
        </CharString>
        <CharString name="Udieresis">
          218 -19 86 532 58 -47 callgsubr
          59 131 93 callsubr
          49 64 callsubr
          hintmask 10101110
          -13 callgsubr
          hintmask 11001110
          59 314 77 8 rlineto
          hintmask 10101110
          10 54 rlineto
          -312 hlineto
          hintmask 11001110
          -10 -54 72 -8 -13 -79 -15 -80 -14 -79 rlinecurve
          -15 -86 rlineto
          -6 -32 -4 -30 -27 vvcurveto
          -135 87 -66 143 147 100 84 199 37 vhcurveto
          hintmask 10111110
          62 332 80 7 10 54 rlineto
          -232 hlineto
          -164 59 rmoveto
          -84 callgsubr
          232 hmoveto
          -84 callgsubr
          endchar
        </CharString>
        <CharString name="Ugrave">
          -104 callgsubr
          4 77 -75 callsubr
        </CharString>
        <CharString name="Uhungarumlaut">
          -104 callgsubr
          -171 68 -53 callgsubr
        </CharString>
        <CharString name="Umacron">
          218 -19 86 532 58 -47 callgsubr
          75 81 93 callsubr
          hintmask 10111000
          -13 callgsubr
          hintmask 11011000
          59 314 77 8 rlineto
          hintmask 10111000
          10 54 rlineto
          -312 hlineto
          hintmask 11011000
          -10 -54 72 -8 -13 -79 -15 -80 -14 -79 rlinecurve
          -15 -86 rlineto
          -6 -32 -4 -30 -27 vvcurveto
          -135 87 -66 143 147 100 84 199 37 vhcurveto
          hintmask 10111000
          62 332 80 7 10 54 rlineto
          -232 hlineto
          -201 75 5 callgsubr
          endchar
        </CharString>
        <CharString name="Uogonek">
          218 -234 64 151 86 532 58 -47 callgsubr
          93 callsubr
          51 94 hintmask 11011100
          -13 callgsubr
          hintmask 11101100
          59 314 77 8 rlineto
          hintmask 11011100
          10 54 rlineto
          -312 hlineto
          hintmask 11101100
          -10 -54 72 -8 -13 -79 -15 -80 -14 -79 rlinecurve
          -15 -86 rlineto
          -6 -32 -4 -30 -27 vvcurveto
          -135 87 -66 143 29 27 4 7 25 vhcurveto
          -58 -52 -42 -47 -51 vvcurveto
          -56 callsubr
          46 37 55 59 56 hvcurveto
          53 50 39 65 21 113 rrcurveto
          hintmask 11011100
          62 332 80 7 10 54 rlineto
          -232 hlineto
          endchar
        </CharString>
        <CharString name="Uring">
          218 -19 86 532 58 -47 callgsubr
          41 45 108 45 93 callsubr
          128 53 103 52 hintmask 10111111
          -13 callgsubr
          hintmask 11011111
          59 314 77 8 rlineto
          hintmask 10111111
          10 54 rlineto
          -312 hlineto
          hintmask 11011111
          -10 -54 72 -8 -13 -79 -15 -80 -14 -79 rlinecurve
          -15 -86 rlineto
          -6 -32 -4 -30 -27 vvcurveto
          -135 87 -66 143 147 100 84 199 37 vhcurveto
          hintmask 10111111
          62 332 80 7 10 54 rlineto
          -232 hlineto
          -46 86 10 callgsubr
        </CharString>
        <CharString name="V">
          134 18 48 callsubr
          hstem
          61 645 vstem
          482 607 rmoveto
          74 -14 -212 -421 -61 423 85 12 10 50 rlineto
          -307 hlineto
          -10 -54 58 -7 101 -599 rlineto
          90 hlineto
          308 594 77 12 11 callsubr
          -214 hlineto
          endchar
        </CharString>
        <CharString name="W">
          420 18 -21 600.5 59.5 -59 59 -58.5 -83 callgsubr
          -57 57 -54 54 hstemhm
          61 931 hintmask 10000110
          768 603 rmoveto
          77 -12 -182 -415 rlineto
          hintmask 11000010
          -46 416 86 11 rlineto
          hintmask 10010010
          11 callsubr
          -288 hlineto
          hintmask 10100010
          -11 -54 76 -10 -188 -412 rlineto
          hintmask 10010010
          -27 413 80 81 callsubr
          -296 hlineto
          hintmask 10001010
          -10 -54 57 -6 59 -600 rlineto
          94 hlineto
          214 460 56 -460 rlineto
          94 hlineto
          hintmask 10010010
          271 593 75 13 11 callsubr
          -213 hlineto
          endchar
        </CharString>
        <CharString name="X">
          180 0 57.5 -57.5 58 541 58 hstemhm
          -11 721 hintmask 10110000
          483 603 rmoveto
          66 -11 -146 -182 -74 185 71 8 11 54 93 callgsubr
          -11 -54 71 -8 116 -291 -204 -239 -78 -11 -10 -54 rlineto
          214 hlineto
          11 54 -66 11 153 188 77 -192 -72 -7 -19 callgsubr
          311 hlineto
          hintmask 01110000
          11 54 -75 8 -119 297 197 233 79 11 11 callsubr
          -217 hlineto
          endchar
        </CharString>
        <CharString name="Y">
          -53 callsubr
          endchar
        </CharString>
        <CharString name="Yacute">
          -53 callsubr
          -123 74 -102 callgsubr
        </CharString>
        <CharString name="Ydieresis">
          35 callsubr
          59 131 hstemhm
          261 64 callsubr
          hintmask 11001100
          463 603 rmoveto
          69 -11 -165 -256 -74 258 76 81 callsubr
          -309 hlineto
          hintmask 10101100
          -10 -54 64 -7 110 -332 -38 -201 -89 -9 -10 -54 rlineto
          328 hlineto
          10 54 -87 9 12 72 13 72 14 72 rlinecurve
          hintmask 11011100
          207 312 72 12 11 callsubr
          -204 hlineto
          -152 59 rmoveto
          -84 callgsubr
          232 hmoveto
          -84 callgsubr
          endchar
        </CharString>
        <CharString name="Z">
          -27 callgsubr
          endchar
        </CharString>
        <CharString name="Zacute">
          -27 callgsubr
          201 74 -102 callgsubr
        </CharString>
        <CharString name="Zcaron">
          -27 callgsubr
          145 229 -76 callgsubr
        </CharString>
        <CharString name="Zdotaccent">
          23 callsubr
          57 148 hstemhm
          319 141 hintmask 10100100
          71 471 rmoveto
          78 hlineto
          hintmask 10010100
          -4 callsubr
          hintmask 01010100
          41 186 rlineto
          -80 hlineto
          hintmask 10011100
          21 callsubr
          270 57 -44 callgsubr
        </CharString>
        <CharString name="a">
          -104 callsubr
          endchar
        </CharString>
        <CharString name="a.sups">
          -74 callsubr
        </CharString>
        <CharString name="aacute">
          -104 callsubr
          -54 573 -102 callsubr
        </CharString>
        <CharString name="abreve">
          -39 callsubr
          94 90 65 -20 21 -20 32 -20 71 callsubr
          hintmask 0101010011100000
          -103 callsubr
          hintmask 1000110011100000
          -84 callsubr
          hintmask 0011010011100000
          -96 callgsubr
          hintmask 0101010011100000
          30 callgsubr
          hintmask 0011010101000000
          -16 578 rmoveto
          108 53 88 68 17 hvcurveto
          hintmask 0011010011000000
          9 callgsubr
          hintmask 0011011001000000
          -43 -13 rlineto
          hintmask 0011010101000000
          -88 46 -67 100 vhcurveto
          endchar
        </CharString>
        <CharString name="acircumflex">
          -104 callsubr
          107 560 -62 callsubr
        </CharString>
        <CharString name="acute">
          -69 73 callgsubr
          206 187 vstem
          206 558 -102 callsubr
        </CharString>
        <CharString name="acutecmb.cap">
          698 178 hstem
          16 247 vstem
          16 731 -102 callgsubr
        </CharString>
        <CharString name="adieresis">
          -39 callsubr
          125 143 hstemhm
          46 145 28 144 -37 140 -24 143 hintmask 0101011010000000
          -103 callsubr
          hintmask 1000111010000000
          -84 callsubr
          hintmask 0011011010000000
          -96 callgsubr
          hintmask 0101011010000000
          30 callgsubr
          hintmask 0011011101000000
          -124 609 -94 callsubr
        </CharString>
        <CharString name="ae">
          288 -15 102 -102 103 337 74 -55 55 hstemhm
          46 145 145 13 callsubr
          176 116 hintmask 10101101
          191 176 rmoveto
          71 32 101 47 43 vhcurveto
          23 25 23 11 22 hhcurveto
          22 31 -11 -18 24 hvcurveto
          -51 -59 -30 -80 -84 vvcurveto
          -11 1 -11 1 -10 vhcurveto
          -32 -32 -31 -22 -29 hhcurveto
          -34 -21 26 63 hvcurveto
          hintmask 01011101
          427 268 -92 callsubr
          -28 20 rlineto
          hintmask 01011011
          -88 callsubr
          -55 -50 -16 -28 -43 vhcurveto
          26 -27 -37 18 -36 hhcurveto
          -147 -191 -196 -179 -103 51 -36 55 63 75 47 68 57 hvcurveto
          hintmask 01011101
          -73 23 61 -42 80 hhcurveto
          endchar
        </CharString>
        <CharString name="agrave">
          -104 callsubr
          11 572 -88 callgsubr
        </CharString>
        <CharString name="amacron">
          -39 callsubr
          130 81 71 callsubr
          hintmask 01010111
          -103 callsubr
          hintmask 10001111
          -84 callsubr
          hintmask 00110111
          -96 callgsubr
          hintmask 01010111
          30 callgsubr
          hintmask 00110110
          -175 614 -26 callsubr
        </CharString>
        <CharString name="ampersand">
          267 -16 118 233 108 188 45 hstemhm
          61 144 0 109 226 72 hintmask 11110100
          337 -16 rmoveto
          178 97 92 115 38 -13 36 -29 24 hvcurveto
          98 27 70 59 46 98 -102 46 rcurveline
          -39 -112 -67 -63 -112 -16 -11 -59 rcurveline
          68 -6 19 -27 -37 vvcurveto
          -54 -50 -43 -112 -101 -72 50 98 46 18 42 39 33 vhcurveto
          -22 30 42 -14 51 hhcurveto
          43 22 21 30 hvcurveto
          hintmask 11101100
          38 -35 19 -67 -7 -8 0 -1 -7 vhcurveto
          -8 20 -4 22 22 vvcurveto
          77 48 46 80 2 vhcurveto
          17 -43 rlineto
          -45 17 27 -15 27 hhcurveto
          35 17 21 28 3 hvcurveto
          58 -12 -50 41 -103 hhcurveto
          -131 -84 -87 -97 -26 6 -25 11 -22 hvcurveto
          hintmask 11110100
          -99 -40 -62 -87 -92 vvcurveto
          -126 93 -90 183 vhcurveto
          endchar
        </CharString>
        <CharString name="ampersand.alt">
          540 -19 58 -54 99 433 136 -23 46 hstemhm
          39 131 27 119 109 88 335 121 hintmask 10011111
          316 574 rmoveto
          35 21 21 36 31 21 -17 -48 -40 -16 -31 -34 -32 vhcurveto
          -35 36 -24 37 39 vvcurveto
          430 -593 rmoveto
          132 91 80 80 32 -14 24 -35 10 hvcurveto
          -41 -3 -31 -29 -43 vvcurveto
          -24 9 -23 17 -28 vhcurveto
          -11 -18 -21 -7 -38 hhcurveto
          -57 -64 27 85 -59 hvcurveto
          -26 38 -25 38 -27 38 rrcurveto
          hintmask 10101011
          90 136 100 122 102 40 rrcurveto
          -36 31 23 -10 24 hhcurveto
          36 29 27 44 3 hvcurveto
          43 -10 -37 22 -43 hhcurveto
          -130 -142 -184 -171 -100 hvcurveto
          -36 49 -38 47 -43 45 rrcurveto
          69 35 46 38 60 vvcurveto
          hintmask 10011111
          69 -61 35 -78 -98 -79 -56 -91 -46 18 -39 38 -45 vhcurveto
          hintmask 01011011
          -157 -69 -57 -87 -90 vvcurveto
          -102 63 -66 105 105 83 59 107 64 vhcurveto
          8 -12 8 -11 8 -11 rrcurveto
          hintmask 10011111
          -111 79 86 -25 98 hhcurveto
          hintmask 01011011
          -470 103 rmoveto
          -58 2 -48 41 77 vvcurveto
          56 31 63 75 50 vhcurveto
          3 -3 2 -2 3 -3 57 -59 51 -63 43 -59 -57 -73 -47 -29 -55 2 rrcurveto
          endchar
        </CharString>
        <CharString name="aogonek">
          100 -234 64 155 102 -81 -21 22 -21 439 74 -10 -20 71 callsubr
          -133 94 hintmask 1100101010000000
          191 176 rmoveto
          71 32 101 47 43 vhcurveto
          23 25 23 11 22 hhcurveto
          18 18 -5 -9 16 hvcurveto
          -56 -257 -1 -6 -1 -5 -1 -6 rlinecurve
          -31 -32 -29 -19 -26 hhcurveto
          -34 -21 26 63 hvcurveto
          142 -334 rmoveto
          -46 31 -30 58 55 40 27 28 27 vhcurveto
          -16 27 rlineto
          -11 -17 -20 -7 -19 hhcurveto
          -27 -18 16 33 42 26 45 55 55 hvcurveto
          31 31 28 33 20 33 rrcurveto
          hintmask 1001011100000000
          -84 callsubr
          hintmask 1010101100000000
          -96 callgsubr
          hintmask 1001101100000000
          30 callgsubr
          hintmask 1001101010000000
          6 6 0 1 5 hvcurveto
          hintmask 1100101010000000
          -53 -49 -40 -45 -50 vvcurveto
          endchar
        </CharString>
        <CharString name="approxequal">
          75 123 85 12 85 58 85 12 85 hstemhm
          77 72 293 72 hintmask 01011100
          318 251 rmoveto
          -13 callsubr
          hintmask 11011100
          4 callgsubr
          hintmask 01011100
          -19 -13 9 34 -43 hvcurveto
          240 vmoveto
          -13 callsubr
          hintmask 01111100
          4 callgsubr
          hintmask 01011100
          -19 -13 9 34 -43 hvcurveto
          endchar
        </CharString>
        <CharString name="aring">
          -39 callsubr
          84 101 callgsubr
          hstemhm
          46 145 96 62 -23 140 3 61 hintmask 0101011101000000
          -103 callsubr
          hintmask 1000111101000000
          -84 callsubr
          hintmask 0011011101000000
          -96 callgsubr
          hintmask 0101011101000000
          30 callgsubr
          hintmask 0011011110100000
          -8 618 rmoveto
          -3 callgsubr
          -50 vmoveto
          -4 callgsubr
          endchar
        </CharString>
        <CharString name="asciicircum">
          75 182 323 hstem
          65 438 vstem
          65 232 rmoveto
          72 -50 147 224 146 -224 73 50 -177 273 rlineto
          -84 hlineto
          endchar
        </CharString>
        <CharString name="asciitilde">
          75 254 85 12 85 hstemhm
          77 72 293 72 hintmask 01110000
          318 382 rmoveto
          -13 callsubr
          hintmask 11110000
          4 callgsubr
          hintmask 01110000
          -19 -13 9 34 -43 hvcurveto
          endchar
        </CharString>
        <CharString name="asterisk">
          1 500 100 hstemhm
          104 224 -93 93 hintmask 10100000
          283 736 rmoveto
          -36 -12 -27 -24 -21 19 -43 34 -70 hvcurveto
          hintmask 11000000
          31 -72 -37 18 -26 hhcurveto
          -28 -21 -21 -28 -55 65 -6 114 22 hvcurveto
          -62 -69 -30 -33 -30 vvcurveto
          -27 23 -19 25 40 22 51 109 17 vhcurveto
          51 -88 26 -41 37 1 29 1 18 26 -1 22 -2 35 -36 25 -94 47 rrcurveto
          110 21 49 22 37 vvcurveto
          32 -22 19 -28 vhcurveto
          hintmask 10100000
          -24 -38 -30 -66 -65 hvcurveto
          6 71 5 41 -4 21 rrcurveto
          30 -4 -18 16 -30 hhcurveto
          endchar
        </CharString>
        <CharString name="at">
          391 -153 76 callgsubr
          54 65 callsubr
          360 210 -77 callsubr
        </CharString>
        <CharString name="at.cap">
          391 -132 76 callgsubr
          58 65 callsubr
          364 231 -77 callsubr
        </CharString>
        <CharString name="atilde">
          -39 callsubr
          102 89 -22 89 -16 -20 71 callsubr
          hintmask 0101010111000000
          -103 callsubr
          hintmask 1000110111000000
          -84 callsubr
          hintmask 0011010111000000
          -96 callgsubr
          hintmask 0101010111000000
          30 callgsubr
          hintmask 0011001010000000
          -198 603 2 callsubr
          hintmask 0011010110000000
          43 callgsubr
          hintmask 0011001010000000
          -38 17 rlineto
          hintmask 0011010110000000
          4 callsubr
          hintmask 0011001010000000
          36 callsubr
        </CharString>
        <CharString name="b">
          69 -15 72 339 103 0 103 callgsubr
          70 137 197 142 hintmask 10111100
          207 108 rmoveto
          25 9 36 12 57 vhcurveto
          hintmask 11011100
          26 118 rlineto
          32 35 31 20 31 hhcurveto
          33 20 -27 -54 -67 -28 -87 -32 -43 hvcurveto
          -44 -31 -29 -17 -29 hhcurveto
          hintmask 10111100
          -32 -16 20 31 hvcurveto
          -20 -123 rmoveto
          173 186 182 193 100 -42 39 -62 -59 -69 -43 -66 -54 hvcurveto
          69 317 -15 12 -213 -63 -5 -38 70 -7 -69 -342 rlineto
          -12 62 callgsubr
          vhcurveto
          endchar
        </CharString>
        <CharString name="b.sups">
          -107 402 46 221 66 hstem
          121 89 133 93 vstem
          210 481 rmoveto
          17 4 23 9 37 vhcurveto
          17 77 rlineto
          21 24 22 13 20 hhcurveto
          23 14 -18 -35 -87 -55 -81 -46 -22 -10 13 20 hvcurveto
          -12 -79 rmoveto
          115 123 117 126 65 -29 25 -41 -39 -47 -27 -41 -35 hvcurveto
          43 203 -10 8 -141 -42 -4 -24 50 -5 -45 -220 rlineto
          -7 -37 -10 -42 -32 vvcurveto
          -51 31 -23 46 vhcurveto
          endchar
        </CharString>
        <CharString name="backslash">
          -89 -160 870 hstem
          119 191 vstem
          310 -160 rmoveto
          -89 870 rlineto
          -102 hlineto
          89 -870 rlineto
          endchar
        </CharString>
        <CharString name="bar">
          59 callsubr
          1000 -98 hlineto
          endchar
        </CharString>
        <CharString name="braceleft">
          -122 -159 18 callsubr
          49 74 callgsubr
          49 251 -50 callsubr
        </CharString>
        <CharString name="braceleft.cap">
          -122 -128 18 callsubr
          55 74 callgsubr
          55 282 -50 callsubr
        </CharString>
        <CharString name="braceright">
          -122 -159 18 callsubr
          103 74 callsubr
          342 305 -49 callgsubr
        </CharString>
        <CharString name="braceright.cap">
          -122 -128 18 callsubr
          109 74 callsubr
          348 336 -49 callgsubr
        </CharString>
        <CharString name="bracketleft">
          -118 -159 18 callgsubr
          22 400 vstem
          22 -159 -10 callgsubr
        </CharString>
        <CharString name="bracketleft.cap">
          -118 -128 18 callgsubr
          28 400 vstem
          28 -128 -10 callgsubr
        </CharString>
        <CharString name="bracketleft.dnom">
          -106 -92 33 458 32 hstem
          84 251 vstem
          84 -92 -16 callsubr
        </CharString>
        <CharString name="bracketleft.numr">
          -106 154 33 458 32 hstem
          135 251 vstem
          135 154 -16 callsubr
        </CharString>
        <CharString name="bracketleft.subs">
          -106 -295 33 458 32 hstem
          40 251 vstem
          40 -295 -16 callsubr
        </CharString>
        <CharString name="bracketleft.sups">
          -106 320 33 458 32 hstem
          171 251 vstem
          171 320 -16 callsubr
        </CharString>
        <CharString name="bracketright">
          -118 -159 18 callgsubr
          -27 400 vstem
          373 715 -11 callsubr
        </CharString>
        <CharString name="bracketright.cap">
          -118 -128 18 callgsubr
          -21 400 vstem
          379 746 -11 callsubr
        </CharString>
        <CharString name="bracketright.dnom">
          -106 -92 62 callsubr
          37 99 callsubr
          136 399 -32 callgsubr
        </CharString>
        <CharString name="bracketright.numr">
          -106 154 62 callsubr
          88 99 callsubr
          187 645 -32 callgsubr
        </CharString>
        <CharString name="bracketright.subs">
          -106 -295 62 callsubr
          -7 99 callsubr
          92 196 -32 callgsubr
        </CharString>
        <CharString name="bracketright.sups">
          -106 320 62 callsubr
          124 99 callsubr
          223 811 -32 callgsubr
        </CharString>
        <CharString name="breve">
          -69 563 90 hstem
          134 324 vstem
          280 17 callsubr
        </CharString>
        <CharString name="brevecmb.cap">
          707 87 hstem
          -37 328 vstem
          112 707 -22 callsubr
        </CharString>
        <CharString name="brokenbar">
          59 callsubr
          450 -98 hlineto
          98 120 rmoveto
          430 -98 -430 vlineto
          endchar
        </CharString>
        <CharString name="bullet">
          -142 211 252 hstem
          69 257 vstem
          187 211 rmoveto
          75 64 58 80 63 -49 51 -68 -72 -68 -60 -80 -61 48 -51 70 hvcurveto
          endchar
        </CharString>
        <CharString name="c">
          -79 callsubr
          endchar
        </CharString>
        <CharString name="c.sups">
          -153 402 67 34 -20 218 34 hstem
          107 93 vstem
          223 402 rmoveto
          68 56 49 52 28 hvcurveto
          -18 13 rlineto
          -30 -25 -31 -17 -29 hhcurveto
          -43 -29 23 52 59 26 65 55 33 hvcurveto
          21 -35 rlineto
          -18 11 12 -16 22 hhcurveto
          25 20 18 24 1 hvcurveto
          38 -11 -33 23 -48 hhcurveto
          -110 -84 -100 -110 -77 48 -46 68 hvcurveto
          endchar
        </CharString>
        <CharString name="cacute">
          -79 callsubr
          110 573 -102 callsubr
        </CharString>
        <CharString name="caron">
          -69 557 212 hstem
          147 317 vstem
          184 768 -68 callgsubr
        </CharString>
        <CharString name="caroncmb.cap">
          705 184 hstem
          -37 340 vstem
          -4 886 -76 callgsubr
        </CharString>
        <CharString name="ccaron">
          -79 callsubr
          39 783 -68 callgsubr
        </CharString>
        <CharString name="ccedilla">
          -1 105 callsubr
          191 -21 354 159 -53 53 hstemhm
          50 143 39 78 hintmask 11011100
          164 -90 rmoveto
          -90 callgsubr
          23 48 95 9 77 71 39 75 rlinecurve
          16 callsubr
          hintmask 11101100
          31 -52 rlineto
          -28 16 19 -26 34 hhcurveto
          38 31 28 37 1 hvcurveto
          hintmask 11011100
          58 -16 -51 36 -73 hhcurveto
          -166 -127 -153 -171 -110 61 -69 91 -10 hvcurveto
          endchar
        </CharString>
        <CharString name="cedilla">
          -69 105 callsubr
          hstem
          164 78 vstem
          96 -90 rmoveto
          -90 callgsubr
          30 63 rlineto
          -41 hlineto
          endchar
        </CharString>
        <CharString name="cent">
          77 -45 196 -103 103 357 145 hstemhm
          60 137 204.5 115.5 hintmask 10011000
          262 -45 rmoveto
          hintmask 01111000
          20 98 82 19 66 65 35 67 rlinecurve
          -27 20 rlineto
          -46 -39 -47 -27 -44 -2 -2 0 -2 hhcurveto
          73 357 rlineto
          9 8 -1 -1 7 hvcurveto
          5 -62 rlineto
          -63 6 19 -16 34 hhcurveto
          21 25 13 31 8 hvcurveto
          79 -49 58 -83 13 vhcurveto
          19 94 rlineto
          -55 hlineto
          -19 -93 rlineto
          -154 -12 -116 -146 -164 vvcurveto
          -115 68 -71 97 -4 vhcurveto
          hintmask 10011000
          -19 -93 rlineto
          -9 318 rmoveto
          78 36 126 85 27 vhcurveto
          -69 -340 rlineto
          -33 17 -19 35 57 vvcurveto
          endchar
        </CharString>
        <CharString name="circumflex">
          -69 543 210 hstem
          130 333 vstem
          429 545 -62 callsubr
        </CharString>
        <CharString name="circumflexcmb.cap">
          691 182 hstem
          -51 339 vstem
          174 873 -45 callsubr
        </CharString>
        <CharString name="colon">
          -142 -14 174 -153 -21 335 174 106 callsubr
          46 179 -106 179 hintmask 01011000
          128 -14 rmoveto
          52 45 40 54 hvcurveto
          hintmask 10011000
          44 -33 36 -48 -52 -46 -42 -54 vhcurveto
          hintmask 01011000
          -42 34 -36 48 vhcurveto
          hintmask 01100100
          73 335 -39 callgsubr
          endchar
        </CharString>
        <CharString name="colon.sups">
          -243 402 115 105 115 hstemhm
          109 121 -76 121 hintmask 11100000
          165 402 -32 callsubr
          hintmask 11010000
          45 220 rmoveto
          34 31 26 36 29 -23 24 -32 -36 -31 -28 -36 1 hvcurveto
          -27 23 -24 33 vhcurveto
          endchar
        </CharString>
        <CharString name="comma">
          -159 -161 321 hstem
          46 169 vstem
          4 -161 rmoveto
          8 callsubr
        </CharString>
        <CharString name="comma.dnom">
          -262 -107 210 hstem
          24 106 callgsubr
          -16 -107 -59 callgsubr
        </CharString>
        <CharString name="comma.numr">
          -262 139 210 hstem
          75 106 callgsubr
          35 139 -59 callgsubr
        </CharString>
        <CharString name="comma.subs">
          -262 -310 210 hstem
          -20 106 callgsubr
          -60 -310 -59 callgsubr
        </CharString>
        <CharString name="comma.sups">
          -262 305 210 hstem
          111 106 callgsubr
          71 305 -59 callgsubr
        </CharString>
        <CharString name="copyright">
          295 -19 52 91 44 326 43 87 52 hstem
          69 61 99 103 364 62 vstem
          -29 callsubr
          27 143 rmoveto
          49 39 13 16 29 hvcurveto
          17 95 rlineto
          -49 hlineto
          -28 -73 rlineto
          -5 -12 -13 -2 -13 hhcurveto
          -60 -36 56 82 85 41 103 92 15 14 -3 -5 12 hvcurveto
          2 -77 rlineto
          52 hlineto
          14 98 rlineto
          21 -37 -34 9 -43 hhcurveto
          -139 -92 -105 -124 -118 79 -66 101 hvcurveto
          endchar
        </CharString>
        <CharString name="currency">
          77 147 71 211 72 hstem
          127 78 199 78 vstem
          205 324 rmoveto
          62 47 43 53 54 45 -43 -62 -64 -45 -42 -54 -53 -47 42 64 vhcurveto
          -78 hmoveto
          -43 14 -38 22 -29 vhcurveto
          -33 -17 rlineto
          -39 -22 -33 -22 -31 vvcurveto
          -25 21 -20 23 32 22 33 40 22 vhcurveto
          17 33 rlineto
          -23 31 38 -13 41 hhcurveto
          41 38 13 23 31 hvcurveto
          17 -33 rlineto
          -40 22 21 -33 32 hhcurveto
          24 21 21 24 31 -33 23 -40 21 hvcurveto
          -33 17 rlineto
          22 30 14 37 43 vvcurveto
          43 -14 38 -22 29 vhcurveto
          33 17 rlineto
          40 22 33 22 31 vvcurveto
          25 -21 20 -24 -32 -22 -33 -40 -21 vhcurveto
          -18 -33 rlineto
          23 -30 -38 13 -41 hhcurveto
          -41 -39 -13 -23 -30 hvcurveto
          -17 33 rlineto
          40 -22 -22 33 -32 hhcurveto
          -24 -20 -21 -24 -31 33 -23 39 -21 hvcurveto
          33 -17 rlineto
          -22 -30 -14 -37 -43 vvcurveto
          endchar
        </CharString>
        <CharString name="d">
          103 40 callgsubr
          hintmask 01010111
          191 177 -67 callsubr
        </CharString>
        <CharString name="d.sups">
          -84 402 59 -59 66 20 -20 33 -20 206 48 hstemhm
          106 93 96 91 hintmask 01011110
          199 526 rmoveto
          83 45 78 54 16 11 -4 -6 11 vhcurveto
          -35 -167 -1 -2 0 -3 -1 -3 rlinecurve
          -21 -22 -21 -13 -19 hhcurveto
          -23 -15 17 41 hvcurveto
          hintmask 10011110
          190 -24 rmoveto
          79 368 -11 8 -141 -42 -3 -24 53 -5 -16 -75 rlineto
          2 -7 -8 1 -8 hhcurveto
          -99 -122 -127 -114 hvcurveto
          hintmask 01011110
          -69 32 -23 37 vhcurveto
          hintmask 00101110
          38 46 27 41 36 hvcurveto
          hintmask 01011110
          -5 0 -5 -4 vvcurveto
          -31 17 -23 32 vhcurveto
          hintmask 00101110
          50 47 39 47 26 hvcurveto
          hintmask 10011110
          -21 13 rlineto
          -27 -20 -18 -13 -11 hhcurveto
          -13 -1 11 30 6 hvcurveto
          endchar
        </CharString>
        <CharString name="dagger">
          36 422 75 callsubr
          281 125 hintmask 00111000
          82 callsubr
          -1 -32 2 -27 8 -33 11 -49 rcurveline
          hintmask 01011000
          -44 23 rlineto
          13 -28 -31 14 -30 hhcurveto
          -45 -35 -28 -46 -34 20 -21 40 31 35 12 15 34 hvcurveto
          48 20 -70 -116 -10 -71 -5 -100 rlinecurve
          -3 -54 -5 -90 -9 -142 rrcurveto
          35 hlineto
          54 173 30 96 15 67 rrcurveto
          hintmask 10011000
          10 41 4 31 1 33 1 33 -5 40 -12 56 33 -17 rcurveline
          -16 28 34 -12 31 hhcurveto
          49 34 26 49 32 -22 22 -42 -28 -37 -12 -15 -31 hvcurveto
          hintmask 00111000
          -43 -22 29 49 rlineto
          18 78 callsubr
        </CharString>
        <CharString name="daggerdbl">
          36 62 129 -128 129 230 75 callsubr
          162 125 -71 135 -70 125 hintmask 1000110010000000
          82 callsubr
          -2 -32 3 -27 8 -33 11 -49 rcurveline
          hintmask 0101010100000000
          -44 23 rlineto
          13 -28 -31 14 -31 hhcurveto
          -46 -37 -28 -46 -34 22 -21 42 31 35 12 15 34 hvcurveto
          46 19 -53 -84 -14 -34 -8 -43 rlinecurve
          -8 -43 5 -34 25 -84 -33 17 rcurveline
          16 -28 -34 12 -30 hhcurveto
          -50 -34 -26 -46 hvcurveto
          hintmask 0100111000000000
          -35 22 -22 42 28 37 12 15 31 vhcurveto
          44 22 -29 -49 rlineto
          -19 -33 -26 -47 -29 vvcurveto
          -44 17 -13 35 vhcurveto
          hintmask 1000111000000000
          36 35 29 45 2 hvcurveto
          2 32 -3 27 -8 33 -11 49 rcurveline
          44 -23 rlineto
          -13 28 31 -14 31 hhcurveto
          46 37 28 46 hvcurveto
          hintmask 1010010100000000
          34 -22 21 -42 -31 -35 -12 -15 -34 vhcurveto
          -49 -20 53 84 16 36 8 44 rlinecurve
          7 44 -4 33 -25 83 34 -18 rcurveline
          -16 28 34 -12 30 hhcurveto
          50 34 26 49 hvcurveto
          hintmask 1010010010000000
          32 -22 22 -42 -28 -37 -12 -15 -31 vhcurveto
          hintmask 1000110010000000
          -43 -22 28 49 rlineto
          19 78 callsubr
        </CharString>
        <CharString name="dcaron">
          147 40 callgsubr
          hintmask 00110110
          723 30 callsubr
          hintmask 01010111
          -532 -566 -67 callsubr
        </CharString>
        <CharString name="dcroat">
          103 -15 91 -91 102 315 74 46 43 154 -20 hstemhm
          47 144 138 140 hintmask 01111110
          191 177 rmoveto
          61 32 90 42 42 vhcurveto
          18 17 28 14 25 hhcurveto
          22 16 -5 -8 16 hvcurveto
          -50 -237 -1 -4 -1 -5 -1 -4 rlinecurve
          -32 -32 -29 -20 -28 hhcurveto
          -34 -22 26 64 hvcurveto
          285 -37 rmoveto
          82 382 rlineto
          87 hlineto
          9 43 rlineto
          -87 hlineto
          30 142 -16 12 -212 -63 -6 -38 77 -6 -10 -47 rlineto
          -135 hlineto
          -9 -43 rlineto
          135 hlineto
          -10 -50 rlineto
          3 -10 -10 1 -11 hhcurveto
          -148 -185 -184 -165 -106 49 -36 55 57 68 42 62 54 hvcurveto
          -1 -7 0 -8 -6 vvcurveto
          -47 28 -36 48 75 70 62 71 39 vhcurveto
          hintmask 10111110
          -30 20 rlineto
          -41 -31 -26 -21 -16 hhcurveto
          -10 20 callsubr
          hvcurveto
          hintmask 01111110
          11 2 12 5 21 vhcurveto
          endchar
        </CharString>
        <CharString name="degree">
          -141 407 48 173 48 hstem
          109 54 158 54 vstem
          242 455 rmoveto
          -45 -34 33 53 53 34 34 45 45 34 -34 -53 -53 -34 -33 -45 hvcurveto
          -48 vmoveto
          70 63 51 83 83 -63 52 -70 -70 -63 -52 -83 -83 63 -51 70 hvcurveto
          endchar
        </CharString>
        <CharString name="dieresis">
          -69 594 143 hstem
          108 144 79 143 vstem
          174 594 -94 callsubr
        </CharString>
        <CharString name="dieresiscmb.cap">
          716 131 hstem
          -58 64 callsubr
          vstem
          3 716 rmoveto
          -84 callgsubr
          232 hmoveto
          -84 callgsubr
          endchar
        </CharString>
        <CharString name="divide">
          75 70 133 79 82 78 134 hstem
          221 138 vstem
          290 70 rmoveto
          38 31 28 84 callsubr
          -28 39 hvcurveto
          372 vmoveto
          38 31 29 84 callsubr
          -29 39 hvcurveto
          227 -160 79 callgsubr
          endchar
        </CharString>
        <CharString name="dollar">
          77 8 -21 606 51 -51 143 hstemhm
          53 117 -55 130 113 135 -70 120 hintmask 10101100
          181 -115 rmoveto
          59 hlineto
          21 102 rlineto
          149 8 83 78 116 vvcurveto
          87 -45 45 -96 57 vhcurveto
          -7 4 rlineto
          hintmask 10101010
          43 211 11 -1 11 -2 11 -3 rlinecurve
          4 -52 rlineto
          -63 5 29 -12 28 hhcurveto
          32 18 19 40 6 hvcurveto
          hintmask 11001010
          -9 74 -55 42 -81 9 rrcurveto
          hintmask 10101010
          19 92 rlineto
          -60 hlineto
          -18 -91 rlineto
          -150 -8 -74 -84 -103 vvcurveto
          -84 45 -48 81 -51 vhcurveto
          hintmask 10110100
          16 -10 -45 -220 -14 2 -14 3 -12 4 rlinecurve
          -4 63 rlineto
          59 -4 -22 15 -31 hhcurveto
          -25 -25 -18 -29 -8 hvcurveto
          2 -91 52 -49 95 -9 rrcurveto
          156 155 rmoveto
          -57 -33 -37 -54 -9 vhcurveto
          38 185 rlineto
          31 -21 18 -21 -40 vvcurveto
          hintmask 10101100
          -113 354 rmoveto
          55 32 31 51 9 vhcurveto
          -36 -177 rlineto
          -30 21 -17 21 40 vvcurveto
          endchar
        </CharString>
        <CharString name="dotaccent">
          -69 594 154 hstem
          233 147 vstem
          297 594 -40 callsubr
          endchar
        </CharString>
        <CharString name="dotaccentcmb.cap">
          714 148 hstem
          60 141 vstem
          123 714 -44 callgsubr
        </CharString>
        <CharString name="dotlessi">
          -72 callgsubr
          endchar
        </CharString>
        <CharString name="e">
          -101 callgsubr
          endchar
        </CharString>
        <CharString name="e.sups">
          12 callgsubr
          292 699 -71 callsubr
        </CharString>
        <CharString name="eacute">
          -101 callgsubr
          103 573 -102 callsubr
        </CharString>
        <CharString name="eacute.sups">
          12 callgsubr
          298 775 rmoveto
          24 -16 69 68 rlineto
          20 19 12 17 19 vvcurveto
          23 -20 15 -19 -20 -17 -11 -37 -14 vhcurveto
          -41 -173 -71 callsubr
        </CharString>
        <CharString name="ecaron">
          -101 callgsubr
          37 783 -68 callgsubr
        </CharString>
        <CharString name="ecircumflex">
          -101 callgsubr
          256 560 -62 callsubr
        </CharString>
        <CharString name="edieresis">
          2 -15 103 356 55 95 143 72 callgsubr
          -9 144 41 116 -78 143 hintmask 11110010
          -91 callgsubr
          hintmask 11101010
          -88 callsubr
          vhcurveto
          hintmask 11110010
          -169 -127 -153 -173 -117 71 -71 104 hvcurveto
          hintmask 11100101
          25 609 -94 callsubr
        </CharString>
        <CharString name="edotaccent">
          2 -15 103 356 55 72 callgsubr
          101 147 -72 116 hintmask 11100100
          -91 callgsubr
          hintmask 11010100
          -88 callsubr
          vhcurveto
          hintmask 11100100
          -169 -127 -153 -173 -117 71 -71 104 hvcurveto
          hintmask 11101000
          133 609 -40 callsubr
          endchar
        </CharString>
        <CharString name="egrave">
          -101 callgsubr
          162 572 -88 callgsubr
        </CharString>
        <CharString name="egrave.sups">
          12 callgsubr
          320 775 rmoveto
          -37 97 rlineto
          37 -14 -17 11 -20 hhcurveto
          -19 -20 -15 -22 -19 12 -18 20 -19 hvcurveto
          71 -68 rlineto
          -4 -60 -71 callsubr
        </CharString>
        <CharString name="eight">
          77 -16 53 557 52 hstemhm
          60 75 callgsubr
          249 -57 callsubr
        </CharString>
        <CharString name="eight.cap">
          55 -16 53 587 52 hstemhm
          55 105 -34 123 104 133 -60 99 hintmask 11010100
          249 526 rmoveto
          54 34 44 61 48 34 -30 -61 -52 -11 -47 -68 -51 vhcurveto
          -80 63 -18 32 48 vvcurveto
          hintmask 11101000
          -6 -542 rmoveto
          148 95 85 107 73 -25 49 -82 62 hvcurveto
          hintmask 11010100
          102 48 44 56 78 vvcurveto
          65 -61 69 -117 -125 -96 -89 -109 -69 31 -52 61 -48 vhcurveto
          hintmask 11100100
          -104 -47 -59 -64 -82 vvcurveto
          hintmask 11101000
          -75 70 -57 118 vhcurveto
          -83 146 rmoveto
          59 24 50 66 46 vhcurveto
          80 -62 23 -34 -52 vvcurveto
          -62 -38 -38 -61 -61 -33 33 60 vhcurveto
          endchar
        </CharString>
        <CharString name="eight.dnom">
          -99 -9 36 335 37 hstemhm
          37 15 callgsubr
          hintmask 11010100
          169 317 -97 callgsubr
        </CharString>
        <CharString name="eight.lf">
          55 -16 53 557 52 hstemhm
          55 75 callgsubr
          244 -57 callsubr
        </CharString>
        <CharString name="eight.numr">
          -99 237 36 335 37 hstemhm
          88 15 callgsubr
          hintmask 11010100
          220 563 -97 callgsubr
        </CharString>
        <CharString name="eight.osf">
          47 -15 53 555 53 hstemhm
          63 69 callgsubr
          250 -56 callgsubr
        </CharString>
        <CharString name="eight.subs">
          -99 -212 36 335 37 hstemhm
          -7 15 callgsubr
          hintmask 11010100
          125 114 -97 callgsubr
        </CharString>
        <CharString name="eight.sups">
          -99 403 36 335 37 hstemhm
          124 15 callgsubr
          hintmask 11010100
          256 729 -97 callgsubr
        </CharString>
        <CharString name="eight.tosf">
          77 -15 53 555 53 hstemhm
          75 69 callgsubr
          262 -56 callgsubr
        </CharString>
        <CharString name="ellipsis">
          467 -14 174 hstem
          47 179 134 179 134 179 cntrmask 01110000
          129 -14 -39 callgsubr
          313 hmoveto
          -55 callgsubr
          313 hmoveto
          -55 callgsubr
          endchar
        </CharString>
        <CharString name="emacron">
          2 -15 103 356 55 100 81 72 callgsubr
          176 116 hintmask 11110100
          -91 callgsubr
          hintmask 11101100
          -88 callsubr
          vhcurveto
          hintmask 11110100
          -169 -127 -153 -173 -117 71 -71 104 hvcurveto
          -32 614 -26 callsubr
        </CharString>
        <CharString name="emdash">
          42 callgsubr
        </CharString>
        <CharString name="emdash.cap">
          376 46 callgsubr
        </CharString>
        <CharString name="emdash.sups">
          89 98 callgsubr
          498 97 callsubr
          498 64 -498 hlineto
          endchar
        </CharString>
        <CharString name="endash">
          76 209 90 hstem
          50 459 vstem
          50 209 104 callsubr
        </CharString>
        <CharString name="endash.cap">
          76 260 90 hstem
          61 459 vstem
          61 260 104 callsubr
        </CharString>
        <CharString name="endash.sups">
          -106 98 callgsubr
          304.5 97 callsubr
          305 hlineto
          -1 64 rlineto
          -304 hlineto
          endchar
        </CharString>
        <CharString name="eogonek">
          2 -234 64 155 103 -75 -21 452 55 72 callgsubr
          -15 93 98 116 hintmask 10111001
          332 444 rmoveto
          20 17 -16 -33 -55 -42 -70 -136 -47 hvcurveto
          118 6 80 103 55 hhcurveto
          hintmask 11010011
          -65 -678 rmoveto
          55 39 27 28 28 hvcurveto
          -16 27 rlineto
          -11 -18 -19 -7 -20 hhcurveto
          -26 -19 16 33 44 28 47 62 57 hvcurveto
          38 36 31 38 24 40 -28 20 rcurveline
          hintmask 11010101
          -88 callsubr
          vhcurveto
          hintmask 11011001
          -169 -127 -153 -173 -117 71 -71 104 hvcurveto
          hintmask 11010011
          18 18 2 5 16 hvcurveto
          -58 -53 -41 -46 -51 vvcurveto
          -46 31 -30 58 vhcurveto
          endchar
        </CharString>
        <CharString name="equal">
          78 callgsubr
          517 177 79 callgsubr
          455 210 79 callgsubr
          endchar
        </CharString>
        <CharString name="estimated">
          331 -12 20 308 18 306 20 hstem
          46 130 450 128 vstem
          180 334 rmoveto
          -2 -2 2 4 hvcurveto
          180 vlineto
          8 4 8 4 6 vhcurveto
          60 56 76 38 86 hhcurveto
          82 76 -36 -58 56 hvcurveto
          6 -6 4 -8 -8 vvcurveto
          -184 vlineto
          -4 -2 -2 -4 vhcurveto
          -436 -226 rmoveto
          -4 6 -4 6 8 vvcurveto
          184 vlineto
          2 2 2 2 vhcurveto
          574 8 hlineto
          186 -158 150 -196 -196 -158 -150 -186 -186 158 -150 196 114 102 52 80 66 vhcurveto
          -52 hlineto
          -68 -56 -82 -44 -90 hhcurveto
          -86 -78 38 62 -54 hvcurveto
          endchar
        </CharString>
        <CharString name="eth">
          55 -15 54 392 55 235 -20 hstem
          47 145 193 138 vstem
          239 -15 rmoveto
          167 117 146 199 120 -38 97 -65 73 hvcurveto
          107 52 -24 49 -123 -62 -41 33 -47 26 -54 18 rlinecurve
          -26 -44 39 -20 31 -23 25 -27 rlinecurve
          -112 -57 21 -45 123 60 21 -33 14 -37 11 -43 rlinecurve
          13 -18 -21 6 -27 hhcurveto
          -152 -120 -136 -172 -133 82 -60 110 hvcurveto
          12 54 rmoveto
          -34 -25 26 88 149 59 129 74 37 23 -22 -71 -151 -56 -148 -78 hvcurveto
          endchar
        </CharString>
        <CharString name="exclam">
          -167 -15 162 -141 -21 hstemhm
          49 164 -78 44 -44 198 hintmask 01010000
          134 218 rmoveto
          45 hlineto
          hintmask 01001000
          133 282 21 59 42 vvcurveto
          45 -24 29 -51 vhcurveto
          hintmask 01010000
          -52 -41 -23 -66 -17 hvcurveto
          -9 -36 -4 -69 -130 vvcurveto
          hintmask 01100000
          -86 -293 rmoveto
          -40 30 -33 44 47 43 38 50 vhcurveto
          hintmask 10100000
          40 -31 34 -44 vhcurveto
          hintmask 01100000
          -47 -42 -40 -49 hvcurveto
          endchar
        </CharString>
        <CharString name="exclamdown">
          -167 340 162 106 callsubr
          -2 95 callgsubr
          hintmask 01001000
          197 269 rmoveto
          -45 hlineto
          hintmask 01100000
          71 callgsubr
          hintmask 01001000
          70 callgsubr
          hintmask 01010000
          76 callsubr
          vhcurveto
          hintmask 10010000
          -40 31 -34 44 vhcurveto
          hintmask 01010000
          47 42 40 49 hvcurveto
          endchar
        </CharString>
        <CharString name="exclamdown.cap">
          -167 6 -21 528 162 hstemhm
          35 95 callgsubr
          hintmask 11001000
          234 442 rmoveto
          -45 hlineto
          hintmask 11100000
          71 callgsubr
          hintmask 11001000
          70 callgsubr
          hintmask 11010000
          76 callsubr
          -40 31 -34 44 47 42 40 49 vhcurveto
          endchar
        </CharString>
        <CharString name="f">
          -126 -237 136 523.5 25 callgsubr
          214 43 hstemhm
          -156 673 hintmask 01011000
          387 736 rmoveto
          hintmask 10111000
          -115 -95 -83 -169 -33 hvcurveto
          -76 -10 -9 -47 rlineto
          76 hlineto
          -18 -129 -16 -9 callsubr
          hintmask 01011000
          69 callsubr
          10 callsubr
          endchar
        </CharString>
        <CharString name="f.sups">
          -238 258 88 339 40 -37 38 -7 -20 101 89 -26 26 hstemhm
          -29 445 -253 95 hintmask 01000110
          329 889 rmoveto
          hintmask 00100101
          -32 -29 -10 -18 -25 hvcurveto
          -36 -26 -26 -45 -12 -64 rrcurveto
          hintmask 00010101
          -52 -7 rlineto
          hintmask 10100101
          -6 -31 rlineto
          52 hlineto
          -11 -83 -11 -83 -12 -80 -8 -45 -7 -37 -13 -32 -7 -16 -7 -12 -7 -10 -14 20 rcurveline
          22 -15 -18 14 -22 hhcurveto
          -23 -14 -16 -22 -3 hvcurveto
          -37 15 33 -13 40 hhcurveto
          30 36 15 28 28 hvcurveto
          32 32 19 46 12 63 rrcurveto
          hintmask 01000101
          13 75 11 85 12 84 79 -2 rcurveline
          8 41 rlineto
          -81 hlineto
          1 5 0 4 1 5 13 82 11 28 20 14 rrcurveto
          hintmask 01001010
          17 -28 rlineto
          -22 15 15 -13 21 hhcurveto
          20 21 17 23 3 hvcurveto
          hintmask 01000110
          29 -8 -38 20 -41 hhcurveto
          endchar
        </CharString>
        <CharString name="f_b">
          377 14 callgsubr
          72 339 103 -76.5 25 callgsubr
          213 44 hstemhm
          378 137 196 143 hintmask 11010111
          515 108 rmoveto
          25 8 36 13 57 vhcurveto
          hintmask 11100111
          34 callsubr
          hintmask 11010111
          -31 -16 20 31 hvcurveto
          -124 628 rmoveto
          hintmask 11001111
          -86 callgsubr
          hintmask 11010111
          -35 callgsubr
          5 5 1 2 5 hvcurveto
          -9 -55 -10 -54 -11 -54 -37 -181 rcurveline
          -11 62 callgsubr
          172 187 182 193 vhcurveto
          hintmask 11100111
          47 callgsubr
          hintmask 11010111
          32 -18 -39 22 -52 hhcurveto
          endchar
        </CharString>
        <CharString name="f_f">
          165 41 callgsubr
          -44 44 hstemhm
          -156 964 hintmask 00010110
          19 callsubr
          hintmask 00100110
          -55 callsubr
          rlineto
          hintmask 10010110
          -107 callgsubr
          hintmask 01000110
          69 callsubr
          hintmask 00011010
          10 callsubr
          -68 -62 -30 -59 -45 hvcurveto
          hintmask 00010110
          2 5 1 6 1 6 rrcurveto
          41 -11 -44 31 -61 hhcurveto
          hintmask 10010110
          -23 callgsubr
          153 hlineto
          -18 -129 -16 -101 callsubr
          rrcurveto
          -15 692 rmoveto
          -12 callsubr
          11 10 4 8 9 hvcurveto
          -23 -37 -17 -46 -11 -55 -7 -1 rcurveline
          91 callsubr
          endchar
        </CharString>
        <CharString name="f_f_b">
          669 14 callgsubr
          72 339 103 -76.5 60.5 55 callsubr
          hstemhm
          669 137 196 143 hintmask 1100010111000000
          19 callsubr
          hintmask 1100100111000000
          -55 callsubr
          rlineto
          hintmask 1100010111000000
          -107 callgsubr
          hintmask 1101000111000000
          -36 callsubr
          hintmask 1100011011000000
          -34 callsubr
          5 5 1 2 5 hvcurveto
          -9 -55 -10 -54 -11 -54 -37 -181 rcurveline
          -11 62 callgsubr
          172 187 182 193 vhcurveto
          hintmask 1110001011000000
          47 callgsubr
          32 -18 -39 22 -52 hhcurveto
          -74 -65 -35 -65 -46 hvcurveto
          hintmask 1100010111000000
          -15 callsubr
          415 -628 rmoveto
          25 8 36 13 57 vhcurveto
          hintmask 1110000111000000
          34 callsubr
          hintmask 1100010111000000
          -31 -16 20 31 hvcurveto
          -528 -264 -91 callsubr
          153 hlineto
          -19 -129 -15 -101 callsubr
          rrcurveto
          -15 14 callsubr
          rrcurveto
          hintmask 1100011011000000
          -65 callsubr
          hintmask 1100010111000000
          33 callgsubr
        </CharString>
        <CharString name="f_f_f">
          456 41 callgsubr
          -126 86 callsubr
          1255 hintmask 00011001
          969 736 rmoveto
          -68 -62 -30 -59 -45 hvcurveto
          hintmask 00010101
          2 5 1 6 1 6 rrcurveto
          41 -11 -44 31 -61 hhcurveto
          -74 -65 -35 -65 -46 hvcurveto
          hintmask 00100011
          -15 callsubr
          -55 callsubr
          rlineto
          hintmask 10011001
          -106 callgsubr
          6 6 5 7 6 6 rrcurveto
          -1 -3 -1 -3 -3 vvcurveto
          -93 callgsubr
          48 50 29 70 18 97 rrcurveto
          hintmask 01001001
          69 callsubr
          hintmask 00011001
          10 callsubr
          hintmask 10010011
          -691 -45 callgsubr
          153 hlineto
          -19 -129 -15 -101 callsubr
          rrcurveto
          269 31 -91 callsubr
          153 hlineto
          -18 -129 -16 -101 callsubr
          rrcurveto
          -306 14 callsubr
          rrcurveto
          hintmask 00010101
          -65 callsubr
          hintmask 10010011
          24 callgsubr
          291 hmoveto
          hintmask 00010101
          -12 callsubr
          11 10 4 8 9 hvcurveto
          -23 -37 -17 -46 -11 -55 -7 -1 rcurveline
          -146 hlineto
          hintmask 10010011
          33 callgsubr
        </CharString>
        <CharString name="f_f_h">
          713 53 callsubr
          320 103 -76.5 60.5 55 callsubr
          hstemhm
          -156 1353 -201 149 hintmask 0000010110000000
          19 callsubr
          hintmask 0000100110000000
          -55 callsubr
          rlineto
          hintmask 1000010110000000
          -107 callgsubr
          hintmask 0001000110000000
          -36 callsubr
          hintmask 0000011010000000
          -34 callsubr
          7 7 2 3 6 hvcurveto
          -11 -63 -14 -74 -12 -53 -89 -421 rcurveline
          15 -12 130 8 11 72 12 57 18 86 rlinecurve
          hintmask 0010000110000000
          25 119 rlineto
          hintmask 0110001001000000
          -41 callgsubr
          79 callsubr
          -74 -65 -35 -65 -46 hvcurveto
          hintmask 0000010110000000
          -15 callsubr
          hintmask 1000010110000000
          -69 callsubr
          hintmask 0000011010000000
          -65 callsubr
          hintmask 1000010110000000
          33 callgsubr
        </CharString>
        <CharString name="f_f_i">
          433 53 callsubr
          348 59 55 callsubr
          -42 42 hstemhm
          -156 1072 hintmask 0010001010000000
          19 callsubr
          hintmask 0001001010000000
          -55 callsubr
          rlineto
          hintmask 1000101010000000
          -107 callgsubr
          hintmask 0110000110000000
          21 callgsubr
          56 callgsubr
          80 callgsubr
          3 14 4 18 hvcurveto
          75 347 -16 14 11 callgsubr
          51 callsubr
          -7 -1 rlineto
          91 callsubr
          hintmask 0010001010000000
          86 callgsubr
          hintmask 0010010010000000
          20 -34 rlineto
          -35 callsubr
          24 23 22 32 4 hvcurveto
          hintmask 0010001010000000
          41 -11 -44 31 -61 hhcurveto
          hintmask 1000101010000000
          -23 callgsubr
          154 41 callsubr
          rrcurveto
          endchar
        </CharString>
        <CharString name="f_f_j">
          405 -237 136 525 59 55 callsubr
          -41 41 hstemhm
          -156 1032 hintmask 01000101
          19 callsubr
          hintmask 00100101
          -55 callsubr
          rlineto
          hintmask 10010101
          -107 callgsubr
          hintmask 01000011
          22 120 18 132 18 126 155 -2 rcurveline
          -68 -372 -20 -107 -15 -57 -24 -34 rlinecurve
          -20 -30 -23 -14 -31 -12 6 -33 rcurveline
          23 callgsubr
          84 422 rcurveline
          -17 15 -71 -17 rlineto
          -215 hlineto
          3 1 4 3 vvcurveto
          19 123 60 66 56 13 31 -42 rcurveline
          -31 23 21 -22 35 hhcurveto
          33 20 19 36 4 hvcurveto
          47 -14 -60 34 -78 hhcurveto
          51 callsubr
          -7 -1 rlineto
          91 callsubr
          hintmask 01000101
          86 callgsubr
          hintmask 01001001
          20 -34 rlineto
          -35 callsubr
          24 23 22 32 4 hvcurveto
          hintmask 01000101
          41 -11 -44 31 -61 hhcurveto
          hintmask 10010101
          -23 callgsubr
          154 41 callsubr
          rrcurveto
          endchar
        </CharString>
        <CharString name="f_f_k">
          661 14 callgsubr
          51 207 22.5 157 60.5 55 callsubr
          hstemhm
          -156 1305 hintmask 0000010110000000
          19 callsubr
          hintmask 0000100110000000
          -55 callsubr
          rlineto
          hintmask 1000010110000000
          -107 callgsubr
          hintmask 0001000110000000
          -36 callsubr
          hintmask 0110011010000000
          -66 callgsubr
          34 -17 -40 23 -53 hhcurveto
          -74 -65 -35 -65 -46 hvcurveto
          hintmask 0000010110000000
          -15 callsubr
          hintmask 1000010110000000
          -69 callsubr
          hintmask 0000011010000000
          -65 callsubr
          hintmask 1000010110000000
          33 callgsubr
        </CharString>
        <CharString name="f_f_l">
          436 53 callsubr
          346.5 60.5 55 callsubr
          hstemhm
          -156 1086 -273 146 hintmask 0000101100000000
          19 callsubr
          hintmask 0001001100000000
          -55 callsubr
          rlineto
          hintmask 1000101100000000
          -107 callgsubr
          hintmask 0010001100000000
          -36 callsubr
          hintmask 0000110100000000
          31 callgsubr
          5 1 3 5 hvcurveto
          hintmask 0100110010000000
          34 callgsubr
          27 callgsubr
          -11 -7 20 callgsubr
          5 19 hvcurveto
          120 567 -15 12 -123 -40 rlineto
          79 callsubr
          -74 -65 -35 -65 -46 hvcurveto
          hintmask 0000101100000000
          -15 callsubr
          hintmask 1000101100000000
          -69 callsubr
          hintmask 0000110100000000
          -65 callsubr
          hintmask 1000101100000000
          33 callgsubr
        </CharString>
        <CharString name="f_f_t">
          456 53 callsubr
          346.5 -6 callgsubr
          -57 57 64 callgsubr
          11 -11 86 callsubr
          1130 -328 147 hintmask 0000010011000000
          19 callsubr
          hintmask 0000100011000000
          -55 callsubr
          rlineto
          hintmask 1000010011000000
          -107 callgsubr
          hintmask 0100010010100000
          22 118 17 130 19 132 rrcurveto
          81 -1 75 hlineto
          -60 -273 rlineto
          2 callgsubr
          -27 callsubr
          hintmask 0010000011000000
          59 284 105 -3 rlineto
          hintmask 0001001011000000
          11 62 rlineto
          -104 hlineto
          29 138 rlineto
          -92 hlineto
          hintmask 0000010101000000
          -66 -136 -17 -2 rlineto
          -151 -20 callgsubr
          24 23 22 32 4 hvcurveto
          41 -11 -44 31 -61 hhcurveto
          -74 -65 -35 -65 -46 hvcurveto
          hintmask 0000010011000000
          -15 callsubr
          -106 -231 rmoveto
          86 callgsubr
          hintmask 0000010101000000
          -65 callsubr
          hintmask 0000010011000000
          24 callgsubr
          hintmask 1000010011000000
          -7 -661 -91 callsubr
          153 hlineto
          -19 -129 -15 -101 callsubr
          rrcurveto
          endchar
        </CharString>
        <CharString name="f_h">
          422 53 callsubr
          320 103 -76.5 25 callgsubr
          213 44 hstemhm
          -156 1062 -201 149 hintmask 00010110
          19 callsubr
          hintmask 10001110
          -86 callgsubr
          hintmask 00010110
          -35 callgsubr
          7 7 2 3 6 hvcurveto
          -11 -63 -14 -74 -12 -53 -89 -421 rcurveline
          15 -12 130 8 11 72 12 57 18 86 rlinecurve
          hintmask 00100110
          25 119 rlineto
          hintmask 01100101
          -41 callgsubr
          hintmask 00010110
          79 callsubr
          endchar
        </CharString>
        <CharString name="f_i">
          142 53 callsubr
          -70 -21 439 59 -56 52 21 -20 214 42 hstemhm
          -156 781 hintmask 10110011
          433 736 rmoveto
          hintmask 10101011
          51 callsubr
          -76 -10 -9 -47 rlineto
          77 hlineto
          -18 -129 -17 -9 callsubr
          hintmask 10110011
          21 callgsubr
          hintmask 11000111
          56 callgsubr
          80 callgsubr
          3 14 4 18 hvcurveto
          75 347 -16 14 rlineto
          hintmask 10110011
          11 callgsubr
          endchar
        </CharString>
        <CharString name="f_j">
          114 -237 136 525 59 -56 52 216 41 hstemhm
          -156 741 hintmask 01011000
          433 736 rmoveto
          hintmask 10111000
          51 callsubr
          -76 -10 -9 -47 rlineto
          77 hlineto
          -18 -129 -17 -9 callsubr
          hintmask 01011000
          22 120 18 132 18 126 155 -2 rcurveline
          -68 -372 -20 -107 -15 -57 -24 -34 rlinecurve
          -20 -30 -23 -14 -31 -12 6 -33 rcurveline
          23 callgsubr
          84 422 rcurveline
          -17 15 -71 -17 rlineto
          -215 hlineto
          3 1 4 3 vvcurveto
          19 123 60 66 56 13 31 -42 rcurveline
          -31 23 21 -22 35 hhcurveto
          33 20 19 36 4 hvcurveto
          47 -14 -60 34 -78 hhcurveto
          endchar
        </CharString>
        <CharString name="f_k">
          370 14 callgsubr
          51 207 22.5 157 25 callgsubr
          213 44 hstemhm
          -156 1014 hintmask 00010110
          19 callsubr
          hintmask 10001110
          -86 callgsubr
          hintmask 01110110
          22 117 17 129 19 131 116 -3 rcurveline
          -66 callgsubr
          hintmask 00010110
          34 -17 -40 23 -53 hhcurveto
          endchar
        </CharString>
        <CharString name="f_l">
          145 -237 136 86 37 callsubr
          -56 52 213 44 -17 -20 hstemhm
          -156 795 -273 146 hintmask 1010110100000000
          19 callsubr
          -86 callgsubr
          hintmask 0011010010000000
          -35 callgsubr
          6 5 1 3 5 hvcurveto
          34 callgsubr
          hintmask 0101001010000000
          27 callgsubr
          -11 -7 20 callgsubr
          5 19 hvcurveto
          120 567 -15 12 rlineto
          hintmask 0011010010000000
          -123 -40 rlineto
          hintmask 1010110100000000
          79 callsubr
          endchar
        </CharString>
        <CharString name="f_t">
          165 -237 136 86 66 callsubr
          57 64 callgsubr
          11 -11 86 callsubr
          839 -328 147 hintmask 0010100001100000
          19 callsubr
          hintmask 0010010001100000
          -55 callsubr
          rlineto
          hintmask 1010001001100000
          -105 callsubr
          48 50 29 70 18 97 rrcurveto
          hintmask 0010100001010000
          22 118 17 130 19 132 rrcurveto
          81 -1 75 hlineto
          -60 -273 rlineto
          2 callgsubr
          hintmask 0101000001010000
          -27 callsubr
          59 284 105 -3 rlineto
          hintmask 0010100101100000
          11 62 rlineto
          -104 hlineto
          29 138 rlineto
          -92 hlineto
          -66 -136 -17 -2 rlineto
          -151 -29 callgsubr
          86 callgsubr
          hintmask 0010100010100000
          20 -34 rlineto
          -35 callsubr
          24 23 22 32 4 hvcurveto
          hintmask 0010100001100000
          41 -11 -44 31 -61 hhcurveto
          endchar
        </CharString>
        <CharString name="figuredash">
          73 209 90 hstem
          57 462 vstem
          57 209 rmoveto
          462 90 -462 hlineto
          endchar
        </CharString>
        <CharString name="five">
          77 -15 53 282 63 68 callsubr
          hstem
          58 38 callsubr
          225 -43 callgsubr
        </CharString>
        <CharString name="five.cap">
          57 -15 53 300 63 140 116 hstem
          48 38 callsubr
          215 -15 rmoveto
          153 121 89 143 111 -73 73 -118 -33 -39 -9 -14 -34 hvcurveto
          44 163 rlineto
          286 hlineto
          23 116 rlineto
          -335 hlineto
          -84 -327 34 -15 rlineto
          13 21 26 10 38 hhcurveto
          65 36 -51 -80 -109 -67 -59 -71 -1 hvcurveto
          -16 -14 1 2 -11 hvcurveto
          -3 58 rlineto
          60 -3 -10 27 -46 hhcurveto
          -25 -20 -11 -25 -12 hvcurveto
          -103 -7 66 -62 108 hhcurveto
          endchar
        </CharString>
        <CharString name="five.dnom">
          -99 -9 63 callgsubr
          23 88 100 110 vstem
          143 -9 -89 callgsubr
        </CharString>
        <CharString name="five.lf">
          57 -15 53 282 63 68 callsubr
          hstem
          48 38 callsubr
          215 -43 callgsubr
        </CharString>
        <CharString name="five.numr">
          -99 237 63 callgsubr
          74 88 100 110 vstem
          194 237 -89 callgsubr
        </CharString>
        <CharString name="five.osf">
          13 83 callsubr
          321 143 vstem
          187 -37 callsubr
        </CharString>
        <CharString name="five.subs">
          -99 -212 63 callgsubr
          -21 88 100 110 vstem
          99 -212 -89 callgsubr
        </CharString>
        <CharString name="five.sups">
          -99 403 63 callgsubr
          110 88 100 110 vstem
          230 403 -89 callgsubr
        </CharString>
        <CharString name="five.tosf">
          77 83 callsubr
          360 143 vstem
          226 -37 callsubr
        </CharString>
        <CharString name="fiveeighths">
          401 -9 36 210 37 88 37 42 46 70 78 106 callsubr
          74 88 100 110 155 15 callgsubr
          hintmask 1111101110010000
          241 -21 rmoveto
          hintmask 1111011110010000
          484 635 -46 35 -484 -635 rlineto
          -1 223 rmoveto
          105 73 56 85 65 -50 44 -77 -23 -28 -6 -12 -24 hvcurveto
          hintmask 1111101110010000
          22 88 rlineto
          197 hlineto
          16 78 rlineto
          -231 hlineto
          -51 -199 24 -12 rlineto
          10 14 15 7 24 hhcurveto
          40 22 -29 -42 -62 -41 -33 -40 -1 hvcurveto
          -7 -6 0 -5 hhcurveto
          -2 36 rlineto
          39 -3 -7 19 -34 hhcurveto
          -20 -14 -8 -17 -9 hvcurveto
          hintmask 1111011110010000
          -65 -6 47 -41 79 hhcurveto
          hintmask 1111101101010000
          465 80 -68 callsubr
          hintmask 1111101110100000
          -42 callgsubr
          hintmask 1111101101010000
          -65 callgsubr
          hintmask 1111101110010000
          -67 -28 -36 -32 -49 vvcurveto
          hintmask 1111101110100000
          -86 callsubr
        </CharString>
        <CharString name="four">
          77 145 89 hstem
          33 508 vstem
          525 -6 callsubr
        </CharString>
        <CharString name="four.cap">
          63 145 89 hstem
          28 508 vstem
          520 145 rmoveto
          16 89 rlineto
          -99 hlineto
          89 434 rlineto
          -106 hlineto
          -373 -432 -19 -91 rlineto
          266 hlineto
          -34 -165 rlineto
          125 hlineto
          34 165 rlineto
          -309 89 rmoveto
          266 310 -64 -310 rlineto
          endchar
        </CharString>
        <CharString name="four.dnom">
          -99 98 callsubr
          hstemhm
          6 336 hintmask 01100000
          331 81 rmoveto
          hintmask 10100000
          -1 callgsubr
          hintmask 01100000
          6 callgsubr
          hintmask 10100000
          -18 -91 rlineto
          98 hlineto
          hintmask 01100000
          18 91 rlineto
          hintmask 10100000
          -205 64 rmoveto
          152 160 -32 -160 rlineto
          endchar
        </CharString>
        <CharString name="four.lf">
          63 145 89 hstem
          28 508 vstem
          520 -6 callsubr
        </CharString>
        <CharString name="four.numr">
          -99 327 64 246 -20 hstem
          57 336 vstem
          382 327 -42 callsubr
        </CharString>
        <CharString name="four.osf">
          94 37 90 399 -20 hstem
          27 521 vstem
          531 -5 callgsubr
        </CharString>
        <CharString name="four.subs">
          -99 -122 64 hstem
          -38 336 vstem
          287 -122 -42 callsubr
        </CharString>
        <CharString name="four.sups">
          -99 493 64 hstem
          93 336 vstem
          418 493 -42 callsubr
        </CharString>
        <CharString name="four.tosf">
          77 37 90 399 -20 hstem
          19 521 vstem
          523 -5 callgsubr
        </CharString>
        <CharString name="fraction">
          -344 -21 670 hstem
          -173 530 vstem
          -127 -64 callsubr
          endchar
        </CharString>
        <CharString name="g">
          -24 callgsubr
          56 callsubr
          149 127 hintmask 1011100110000000
          17 callgsubr
          hintmask 1011101010000000
          22 callgsubr
          hintmask 1101110010000000
          -28 callsubr
          hintmask 1101101010000000
          -85 callsubr
          hintmask 1011100110000000
          -119 -95 -96 -109 hvcurveto
          hintmask 1101110010000000
          -46 callsubr
          endchar
        </CharString>
        <CharString name="g.sups">
          -102 259 38 98 71 43 27 171 28 hstemhm
          55 74 -28 73 -48 85 89 166 -151 82 hintmask 1111100010000000
          129 347 rmoveto
          20 10 15 16 13 vhcurveto
          2 1 0 1 hhcurveto
          90 -8 rlineto
          48 -5 18 -14 -22 vvcurveto
          -30 -35 -19 -63 -54 -34 19 31 vhcurveto
          hintmask 1011001100000000
          124 189 rmoveto
          -30 -12 39 39 57 17 36 32 24 16 -28 -47 -74 -22 -22 -25 hvcurveto
          -127 66 rmoveto
          -27 13 -28 25 -17 vhcurveto
          hintmask 1011010010000000
          -39 -24 -24 -23 -35 vvcurveto
          -19 10 -17 20 -10 vhcurveto
          hintmask 1111100010000000
          -40 -17 -36 -27 -34 vvcurveto
          -43 48 -22 77 125 92 53 71 42 -25 30 -76 7 vhcurveto
          hintmask 1111010100000000
          -89 8 rlineto
          -26 2 -7 12 11 vvcurveto
          7 1 5 10 11 vhcurveto
          -6 14 17 -3 18 hhcurveto
          87 39 47 75 19 hvcurveto
          3 11 2 11 3 9 rrcurveto
          42 8 37 18 38 vvcurveto
          6 -1 5 -1 5 vhcurveto
          7 -7 -12 3 -12 hhcurveto
          -31 -24 -22 -54 -13 hvcurveto
          32 -11 -35 27 -50 hhcurveto
          hintmask 1011001100000000
          -81 -62 -62 -71 hvcurveto
          endchar
        </CharString>
        <CharString name="gbreve">
          -24 callgsubr
          64 90 65 -20 21 -20 32 -20 56 callsubr
          149 127 hintmask 1011110010011000
          17 callgsubr
          hintmask 1011110010101000
          22 callgsubr
          hintmask 1101110011001000
          -28 callsubr
          hintmask 1101110010101000
          -85 callsubr
          hintmask 1011110010011000
          -119 -95 -96 -109 hvcurveto
          hintmask 1101110101001000
          -46 callsubr
          252 661 rmoveto
          108 53 88 68 17 hvcurveto
          hintmask 1011110010011000
          9 callgsubr
          hintmask 1011111000011000
          -43 -13 rlineto
          hintmask 1101110101001000
          -88 46 -67 100 vhcurveto
          endchar
        </CharString>
        <CharString name="gdotaccent">
          -24 callgsubr
          56 callsubr
          54 147 -52 127 hintmask 1011100101000000
          269 192 -19 callsubr
          hintmask 1011100110000000
          59 402 -40 callsubr
          -249 -300 -79 callgsubr
        </CharString>
        <CharString name="germandbls">
          116 14 callgsubr
          40 675 36 hstemhm
          316 109 35 124 -103 121 hintmask 11110100
          78 47 rmoveto
          -14 callsubr
          rrcurveto
          130 19 47 65 70 hhcurveto
          39 24 -27 -44 -48 -18 -34 -47 -47 hvcurveto
          -54 -53 -46 -45 -61 vvcurveto
          -64 28 -42 52 -45 vhcurveto
          hintmask 11111000
          46 -39 18 -27 -30 vvcurveto
          -40 -26 -29 -48 vhcurveto
          -11 46 rlineto
          43 -10 -23 16 -29 hhcurveto
          -32 -17 -18 -31 -6 hvcurveto
          -66 12 47 -30 85 hhcurveto
          111 71 66 81 64 -24 35 -56 50 hvcurveto
          -52 47 -27 39 46 vvcurveto
          31 17 25 30 18 vhcurveto
          hintmask 11110100
          74 44 56 32 70 vvcurveto
          67 -60 37 -121 -1 vhcurveto
          -141 -1 -116 -77 -29 -206 -19 -137 -18 -136 -20 -132 rrcurveto
          endchar
        </CharString>
        <CharString name="grave">
          -69 73 callgsubr
          187 186 vstem
          373 557 -88 callgsubr
        </CharString>
        <CharString name="gravecmb.cap">
          700 180 hstem
          -74 238 vstem
          164 734 -75 callsubr
        </CharString>
        <CharString name="greater">
          75 85 477 hstem
          82 434 vstem
          516 358 rmoveto
          -393 204 -41 -81 323 -157 -323 -158 41 -81 393 204 rlineto
          endchar
        </CharString>
        <CharString name="greaterequal">
          75 0 82 hstem
          72 448 vstem
          72 hmoveto
          448 82 -448 hlineto
          434 225 rmoveto
          65 vlineto
          -389 182 -34 -76 307 -138 -307 -139 34 -77 rlineto
          endchar
        </CharString>
        <CharString name="guillemotleft">
          141 30 445 hstem
          68 529 vstem
          275 30 -49 callsubr
          436 -190 -49 callsubr
          endchar
        </CharString>
        <CharString name="guillemotleft.cap">
          141 71 445 hstem
          77 529 vstem
          284 71 -49 callsubr
          436 -190 -49 callsubr
          endchar
        </CharString>
        <CharString name="guillemotright">
          141 30 445 hstem
          46 529 vstem
          368 475 -48 callgsubr
          -436 190 -48 callgsubr
          endchar
        </CharString>
        <CharString name="guillemotright.cap">
          141 71 445 hstem
          55 529 vstem
          377 516 -48 callgsubr
          -436 190 -48 callgsubr
          endchar
        </CharString>
        <CharString name="guilsinglleft">
          -88 30 445 hstem
          68 300 vstem
          275 30 -49 callsubr
          endchar
        </CharString>
        <CharString name="guilsinglleft.cap">
          -88 71 445 hstem
          77 300 vstem
          284 71 -49 callsubr
          endchar
        </CharString>
        <CharString name="guilsinglright">
          -88 30 445 hstem
          46 300 vstem
          139 475 -48 callgsubr
          endchar
        </CharString>
        <CharString name="guilsinglright.cap">
          -88 71 445 hstem
          55 300 vstem
          148 516 -48 callgsubr
          endchar
        </CharString>
        <CharString name="h">
          110 89 callgsubr
          28 -21 507 103 callgsubr
          38 556 -201 149 hintmask 00111100
          53 -8 rmoveto
          130 8 11 72 12 57 18 86 rlinecurve
          26 119 rlineto
          hintmask 01011010
          43 47 40 19 29 hhcurveto
          16 61 callsubr
          -38 -150 rlineto
          -8 -30 -8 -33 -30 vvcurveto
          -40 26 -23 48 85 70 90 callgsubr
          hintmask 10011010
          -31 20 rlineto
          -41 -31 -25 -21 -18 hhcurveto
          -9 -6 7 13 10 4 14 4 19 hvcurveto
          48 189 rlineto
          8 31 4 29 27 vvcurveto
          56 -32 28 -44 -64 -73 -41 -70 -70 vhcurveto
          68 319 -14 12 -211 -63 -6 -38 68 -7 -10 -62 -13 -62 -13 -62 rlinecurve
          hintmask 01011100
          -90 -421 rlineto
          endchar
        </CharString>
        <CharString name="h.sups">
          -76 39 callsubr
          188 66 75 26 hstemhm
          294 97 -53 97 hintmask 10111100
          113 406 rmoveto
          84 5 7 47 8 37 11 56 rlinecurve
          hintmask 10111010
          16 76 rlineto
          29 33 27 13 21 hhcurveto
          10 8 -7 -14 -10 -4 -18 -5 -20 hvcurveto
          hintmask 10111100
          35 callgsubr
          hintmask 01011100
          57 46 42 44 26 hvcurveto
          hintmask 10111100
          -21 13 rlineto
          -27 -21 -17 -13 -12 hhcurveto
          -13 0 11 30 8 hvcurveto
          hintmask 10111010
          66 callgsubr
          -43 -49 -27 -44 -46 vhcurveto
          43 206 -9 8 -140 -42 -3 -24 47 -4 -7 -41 -8 -40 -9 -41 rlinecurve
          -57 -272 rlineto
          endchar
        </CharString>
        <CharString name="horizontalbar.cap">
          370 46 callgsubr
        </CharString>
        <CharString name="hungarumlaut">
          -69 553 233 hstem
          128 362 vstem
          128 580 -75 callgsubr
        </CharString>
        <CharString name="hungarumlautcmb.cap">
          699 194 hstem
          -22 371 vstem
          -22 725 -53 callgsubr
        </CharString>
        <CharString name="hyphen">
          -124 209 90 hstem
          50 259 vstem
          50 209 107 callgsubr
        </CharString>
        <CharString name="hyphen.cap">
          -124 260 90 hstem
          61 259 vstem
          61 260 107 callgsubr
        </CharString>
        <CharString name="hyphen.sups">
          -235 98 callgsubr
          175 97 callsubr
          175 64 -175 hlineto
          endchar
        </CharString>
        <CharString name="i">
          -8 callgsubr
          113 156 hstemhm
          68 147 -39 159 -62 callgsubr
          hintmask 01110100
          181 542 -8 callsubr
          endchar
        </CharString>
        <CharString name="i.sups">
          -252 39 callsubr
          186 27 33 -20 89 102 hstemhm
          121 95 -20 104 hintmask 10111110
          121 445 rmoveto
          -28 20 -15 30 vhcurveto
          hintmask 01011110
          58 41 100 callgsubr
          hintmask 10111110
          -21 13 rlineto
          -27 -22 -15 -13 -10 hhcurveto
          -15 0 13 24 5 hvcurveto
          50 229 -11 9 -140 -42 -4 -25 49 -4 -33 -156 rlineto
          -4 -19 -5 -28 -17 vvcurveto
          hintmask 10111101
          123 351 50 callsubr
          endchar
        </CharString>
        <CharString name="i.trk">
          -8 callgsubr
          113 156 hstemhm
          68 147 -39 159 -62 callgsubr
          hintmask 01110100
          181 542 -8 callsubr
          endchar
        </CharString>
        <CharString name="iacute">
          -72 callgsubr
          148 507 -102 callsubr
        </CharString>
        <CharString name="icircumflex">
          -72 callgsubr
          301 494 -62 callsubr
        </CharString>
        <CharString name="idieresis">
          -8 callgsubr
          114 143 hstemhm
          68 147 -132 144 79 143 hintmask 01111010
          19 callgsubr
          hintmask 10111010
          -54 callsubr
          hintmask 01111010
          7 callgsubr
          hintmask 01110110
          81 543 -94 callsubr
        </CharString>
        <CharString name="igrave">
          -72 callgsubr
          184 506 -88 callgsubr
        </CharString>
        <CharString name="imacron">
          -8 callgsubr
          119 81 hstemhm
          68 147 -62 callgsubr
          16 548 -26 callsubr
        </CharString>
        <CharString name="infinity">
          339 135 90 -90 116 142 117 -91 91 hstemhm
          92 57 566 57 hintmask 10101100
          149 312 rmoveto
          51 33 30 46 50 44 -40 -70 50 vhcurveto
          -42 -42 -35 -16 -44 hhcurveto
          -60 -42 32 55 hvcurveto
          hintmask 01011100
          464 107 rmoveto
          61 41 -32 -55 -51 -33 -30 -46 -50 -44 41 69 -50 hvcurveto
          42 42 35 16 44 hhcurveto
          159 -89 rmoveto
          111 -61 69 -83 -63 -52 -32 -79 -49 vhcurveto
          hintmask 10101100
          64 -49 -60 47 -89 hhcurveto
          -107 -67 -86 -110 -110 61 -69 83 63 52 32 79 49 hvcurveto
          hintmask 01011100
          -64 49 60 -47 89 hhcurveto
          107 67 85 110 hvcurveto
          endchar
        </CharString>
        <CharString name="integral">
          -63 -236 52 -52 142 714 142 -51 51 hstemhm
          -93 612 hintmask 10011000
          150 265 rmoveto
          -8 -134 -6 -70 -11 -71 -11 -64 -22 -76 -61 -34 rrcurveto
          hintmask 01011000
          -9 34 rlineto
          48 -12 -18 8 -27 hhcurveto
          -29 -24 -23 -42 -5 hvcurveto
          hintmask 10011000
          -49 7 36 -28 58 hhcurveto
          108 103 111 178 32 hvcurveto
          10 55 12 69 6 99 11 152 3 56 8 52 12 72 22 71 60 32 rrcurveto
          hintmask 10101000
          9 -35 rlineto
          -47 12 18 -9 27 hhcurveto
          29 23 23 42 6 hvcurveto
          hintmask 10011000
          49 -8 -36 28 -58 hhcurveto
          -109 -102 -114 -177 -32 hvcurveto
          -6 -36 -9 -55 -9 -115 rrcurveto
          endchar
        </CharString>
        <CharString name="iogonek">
          -150 -234 64 176 -21 24 -21 512 -20 113 156 hstemhm
          81 94 1 159 hintmask 10111010
          249 593 -8 callsubr
          hintmask 11011100
          -181 -542 rmoveto
          -43 30 -23 47 10 11 1 2 11 vhcurveto
          -56 -50 -40 -46 -50 vvcurveto
          -46 31 -30 58 55 40 27 28 27 vhcurveto
          -16 27 rlineto
          -11 -18 -19 -7 -20 hhcurveto
          -26 -18 16 33 43 26 44 56 57 hvcurveto
          29 29 27 31 21 35 -30 20 rcurveline
          -52 callgsubr
          70 -7 -50 -241 rlineto
          7 callgsubr
          endchar
        </CharString>
        <CharString name="j">
          -178 500 -20 113 156 hstem
          176 159 vstem
          249 593 -8 callsubr
          -307 -829 1 callgsubr
        </CharString>
        <CharString name="j.sups">
          -266 726 -20 90 102 hstem
          196 104 vstem
          244 796 50 callsubr
          -208 -538 rmoveto
          51 3 38 22 27 30 27 30 20 42 14 68 54 273 rcurveline
          -12 10 -137 -42 -4 -25 49 -5 -42 -220 -13 -68 -10 -38 -16 -22 rlinecurve
          -14 -19 -15 -9 -21 -9 rrcurveto
          endchar
        </CharString>
        <CharString name="k">
          59 -15 40 callsubr
          38 509 hintmask 01011110
          38 4 rmoveto
          hintmask 00111110
          42 callsubr
          hintmask 01011110
          60 callsubr
          hintmask 10011110
          -20 callsubr
          endchar
        </CharString>
        <CharString name="k.sups">
          -105 402 33 135 13.5 147.5 -20 99 26 hstem
          102 336 vstem
          102 414 rmoveto
          9 -8 85 5 7 47 7 37 13 56 rlinecurve
          4 19 13 -7 6 -11 10 -30 rlinecurve
          21 -57 rlineto
          -51 18 29 -12 41 hhcurveto
          23 20 3 6 20 hvcurveto
          3 23 -20 2 -17 3 -9 8 -12 24 rlinecurve
          -20 47 -17 39 -30 22 -43 3 rlinecurve
          -27 3 141 46 rlineto
          42 12 19 15 26 vvcurveto
          24 -18 20 -26 3 vhcurveto
          -161 -131 57 270 -9 82 callgsubr
          -40 -9 -41 rlinecurve
          endchar
        </CharString>
        <CharString name="l">
          -162 29 callsubr
          hintmask 01110000
          136 -15 33 callsubr
          hintmask 10110000
          -83 callsubr
          hintmask 01110000
          73 callsubr
          endchar
        </CharString>
        <CharString name="l.sups">
          -259 39 callsubr
          329 26 hstemhm
          116 96 hintmask 10111000
          167 402 rmoveto
          hintmask 01011000
          57 41 42 44 26 hvcurveto
          hintmask 10111000
          -19 13 rlineto
          -27 -23 -15 -13 -11 hhcurveto
          -12 -2 12 28 6 hvcurveto
          78 369 -10 82 callgsubr
          -41 -8 -40 rlinecurve
          -33 -161 rlineto
          -9 -39 -4 -22 -19 vvcurveto
          -28 20 -15 31 vhcurveto
          endchar
        </CharString>
        <CharString name="lacute">
          -162 29 callsubr
          hintmask 01110000
          136 -15 33 callsubr
          hintmask 10110000
          -83 callsubr
          hintmask 01110000
          73 callsubr
          76 785 -102 callgsubr
        </CharString>
        <CharString name="lcaron">
          -120 29 callsubr
          -146 444 hintmask 01101000
          456 30 callsubr
          hintmask 01110000
          -320 -758 33 callsubr
          hintmask 10110000
          -83 callsubr
          hintmask 01110000
          73 callsubr
          endchar
        </CharString>
        <CharString name="ldot">
          -84 89 callgsubr
          288 174 272 -20 hstemhm
          59 146 86 179 hintmask 01111100
          136 -15 33 callsubr
          hintmask 10111100
          -83 callsubr
          hintmask 01111100
          73 callsubr
          237 288 -39 callgsubr
          endchar
        </CharString>
        <CharString name="less">
          75 85 477 hstem
          69 434 vstem
          69 289 rmoveto
          393 -204 41 81 -323 158 323 157 -41 81 -393 -204 rlineto
          endchar
        </CharString>
        <CharString name="lessequal">
          75 0 82 hstem
          59 448 vstem
          507 hmoveto
          82 -448 -82 vlineto
          14 307 rmoveto
          389 -183 34 77 -307 139 307 138 -34 76 -389 -182 rlineto
          endchar
        </CharString>
        <CharString name="logicalnot">
          75 317 82 hstem
          430 86 vstem
          60 317 rmoveto
          370 -165 86 247 -456 hlineto
          endchar
        </CharString>
        <CharString name="longs">
          -133 -237 136 701 136 hstem
          -160 674 vstem
          383 736 rmoveto
          -49 -43 -15 -28 -37 hvcurveto
          -61 -45 -41 -78 -17 -118 -20 -137 -17 -136 -20 -132 -14 callsubr
          18 125 17 43 28 23 26 -43 rcurveline
          -33 21 23 -20 32 hhcurveto
          30 33 25 35 4 hvcurveto
          45 -12 -57 31 -62 hhcurveto
          endchar
        </CharString>
        <CharString name="lozenge">
          140 -69 790 hstem
          35 556 vstem
          482 325 rmoveto
          -168 -273 -169 273 169 274 rlineto
          277 -274 rmoveto
          -259 396 rlineto
          -38 hlineto
          -259 -396 259 -394 rlineto
          38 hlineto
          endchar
        </CharString>
        <CharString name="lslash">
          -162 29 callsubr
          hintmask 01110000
          136 -15 33 callsubr
          hintmask 10110000
          27 callgsubr
          -10 -8 20 callgsubr
          5 19 hvcurveto
          48 226 86 43 15 74 -86 -43 57 267 -15 12 -213 -63 -5 -38 67 -7 -10 -62 -13 -63 -13 -61 rlinecurve
          -10 -49 -81 -41 -15 -74 80 41 -26 -128 rlineto
          28 callgsubr
          hintmask 01110000
          73 callsubr
          endchar
        </CharString>
        <CharString name="m">
          393 89 callgsubr
          28 -21 404 103 0 -20 21 -20 hstemhm
          51 826 -475 150 124 150 hintmask 0010011000000000
          195 hmoveto
          14 72 13 71 15 71 rrcurveto
          hintmask 0011001000000000
          27 125 rlineto
          hintmask 0101000100000000
          39 45 38 18 29 hhcurveto
          14 12 -9 -20 -16 -5 -23 -6 -26 hvcurveto
          -62 -298 rlineto
          hintmask 0011000010000000
          87 callsubr
          13 72 14 71 15 71 rlinecurve
          26 124 rlineto
          40 44 37 18 28 60 callgsubr
          hintmask 0100010010000000
          -8 -30 -9 -33 -30 vvcurveto
          -40 27 -23 47 87 67 65 68 40 vhcurveto
          hintmask 1000100110000000
          -7 callsubr
          -24 -20 -63 callgsubr
          -62 -70 -39 -66 -67 vhcurveto
          1 7 0 7 7 vvcurveto
          56 -33 28 -44 -62 -70 -39 -64 -67 vhcurveto
          hintmask 0100011000000000
          17 88 -14 callgsubr
          hintmask 0010011000000000
          14 -12 rlineto
          endchar
        </CharString>
        <CharString name="m.sups">
          111 39 callsubr
          188 66 -10 -20 hstemhm
          342 97 43 97 -54 98 hintmask 10101110
          77 callsubr
          hintmask 10110101
          17 79 rlineto
          27 30 27 12 20 hhcurveto
          10 7 -7 -13 -10 -2 -15 -4 -17 hvcurveto
          -41 -193 9 -8 84 5 9 47 9 46 10 47 rlinecurve
          17 80 rlineto
          26 31 24 12 19 hhcurveto
          11 7 -7 -14 hvcurveto
          1 -10 -4 -18 -5 -20 rrcurveto
          hintmask 10101110
          35 callgsubr
          hintmask 01001110
          57 44 100 callgsubr
          hintmask 10101110
          -20 13 rlineto
          -27 -22 -16 -13 -11 hhcurveto
          -14 0 11 24 6 hvcurveto
          hintmask 10110101
          32 129 rlineto
          5 20 4 19 17 vvcurveto
          36 -22 18 -29 -42 -47 -26 -43 -45 vhcurveto
          1 5 0 5 5 vvcurveto
          36 1 -22 18 -30 hhcurveto
          -41 -47 -26 -41 -45 hvcurveto
          hintmask 10101110
          11 57 55 callgsubr
        </CharString>
        <CharString name="macron">
          -69 599 81 hstem
          126 323 vstem
          126 599 -26 callsubr
        </CharString>
        <CharString name="macroncmb.cap">
          732 81 hstem
          -44 337 vstem
          -44 732 5 callgsubr
          endchar
        </CharString>
        <CharString name="minus">
          75 282 82 hstem
          62 455 vstem
          517 282 79 callgsubr
          endchar
        </CharString>
        <CharString name="multiply">
          75 103 440 hstem
          70 439 vstem
          449 103 rmoveto
          60 60 -159 160 159 159 -60 61 -159 -160 -160 160 -60 -61 159 -159 -159 -160 60 -60 160 160 rlineto
          endchar
        </CharString>
        <CharString name="n">
          -95 callsubr
          endchar
        </CharString>
        <CharString name="n.sups">
          -70 39 callsubr
          188 66 -10 -20 hstemhm
          110 369 -134 97 hintmask 10101100
          77 callsubr
          hintmask 10110010
          16 77 rlineto
          28 33 27 13 20 hhcurveto
          10 8 -7 -14 -10 -3 -18 -6 -20 hvcurveto
          35 callgsubr
          hintmask 01001010
          57 45 100 callgsubr
          hintmask 10110010
          -20 13 rlineto
          -27 -22 -17 -13 -12 hhcurveto
          -6 -5 5 8 7 3 8 3 13 hvcurveto
          66 callgsubr
          -42 -49 -27 -42 -45 vhcurveto
          hintmask 10101100
          11 59 55 callgsubr
        </CharString>
        <CharString name="nacute">
          -95 callsubr
          275 566 -102 callsubr
        </CharString>
        <CharString name="ncaron">
          -95 callsubr
          222 776 -68 callgsubr
        </CharString>
        <CharString name="nine">
          77 241 59 295 50 hstem
          91 87 callgsubr
          221 -37 callgsubr
        </CharString>
        <CharString name="nine.cap">
          61 249 58 319 49 hstem
          91 87 callgsubr
          221 447 rmoveto
          99 62 80 57 49 24 -39 -96 -59 -7 -54 -13 -49 vhcurveto
          -15 -29 -26 -7 -26 hhcurveto
          -57 -34 49 91 hvcurveto
          -155 -419 rmoveto
          9 -46 rlineto
          272 47 200 193 231 vvcurveto
          142 -76 80 -124 -140 -116 -106 -133 -112 60 -75 104 40 44 14 24 40 vhcurveto
          -49 -126 -101 -86 -163 -47 rrcurveto
          endchar
        </CharString>
        <CharString name="nine.dnom">
          -99 10 -21 151 63 callsubr
          41 96 110 102 hintmask 11011100
          137 250 -78 callgsubr
          hintmask 10111100
          27 30 8 13 24 hvcurveto
          hintmask 11011100
          -31 -69 -61 -46 -97 -25 rrcurveto
          endchar
        </CharString>
        <CharString name="nine.lf">
          61 241 59 295 50 hstem
          85 87 callgsubr
          215 -37 callgsubr
        </CharString>
        <CharString name="nine.numr">
          -99 386 63 callsubr
          92 96 110 102 hintmask 10111000
          188 496 -78 callgsubr
          hintmask 01111000
          27 30 8 13 24 hvcurveto
          hintmask 10111000
          -31 -69 -61 -46 -97 -25 rrcurveto
          endchar
        </CharString>
        <CharString name="nine.osf">
          90 127 60 292 55 hstem
          94 137 190 130 vstem
          231 -34 callgsubr
        </CharString>
        <CharString name="nine.subs">
          -99 -63 63 callsubr
          -3 96 110 102 hintmask 10111000
          93 47 -78 callgsubr
          hintmask 01111000
          27 30 8 13 24 hvcurveto
          hintmask 10111000
          -31 -69 -61 -46 -97 -25 rrcurveto
          endchar
        </CharString>
        <CharString name="nine.sups">
          -99 552 63 callsubr
          128 96 110 102 hintmask 10111000
          224 662 -78 callgsubr
          hintmask 01111000
          27 30 8 13 24 hvcurveto
          hintmask 10111000
          -31 -69 -61 -46 -97 -25 rrcurveto
          endchar
        </CharString>
        <CharString name="nine.tosf">
          77 127 60 292 55 hstem
          84 137 190 130 vstem
          221 -34 callgsubr
        </CharString>
        <CharString name="notequal">
          78 callgsubr
          156 31 rmoveto
          83 146 rlineto
          278 82 -232 hlineto
          72 128 rlineto
          160 82 -113 hlineto
          66 117 -50 28 -82 -145 rlineto
          -276 -82 230 hlineto
          -72 -128 rlineto
          -158 -82 112 hlineto
          -67 -118 rlineto
          endchar
        </CharString>
        <CharString name="ntilde">
          123 89 callgsubr
          28 -21 507 -20 21 -20 91 99 callgsubr
          51 555 -201 150 hintmask 0010110110000000
          -15 callgsubr
          hintmask 0100110101000000
          -70 callsubr
          hintmask 1001010101000000
          -82 callsubr
          hintmask 0100110110000000
          -12 callgsubr
          hintmask 0010101010000000
          14 -12 rlineto
          128 596 2 callsubr
          hintmask 0010110110000000
          43 callgsubr
          hintmask 0010101010000000
          -38 17 rlineto
          hintmask 0010110110000000
          4 callsubr
          hintmask 0010101010000000
          36 callsubr
        </CharString>
        <CharString name="numbersign">
          120 21 -21 159 109 107 108 hstem
          36 579 vstem
          244 268 rmoveto
          28 107 rlineto
          142 hlineto
          -29 -107 rlineto
          -294 -268 rmoveto
          81 hlineto
          43 159 rlineto
          141 hlineto
          -43 -159 rlineto
          82 hlineto
          43 159 rlineto
          97 hlineto
          22 109 rlineto
          -90 hlineto
          28 107 rlineto
          98 hlineto
          22 108 rlineto
          -91 83 callgsubr
          -142 83 callgsubr
          -104 hlineto
          -22 -108 rlineto
          97 hlineto
          -28 -107 rlineto
          -106 hlineto
          -21 -109 rlineto
          98 hlineto
          endchar
        </CharString>
        <CharString name="o">
          27 callsubr
          -92 callgsubr
          endchar
        </CharString>
        <CharString name="o.sups">
          -22 callgsubr
        </CharString>
        <CharString name="oacute">
          27 callsubr
          -92 callgsubr
          68 519 -102 callsubr
        </CharString>
        <CharString name="ocircumflex">
          27 callsubr
          hstem
          47 145 194 145 vstem
          253 39 -77 callgsubr
          -12 -54 -85 callgsubr
          241 560 -62 callsubr
        </CharString>
        <CharString name="odieresis">
          27 callsubr
          95 143 hstemhm
          47 145 -7 144 57 145 -123 143 hintmask 11010100
          -17 callsubr
          hintmask 11101010
          -2 555 -94 callsubr
        </CharString>
        <CharString name="oe">
          326 -15 54 -54 103 356 55 hstemhm
          47 145 194 129 178 116 hintmask 10111100
          253 39 -77 callgsubr
          403 405 -92 callsubr
          hintmask 01111100
          -28 20 rlineto
          -88 callsubr
          -70 -63 -26 -43 -49 vhcurveto
          46 -35 -52 23 -62 hhcurveto
          -167 -125 -156 -167 hvcurveto
          hintmask 10111100
          -131 85 -60 104 66 57 27 46 46 vhcurveto
          -47 30 51 -26 63 hhcurveto
          endchar
        </CharString>
        <CharString name="ogonek">
          -69 -234 64 hstem
          22 94 vstem
          22 -158 rmoveto
          -56 callsubr
          41 25 40 43 53 hvcurveto
          -37 hlineto
          -69 -61 -56 -52 -58 vvcurveto
          endchar
        </CharString>
        <CharString name="ograve">
          27 callsubr
          -92 callgsubr
          119 518 -88 callgsubr
        </CharString>
        <CharString name="ohungarumlaut">
          27 callsubr
          -92 callgsubr
          -16 538 -75 callgsubr
        </CharString>
        <CharString name="omacron">
          27 callsubr
          100 81 -92 callgsubr
          -60 560 -26 callsubr
        </CharString>
        <CharString name="one">
          77 0 88 callsubr
          hstem
          57 391 vstem
          180 588 rmoveto
          -9 -44 112 5 -99 -489 -117 -13 -10 -47 rlineto
          381 hlineto
          10 47 -121 14 9 49 9 49 104 callgsubr
        </CharString>
        <CharString name="one.cap">
          -59 0 47 hstem
          24 370 vstem
          146 620 rmoveto
          -9 -44 92 3 -106 -520 47 callsubr
          67 316 33 142 -11 10 rlineto
          endchar
        </CharString>
        <CharString name="one.dnom">
          -99 0 13 callgsubr
          hstem
          38 263 vstem
          290 hmoveto
          -24 callsubr
          -50 callgsubr
          endchar
        </CharString>
        <CharString name="one.lf">
          -59 0 47 hstem
          24 363 vstem
          139 590 rmoveto
          -9 -43 93 2 -100 -490 47 callsubr
          60 287 33 141 -11 10 rlineto
          endchar
        </CharString>
        <CharString name="one.numr">
          -99 246 13 callgsubr
          30 -20 hstemhm
          89 263 hintmask 10110000
          341 246 rmoveto
          -24 callsubr
          rlineto
          hintmask 11110000
          -50 callgsubr
          endchar
        </CharString>
        <CharString name="one.osf">
          -49 96 callgsubr
          36 342 hintmask 10110000
          36 hmoveto
          332 hlineto
          10 47 -94 16 9 51 12 60 54 callgsubr
          -233 -58 -10 -49 94 9 -75 -371 -94 -14 rlineto
          endchar
        </CharString>
        <CharString name="one.subs">
          -99 -203 13 callgsubr
          hstem
          -6 263 vstem
          246 -203 28 callsubr
        </CharString>
        <CharString name="one.sups">
          -99 412 13 callgsubr
          hstem
          125 263 vstem
          377 412 28 callsubr
        </CharString>
        <CharString name="one.tosf">
          77 96 callgsubr
          64 404 hintmask 10110000
          64 hmoveto
          394 hlineto
          10 47 -123 16 10 52 11 59 54 callgsubr
          -255 -59 -10 -49 116 10 -75 -370 -127 -15 rlineto
          endchar
        </CharString>
        <CharString name="oneeighth">
          401 -9 36 219 38.5 77.5 37 180 30 30 -20 hstemhm
          527 15 callgsubr
          hintmask 1110110010000000
          -21 callsubr
          hintmask 1111101010000000
          -50 callgsubr
          570 71 -68 callsubr
          hintmask 1110110100000000
          -42 callgsubr
          hintmask 1110101010000000
          -65 callgsubr
          hintmask 1110110010000000
          -67 -28 -36 -32 -49 vvcurveto
          hintmask 1110110100000000
          -86 callsubr
        </CharString>
        <CharString name="onehalf">
          401 0 85 161 38.5 71.5 43 180 30 30 -20 hstemhm
          552 -2 callgsubr
          hintmask 11101110
          -21 callsubr
          hintmask 11111110
          -50 callgsubr
          417 -246 rmoveto
          -97 callsubr
          endchar
        </CharString>
        <CharString name="onequarter">
          401 98 callsubr
          101 13 callgsubr
          30 -20 hstemhm
          89 743 hintmask 10101100
          261 -64 callsubr
          hintmask 01101100
          606 67 rmoveto
          hintmask 10101100
          -1 callgsubr
          hintmask 01101100
          6 callgsubr
          hintmask 10101100
          -18 -91 rlineto
          98 hlineto
          hintmask 01101100
          18 91 rlineto
          -417 165 rmoveto
          -24 callsubr
          rlineto
          hintmask 10111100
          -50 callgsubr
          464 -101 rmoveto
          152 160 -32 -160 rlineto
          endchar
        </CharString>
        <CharString name="onethird">
          401 -9 38 148 37 32 38.5 76.5 38 180 30 30 -20 hstemhm
          513 3 callgsubr
          hintmask 1111011010000000
          -21 callsubr
          hintmask 1111111010000000
          -50 callgsubr
          546 -255 -30 callsubr
          hintmask 1111010101000000
          -99 callsubr
          hintmask 1111010110000000
          -30 callgsubr
          hintmask 1111011010000000
          -5 -4 0 -4 hhcurveto
          -2 37 rlineto
          48 -3 -16 10 -24 hhcurveto
          -16 -17 -10 -18 -9 hvcurveto
          hintmask 1111111010000000
          -67 42 -38 80 vhcurveto
          endchar
        </CharString>
        <CharString name="ordfeminine">
          -74 callsubr
        </CharString>
        <CharString name="ordmasculine">
          -22 callgsubr
        </CharString>
        <CharString name="oslash">
          64 -15 54 -33 -21 459 55 106 callsubr
          47 138 208 138 hintmask 10011100
          562 481 rmoveto
          hintmask 01101100
          -38 38 -58 -58 rlineto
          26 -34 -44 12 -49 hhcurveto
          -167 -125 -156 -167 -43 9 -36 17 -28 hvcurveto
          -66 -66 rlineto
          hintmask 10011100
          39 -37 62 62 rlineto
          -29 34 47 -14 52 hhcurveto
          166 124 156 167 47 -10 37 -19 29 hvcurveto
          hintmask 10101100
          -176 23 rmoveto
          31 24 -14 -45 9 hvcurveto
          -205 -204 rlineto
          128 8 55 135 78 hhcurveto
          -73 -405 rmoveto
          -33 -25 15 53 -8 hvcurveto
          206 206 rlineto
          -133 -6 -56 -141 -78 hhcurveto
          endchar
        </CharString>
        <CharString name="otilde">
          27 callsubr
          73 99 callgsubr
          47 145 194 145 hintmask 11101110
          -17 callsubr
          hintmask 11010110
          -73 550 2 callsubr
          hintmask 11101110
          43 callgsubr
          hintmask 11010110
          -38 17 rlineto
          hintmask 11101110
          4 callsubr
          hintmask 11010110
          36 callsubr
        </CharString>
        <CharString name="p">
          84 -227 39 173 74 -46 -21 404 103 0 -20 21 -20 hstemhm
          415 143 hintmask 11000110
          -54 -227 rmoveto
          277 hlineto
          8 39 -73 11 rlineto
          hintmask 10100110
          9 50 10 53 13 66 rrcurveto
          hintmask 11001010
          -5 14 14 -2 16 hhcurveto
          153 171 189 187 105 -47 33 -57 -56 -69 -39 -62 -53 hvcurveto
          hintmask 11000110
          17 86 -19 16 -206 -64 -5 -38 70 -7 -119 -569 -60 -10 rlineto
          hintmask 11010010
          404 584 rmoveto
          38 19 -24 -59 -60 -22 -78 -29 -46 hvcurveto
          -50 -31 -30 -20 -38 hhcurveto
          -20 -17 8 15 -17 hvcurveto
          54 265 rlineto
          28 31 33 21 29 hhcurveto
          endchar
        </CharString>
        <CharString name="p.sups">
          -96 59 callgsubr
          47 220 66 -10 -20 hstemhm
          351 94 hintmask 01110100
          313 669 rmoveto
          25 13 -16 -39 -87 -50 -78 -50 -14 -12 6 10 -11 hvcurveto
          34 172 rlineto
          18 22 23 14 20 hhcurveto
          -274 -405 rmoveto
          185 hlineto
          5 25 -50 8 6 32 7 35 8 42 rlinecurve
          -3 10 9 -1 11 hhcurveto
          102 113 122 122 68 -32 21 -38 -38 -46 -25 -40 -36 hvcurveto
          hintmask 10101100
          11 55 -12 11 -136 -42 -4 -25 49 -5 -76 -368 -43 -7 rlineto
          endchar
        </CharString>
        <CharString name="paragraph">
          183 598.5 -83 callgsubr
          -55 55 hstemhm
          88 638 hintmask 01100000
          369 -116 rmoveto
          137 hlineto
          16 103 19 104 19 104 rrcurveto
          hintmask 10100000
          74 399 82 9 rlineto
          hintmask 01100000
          10 54 rlineto
          -252 hlineto
          -251 -135 -127 -176 -143 110 -74 145 -21 hvcurveto
          90 486 rlineto
          69 hlineto
          endchar
        </CharString>
        <CharString name="parenleft">
          -79 713 -20 hstem
          85 106 callgsubr
          241 -189 1 callsubr
        </CharString>
        <CharString name="parenleft.cap">
          -79 -158 902 hstem
          91 106 callgsubr
          247 -158 1 callsubr
        </CharString>
        <CharString name="parenleft.dnom">
          -106 -111 105 callgsubr
          124 85 vstem
          228 -111 -57 callgsubr
        </CharString>
        <CharString name="parenleft.numr">
          -106 135 105 callgsubr
          175 85 vstem
          279 135 -57 callgsubr
        </CharString>
        <CharString name="parenleft.subs">
          -106 -314 105 callgsubr
          80 85 vstem
          184 -314 -57 callgsubr
        </CharString>
        <CharString name="parenleft.sups">
          -106 301 105 callgsubr
          211 85 vstem
          315 301 -57 callgsubr
        </CharString>
        <CharString name="parenright">
          -79 713 -20 hstem
          228 106 callgsubr
          186 713 0 callsubr
        </CharString>
        <CharString name="parenright.cap">
          -79 -158 902 hstem
          234 106 callgsubr
          192 744 0 callsubr
        </CharString>
        <CharString name="parenright.dnom">
          -106 -111 105 callgsubr
          169 86 vstem
          151 444 -31 callsubr
        </CharString>
        <CharString name="parenright.numr">
          -106 135 105 callgsubr
          220 86 vstem
          202 690 -31 callsubr
        </CharString>
        <CharString name="parenright.subs">
          -106 -314 105 callgsubr
          125 86 vstem
          107 241 -31 callsubr
        </CharString>
        <CharString name="parenright.sups">
          -106 301 105 callgsubr
          256 86 vstem
          238 856 -31 callsubr
        </CharString>
        <CharString name="partialdiff">
          94 -15 54 318 55 173 61 hstemhm
          48 146 198 148 -147 147 hintmask 11111000
          194 140 rmoveto
          138 73 79 68 23 18 -3 -7 16 vhcurveto
          -175 -7 -62 -133 -70 hhcurveto
          -38 -21 36 65 hvcurveto
          40 -155 rmoveto
          173 133 150 247 181 -110 83 -128 -60 -57 -17 -24 -46 hvcurveto
          14 -46 rlineto
          18 44 26 8 34 hhcurveto
          hintmask 11110100
          76 58 -51 -142 2 hvcurveto
          13 -26 -29 7 -35 hhcurveto
          -138 -117 -89 -147 hvcurveto
          hintmask 11111000
          -125 85 -66 101 vhcurveto
          endchar
        </CharString>
        <CharString name="percent">
          401 -9 37 209 37 88 37 209 37 hstem
          78 89 callsubr
          113 89 callsubr
          vstem
          -11 callgsubr
          12 223 -100 callsubr
          439 -283 -100 callsubr
          endchar
        </CharString>
        <CharString name="period">
          -159 -14 174 -153 -21 hstemhm
          47 179 hintmask 01100000
          129 -14 rmoveto
          52 45 40 54 hvcurveto
          hintmask 10100000
          44 -33 36 -48 -52 -46 -42 -54 vhcurveto
          hintmask 01100000
          -42 34 -36 48 vhcurveto
          endchar
        </CharString>
        <CharString name="period.dnom">
          -262 -10 115 hstem
          22 121 vstem
          78 -10 -32 callsubr
          endchar
        </CharString>
        <CharString name="period.numr">
          -262 236 115 hstem
          73 121 vstem
          129 236 -32 callsubr
          endchar
        </CharString>
        <CharString name="period.subs">
          -262 -213 115 hstem
          -22 121 vstem
          34 -213 -32 callsubr
          endchar
        </CharString>
        <CharString name="period.sups">
          -262 402 115 hstem
          109 121 vstem
          165 402 -32 callsubr
          endchar
        </CharString>
        <CharString name="periodcentered">
          -162 245 174 hstem
          100 179 vstem
          182 245 -39 callgsubr
          endchar
        </CharString>
        <CharString name="perthousand">
          773 -9 37 209 37 88 37 209 37 hstem
          78 89 callsubr
          113 89 callsubr
          35 89 callsubr
          vstem
          -11 callgsubr
          12 223 -100 callsubr
          439 -283 -100 callsubr
          361 -37 -100 callsubr
          endchar
        </CharString>
        <CharString name="pi">
          145 -15 95 -74 -21 383 122 -116 116 hstemhm
          23 638 -322 145 hintmask 01011000
          67 352 rmoveto
          166 21 -19 -77 -22 -77 -24 -76 rlinecurve
          -37 -6 -36 -6 -35 -5 rrcurveto
          -19 -18 -18 -24 -30 vvcurveto
          -37 21 -32 55 vhcurveto
          hintmask 01010100
          68 50 49 112 25 hvcurveto
          17 72 18 83 16 73 rrcurveto
          122 hlineto
          -50 -159 -26 -83 -57 vvcurveto
          -52 34 -38 59 64 62 30 29 31 vhcurveto
          hintmask 10100100
          -7 42 rlineto
          -3 -13 -17 -3 -15 hhcurveto
          -31 -22 11 35 29 8 41 26 175 hvcurveto
          124 -6 rlineto
          hintmask 01011000
          19 125 rlineto
          -343 hlineto
          -135 -55 -27 -48 -58 hvcurveto
          endchar
        </CharString>
        <CharString name="plus">
          75 282 82 hstem
          247 86 vstem
          247 87 rmoveto
          86 195 184 82 -184 190 -86 -190 -185 -82 185 hlineto
          endchar
        </CharString>
        <CharString name="plusminus">
          75 0 82 218 83 hstem
          236 87 vstem
          507 hmoveto
          82 -455 -82 vlineto
          184 131 rmoveto
          87 169 184 83 -184 164 -87 -164 -184 -83 184 hlineto
          endchar
        </CharString>
        <CharString name="product">
          307 -123 58 662 60 -58 58 hstemhm
          159 158 218 159 hintmask 11011000
          159 187 rmoveto
          -84 0 -82 -2 -82 vhcurveto
          -75 -8 rlineto
          -54 312 54 vlineto
          -75 8 rlineto
          -2 82 0 84 83 vvcurveto
          159 vlineto
          84 0 84 2 82 vhcurveto
          214 hlineto
          2 -83 0 -84 -83 vvcurveto
          -159 vlineto
          -85 0 -83 -2 -81 vhcurveto
          -74 -8 rlineto
          -54 311 54 vlineto
          -74 8 rlineto
          -2 83 0 83 82 vvcurveto
          160 vlineto
          hintmask 10111000
          84 0 83 2 81 vhcurveto
          74 8 rlineto
          hintmask 11011000
          54 -688 vlineto
          hintmask 10111000
          -54 vlineto
          75 -8 rlineto
          2 -83 0 -83 -82 vvcurveto
          endchar
        </CharString>
        <CharString name="q">
          85 -227 39 173 102 -81 -21 440 74 -4 -20 hstemhm
          47 144 hintmask 11010100
          191 176 rmoveto
          68 28 96 46 46 vhcurveto
          20 19 29 19 31 hhcurveto
          18 19 -5 -10 18 hvcurveto
          -58 -275 rlineto
          -30 -32 -34 -18 -28 hhcurveto
          -36 -20 28 61 hvcurveto
          hintmask 10101100
          366 319 rmoveto
          hintmask 10110100
          -17 12 -75 -34 rlineto
          17 -24 -26 9 -29 hhcurveto
          -151 -188 -196 -176 -106 49 -36 55 56 70 38 58 55 hvcurveto
          -53 -258 -71 -11 -7 -39 rlineto
          280 hlineto
          8 39 -68 11 9 52 10 53 11 57 rlinecurve
          endchar
        </CharString>
        <CharString name="q.sups">
          -97 59 callgsubr
          66 219 48 -17 -20 hstemhm
          106 93 hintmask 10101100
          199 526 rmoveto
          hintmask 10110100
          71 41 90 62 13 12 -3 -7 13 vhcurveto
          -38 -177 rlineto
          -20 -23 -23 -12 -19 hhcurveto
          hintmask 10101100
          -25 -13 18 40 hvcurveto
          243 206 rmoveto
          -12 9 -48 -23 rlineto
          hintmask 01110100
          12 -17 -16 5 -20 hhcurveto
          -100 -123 -127 -114 -69 32 -23 37 37 47 24 37 37 hvcurveto
          -35 -166 -47 -8 rlineto
          hintmask 10101100
          -5 -25 rlineto
          186 hlineto
          5 25 -46 7 6 34 6 36 7 36 rlinecurve
          endchar
        </CharString>
        <CharString name="question">
          -11 -15 154 -133 -21 645 46 hstemhm
          58 156 -90 46 217 102 hintmask 01110100
          58 54 rmoveto
          -37 29 -32 43 44 40 37 46 vhcurveto
          hintmask 10110100
          38 -29 33 -42 vhcurveto
          hintmask 01110100
          -44 -41 -38 -47 hvcurveto
          hintmask 01101100
          66 140 rmoveto
          46 -6 6 43 7 17 18 18 rlinecurve
          23 21 42 23 97 50 rrcurveto
          88 47 38 56 75 vvcurveto
          95 -80 43 -96 -105 -61 -48 -65 -15 vhcurveto
          -34 5 21 -21 35 hhcurveto
          35 24 21 38 16 hvcurveto
          25 63 rlineto
          1 0 0 1 hhcurveto
          68 24 -28 -36 -36 -24 -27 -89 -47 hvcurveto
          -74 -40 -28 -21 -23 -32 -28 -42 -2 -42 5 -85 rrcurveto
          endchar
        </CharString>
        <CharString name="questiondown">
          -11 -189 46 491 154 106 callsubr
          -2 95 callsubr
          hintmask 10111000
          429 433 rmoveto
          37 -29 32 -43 -44 -40 -37 -46 vhcurveto
          hintmask 11011000
          -38 29 -33 42 vhcurveto
          hintmask 10111000
          44 41 38 47 hvcurveto
          hintmask 10110100
          -38 callgsubr
        </CharString>
        <CharString name="questiondown.cap">
          -11 -16 46 491 154 hstemhm
          35 95 callsubr
          hintmask 11110000
          466 606 rmoveto
          37 -29 32 -43 -44 -40 -37 -46 -38 29 -33 42 44 41 38 47 vhcurveto
          hintmask 10101000
          -38 callgsubr
        </CharString>
        <CharString name="quotedbl">
          10 84 callgsubr
          151 138 -137 47 hintmask 11010000
          237 725 rmoveto
          31 callsubr
          hintmask 10110000
          46 hlineto
          hintmask 11010000
          43 callsubr
          199 hmoveto
          31 callsubr
          hintmask 11001000
          46 hlineto
          hintmask 11010000
          43 callsubr
          endchar
        </CharString>
        <CharString name="quotedblbase">
          30 7 -21 hstem
          53 153 54 153 vstem
          342 160 8 callgsubr
          -207 hmoveto
          -38 callsubr
        </CharString>
        <CharString name="quotedblleft">
          11 711 -20 hstem
          129 153 54 -5 callsubr
          207 hmoveto
          -61 callsubr
          endchar
        </CharString>
        <CharString name="quotedblright">
          11 722 -20 hstem
          163 153 54 153 vstem
          452 3 callsubr
          -207 hmoveto
          -38 callsubr
        </CharString>
        <CharString name="quoteleft">
          -18 callsubr
        </CharString>
        <CharString name="quoteright">
          -18 callgsubr
        </CharString>
        <CharString name="quotesinglbase">
          -177 7 -21 hstem
          53 153 vstem
          135 160 rmoveto
          -38 callsubr
        </CharString>
        <CharString name="quotesingle">
          -190 84 callgsubr
          hintmask 11000000
          237 725 rmoveto
          31 callsubr
          hintmask 10100000
          46 hlineto
          hintmask 11000000
          43 callsubr
          endchar
        </CharString>
        <CharString name="r">
          48 callgsubr
          448 -67 callgsubr
          endchar
        </CharString>
        <CharString name="r.sups">
          -161 648 87 -10 -20 hstemhm
          110 293 hintmask 01100000
          110 414 rmoveto
          9 -8 84 5 rlineto
          hintmask 10100000
          9 47 9 46 10 47 1 7 rcurveline
          18 40 23 40 36 37 rrcurveto
          -20 20 13 -7 18 hhcurveto
          29 15 24 30 -1 hvcurveto
          22 -7 -22 11 -22 hhcurveto
          -40 -40 -45 -61 -30 hvcurveto
          hintmask 01100000
          17 96 -13 11 -128 -42 -4 -25 49 -5 rlineto
          endchar
        </CharString>
        <CharString name="racute">
          48 callgsubr
          448 -67 callgsubr
          167 167 -102 callsubr
        </CharString>
        <CharString name="radical">
          105 282 81 hstem
          76 585 vstem
          661 775 rmoveto
          -106 hlineto
          -214 -740 -76 328 rlineto
          -189 -81 100 hlineto
          99 -389 rlineto
          92 hlineto
          endchar
        </CharString>
        <CharString name="rcaron">
          48 callgsubr
          466 -67 callgsubr
          105 377 -68 callgsubr
        </CharString>
        <CharString name="registered">
          2 308 43 67 21 68 20 -10 10 67 22 55 43 hstemhm
          105 48 196 52 59 48 hintmask 1110111110000000
          294 351 rmoveto
          -78 -63 54 88 108 82 70 86 77 62 -53 -89 -108 -81 -70 -85 hvcurveto
          -5 -43 rmoveto
          111 108 89 135 112 -81 70 -102 -111 -109 -88 -134 -114 82 -70 102 hvcurveto
          30 286 rmoveto
          19 11 -9 -20 -21 -11 -17 -32 hvcurveto
          -10 hlineto
          13 67 rlineto
          -78 2 rmoveto
          22 -2 -30 -154 -22 -2 -4 -20 rlineto
          100 hlineto
          4 20 -22 2 13 67 rlineto
          4 hlineto
          14 4 -6 -22 5 hvcurveto
          10 -37 rlineto
          -20 5 10 -8 23 hhcurveto
          14 11 1 3 12 hvcurveto
          3 20 -21 2 rlineto
          hintmask 1101111110000000
          -9 31 -7 24 -10 16 -23 6 rlinecurve
          49 6 15 23 22 vvcurveto
          30 -24 18 -42 vhcurveto
          -99 hlineto
          endchar
        </CharString>
        <CharString name="ring">
          -69 553 101 callgsubr
          hstem
          175 62 120 61 vstem
          289 553 rmoveto
          -4 callgsubr
          50 vmoveto
          -3 callgsubr
          endchar
        </CharString>
        <CharString name="ringcmb.cap">
          698 45 108 45 hstem
          28 53 103 52 vstem
          125 698 rmoveto
          59 52 39 72 53 -40 34 -56 -58 -54 -41 -69 -57 47 -31 50 hvcurveto
          3 45 rmoveto
          -31 -16 21 26 35 24 26 32 30 17 -20 -27 -37 -24 -24 -32 hvcurveto
          endchar
        </CharString>
        <CharString name="s">
          -89 callsubr
          endchar
        </CharString>
        <CharString name="s.sups">
          -182 402 25 77 -20 225 26 hstemhm
          143 83 26 87 vstemhm
          339 499 rmoveto
          38 -25 28 -33 26 vhcurveto
          hintmask 11110000
          -32 26 -23 19 26 vvcurveto
          23 13 21 32 3 vhcurveto
          11 -30 rlineto
          -28 10 19 -12 17 hhcurveto
          22 12 12 19 2 hvcurveto
          40 -9 -28 25 -62 hhcurveto
          -78 -44 -48 -57 -41 32 -29 30 -26 hvcurveto
          hintmask 11111000
          27 -23 20 -19 -23 vvcurveto
          -23 -20 -19 -35 vhcurveto
          0 -1 0 -2 vhcurveto
          -9 36 rlineto
          29 -6 -17 12 -23 hhcurveto
          -22 -12 -13 -22 -4 hvcurveto
          -44 8 34 -23 58 hhcurveto
          92 46 45 52 hvcurveto
          endchar
        </CharString>
        <CharString name="sacute">
          -89 callsubr
          -97 422 -102 callsubr
        </CharString>
        <CharString name="scaron">
          -89 callsubr
          -174 632 -68 callgsubr
        </CharString>
        <CharString name="section">
          36 -132 40 728 41 hstemhm
          65 124 -25 129 -33 135 -30 128 hintmask 11010100
          350 677 rmoveto
          -120 -66 -73 -85 -48 23 -33 30 -28 hvcurveto
          hintmask 11101000
          -101 -22 -51 -67 -72 vvcurveto
          -63 31 -38 54 -45 vhcurveto
          41 -34 rlineto
          48 -38 21 -24 -30 vvcurveto
          -40 -29 -29 -51 vhcurveto
          -5 hlineto
          -12 54 rlineto
          45 -10 -27 18 -34 hhcurveto
          -33 -19 -21 -32 -6 hvcurveto
          -65 11 56 -39 83 hhcurveto
          140 71 65 80 55 -22 29 -46 40 hvcurveto
          hintmask 11010100
          110 18 56 65 72 vvcurveto
          55 -22 33 -56 46 vhcurveto
          -42 33 rlineto
          -48 38 -32 28 40 vvcurveto
          34 19 33 46 4 vhcurveto
          16 -45 rlineto
          -43 16 28 -18 26 hhcurveto
          33 19 19 29 6 hvcurveto
          60 -15 -43 39 -94 hhcurveto
          hintmask 11100100
          -87 -487 rmoveto
          -49 40 -27 29 2 40 1 34 18 31 46 15 44 -36 rcurveline
          48 -40 19 -26 -33 vvcurveto
          -2 -35 -25 -28 -50 -12 rrcurveto
          endchar
        </CharString>
        <CharString name="semicolon">
          -142 321 174 106 callsubr
          45 169 -95 179 hintmask 10010000
          201 321 -39 callgsubr
          -198 -482 rmoveto
          hintmask 01100000
          8 callsubr
        </CharString>
        <CharString name="seven">
          77 0 12 504 114 hstem
          64 500 vstem
          64 32 callsubr
        </CharString>
        <CharString name="seven.cap">
          30 0 12 531 114 hstem
          53 506 vstem
          53 12 rmoveto
          14 -12 rlineto
          132 hlineto
          345 580 15 77 rlineto
          -425 hlineto
          -24 -114 rlineto
          336 hlineto
          endchar
        </CharString>
        <CharString name="seven.dnom">
          -99 0 11 296 82 hstem
          26 344 vstem
          26 11 -26 callgsubr
        </CharString>
        <CharString name="seven.lf">
          30 0 12 504 114 hstem
          53 500 vstem
          53 32 callsubr
        </CharString>
        <CharString name="seven.numr">
          -99 246 11 296 82 hstem
          77 344 vstem
          77 257 -26 callgsubr
        </CharString>
        <CharString name="seven.osf">
          29 393 125 hstem
          54 487 vstem
          154 29 callgsubr
        </CharString>
        <CharString name="seven.subs">
          -99 -203 11 296 82 hstem
          -18 344 vstem
          -18 -192 -26 callgsubr
        </CharString>
        <CharString name="seven.sups">
          -99 412 11 296 82 hstem
          113 344 vstem
          113 423 -26 callgsubr
        </CharString>
        <CharString name="seven.tosf">
          77 393 125 hstem
          76 487 vstem
          176 29 callgsubr
        </CharString>
        <CharString name="seveneighths">
          401 -9 36 219 11 105 37 154 82 106 callsubr
          527 15 callgsubr
          hintmask 1111010010000000
          213 -21 rmoveto
          hintmask 1110110010000000
          484 635 -46 35 -484 -635 rlineto
          -87 243 rmoveto
          7 -11 rlineto
          102 hlineto
          hintmask 1111001010000000
          224 334 11 55 rlineto
          -292 hlineto
          -17 -82 rlineto
          222 hlineto
          322 -236 -68 callsubr
          hintmask 1111010100000000
          -42 callgsubr
          hintmask 1111001010000000
          -65 callgsubr
          hintmask 1111010010000000
          -67 -28 -36 -32 -49 vvcurveto
          hintmask 1111010100000000
          -86 callsubr
        </CharString>
        <CharString name="six">
          77 -15 51 280 65 hstem
          66 139 184 138 vstem
          205 -40 callgsubr
        </CharString>
        <CharString name="six.cap">
          70 -15 51 299 77 callgsubr
          184 rmoveto
          47 5 46 11 42 vhcurveto
          12 26 22 4 24 hhcurveto
          63 33 -41 -96 -95 -43 -67 -55 -53 -33 37 111 hvcurveto
          64 -199 rmoveto
          132 126 78 153 107 -58 77 -109 -47 -38 -11 -25 -40 hvcurveto
          51 138 113 100 176 29 -5 45 rcurveline
          -272 -12 -232 -201 -257 vvcurveto
          -141 81 -80 122 vhcurveto
          endchar
        </CharString>
        <CharString name="six.dnom">
          -99 -9 52 callgsubr
          27 102 callgsubr
          132 105 -87 callsubr
        </CharString>
        <CharString name="six.lf">
          70 -15 51 280 77 callgsubr
          -40 callgsubr
        </CharString>
        <CharString name="six.numr">
          -99 237 52 callgsubr
          78 102 callgsubr
          183 351 -87 callsubr
        </CharString>
        <CharString name="six.osf">
          92 -15 52 285 63 hstem
          78 138 182 138 vstem
          216 -36 callgsubr
        </CharString>
        <CharString name="six.subs">
          -99 -212 52 callgsubr
          -17 102 callgsubr
          88 -98 -87 callsubr
        </CharString>
        <CharString name="six.sups">
          -100 403 52 callgsubr
          114 102 callgsubr
          219 517 -87 callsubr
        </CharString>
        <CharString name="six.tosf">
          77 -15 52 285 63 hstem
          72 138 182 138 vstem
          210 -36 callgsubr
        </CharString>
        <CharString name="slash">
          -82 -160 870 hstem
          -80 555 vstem
          -80 -160 rmoveto
          110 hlineto
          445 870 rlineto
          -110 hlineto
          endchar
        </CharString>
        <CharString name="slash.frac">
          -344 -21 670 hstem
          -173 530 vstem
          -127 -64 callsubr
          endchar
        </CharString>
        <CharString name="space">
          -252 endchar
        </CharString>
        <CharString name="space.frac">
          -290 endchar
        </CharString>
        <CharString name="sterling">
          77 0 123 135 58 277 53 hstem
          122 155 130.5 126.5 vstem
          20 hmoveto
          432 hlineto
          25 123 rlineto
          -313 hlineto
          57 37 48 50 20 48 rrcurveto
          129 hlineto
          13 58 rlineto
          -131 hlineto
          -3 58 -20 35 69 vvcurveto
          64 35 51 82 vhcurveto
          4 4 0 5 hhcurveto
          -22 1 -22 -22 vvcurveto
          -70 1 23 -18 35 hhcurveto
          29 23 13 41 15 hvcurveto
          99 -60 54 -130 -123 -99 -67 -100 -73 45 -40 14 -50 vhcurveto
          -85 hlineto
          -11 -58 rlineto
          97 hlineto
          -13 -62 -55 -55 -74 -42 rrcurveto
          endchar
        </CharString>
        <CharString name="summation">
          143 -123 115 479 186 -57 57 hstemhm
          58 537 hintmask 10110000
          58 -123 rmoveto
          529 hlineto
          8 245 rlineto
          -80 hlineto
          -27 -130 rlineto
          -315 hlineto
          232 308 -161 300 rlineto
          233 hlineto
          hintmask 11010000
          26 -129 rlineto
          79 hlineto
          hintmask 10110000
          -8 186 rlineto
          -505 -56 hlineto
          203 -350 -214 -289 rlineto
          endchar
        </CharString>
        <CharString name="t">
          -123 45 callgsubr
          hstemhm
          67 147 hintmask 01101000
          81 153 rmoveto
          2 callgsubr
          hintmask 10101000
          -54 callgsubr
          hintmask 01011000
          37 callgsubr
          endchar
        </CharString>
        <CharString name="t.sups">
          -234 39 callsubr
          207 37 -37 38 -7 -20 hstemhm
          121 95 hintmask 10110010
          129 511 rmoveto
          -4 -21 -5 -25 1 -19 rrcurveto
          -29 20 -15 30 vhcurveto
          hintmask 01010010
          57 43 100 callgsubr
          hintmask 10110010
          -21 13 rlineto
          -27 -22 -15 -13 -12 hhcurveto
          -13 -2 12 29 6 hvcurveto
          39 186 rlineto
          71 hlineto
          7 37 rlineto
          -71 hlineto
          hintmask 10101010
          19 89 rlineto
          -60 hlineto
          -42 -88 rlineto
          hintmask 10100110
          -60 -7 rlineto
          hintmask 10110010
          -5 -31 rlineto
          51 hlineto
          endchar
        </CharString>
        <CharString name="tcaron">
          -120 45 callgsubr
          39.5 102 hstemhm
          66 438 -437 147 hintmask 01101100
          457 758 rmoveto
          -18 -13 -3 -9 -19 hvcurveto
          -47 -225 47 -4 46 79 rlineto
          26 48 25 43 34 vvcurveto
          18 -13 19 -34 vhcurveto
          hintmask 01101010
          -376 -605 rmoveto
          2 callgsubr
          hintmask 10101010
          -54 callgsubr
          hintmask 01011010
          37 callgsubr
          endchar
        </CharString>
        <CharString name="thorn">
          76 -227 43.5 168.5 74 -44 -21 402 103 0 103 callgsubr
          407 143 hintmask 11010110
          350 396 rmoveto
          39 18 -24 -59 -60 -22 -78 -29 -46 hvcurveto
          -50 -30 -31 -20 -37 hhcurveto
          -21 -18 9 14 -16 hvcurveto
          54 265 rlineto
          28 31 34 21 28 hhcurveto
          -127 -584 rmoveto
          -80 13 rlineto
          hintmask 10101110
          10 54 11 55 12 60 rrcurveto
          hintmask 11001110
          -6 16 17 -3 18 hhcurveto
          152 171 189 187 105 -46 33 -58 -58 -70 -41 -64 -54 hvcurveto
          67 313 -16 12 -211 -63 68 callgsubr
          -10 -62 -13 -65 -19 -85 rlinecurve
          -122 -578 -57 -9 -8 -39 rlineto
          277 hlineto
          endchar
        </CharString>
</ttFont>
